<svg 
 xmlns="http://www.w3.org/2000/svg"
 xmlns:xlink="http://www.w3.org/1999/xlink"
 width="52.5px" height="45.5px">
<path fill-rule="evenodd"  fill="rgb(14, 63, 82)"
 d="M38.983,44.483 L13.983,44.483 L1.482,22.984 L13.983,1.484 L38.983,1.484 L51.483,22.984 L38.983,44.483 Z"/>
<path fill-rule="evenodd"  stroke="rgb(0, 167, 232)" stroke-width="1px" stroke-linecap="butt" stroke-linejoin="miter" fill="none"
 d="M38.983,44.483 L13.983,44.483 L1.482,22.984 L13.983,1.484 L38.983,1.484 L51.483,22.984 L38.983,44.483 Z"/>
<path fill-rule="evenodd"  fill="rgb(0, 167, 232)"
 d="M38.200,23.800 L35.600,23.800 C35.564,23.800 35.534,23.782 35.499,23.779 C34.930,27.763 31.763,30.930 27.779,31.499 C27.782,31.534 27.800,31.564 27.800,31.600 L27.800,34.200 C27.800,34.915 27.215,35.500 26.500,35.500 C25.785,35.500 25.200,34.915 25.200,34.200 L25.200,31.600 C25.200,31.564 25.218,31.534 25.220,31.499 C21.236,30.930 18.070,27.763 17.501,23.779 C17.466,23.782 17.436,23.800 17.400,23.800 L14.800,23.800 C14.085,23.800 13.500,23.215 13.500,22.500 C13.500,21.785 14.085,21.200 14.800,21.200 L17.400,21.200 C17.436,21.200 17.466,21.218 17.501,21.220 C18.070,17.236 21.236,14.070 25.220,13.501 C25.218,13.466 25.200,13.436 25.200,13.400 L25.200,10.800 C25.200,10.085 25.785,9.500 26.500,9.500 C27.215,9.500 27.800,10.085 27.800,10.800 L27.800,13.400 C27.800,13.436 27.782,13.466 27.779,13.501 C31.763,14.070 34.930,17.236 35.499,21.220 C35.534,21.218 35.564,21.200 35.600,21.200 L38.200,21.200 C38.915,21.200 39.500,21.785 39.500,22.500 C39.500,23.215 38.915,23.800 38.200,23.800 ZM26.500,16.000 C22.925,16.000 20.000,18.925 20.000,22.500 C20.000,26.075 22.925,29.000 26.500,29.000 C30.075,29.000 33.000,26.075 33.000,22.500 C33.000,18.925 30.075,16.000 26.500,16.000 ZM27.800,24.752 C26.995,25.216 26.004,25.216 25.200,24.752 C24.396,24.287 23.900,23.429 23.900,22.500 C23.900,21.064 25.064,19.900 26.500,19.900 C27.936,19.900 29.100,21.064 29.100,22.500 C29.100,23.429 28.604,24.287 27.800,24.752 Z"/>
</svg>
