<svg 
 xmlns="http://www.w3.org/2000/svg"
 xmlns:xlink="http://www.w3.org/1999/xlink"
 width="52.5px" height="45.5px">
<path fill-rule="evenodd"  fill="rgb(14, 63, 82)"
 d="M38.983,44.483 L13.983,44.483 L1.482,22.984 L13.983,1.484 L38.983,1.484 L51.483,22.984 L38.983,44.483 Z"/>
<path fill-rule="evenodd"  stroke="rgb(0, 167, 232)" stroke-width="1px" stroke-linecap="butt" stroke-linejoin="miter" fill="none"
 d="M38.983,44.483 L13.983,44.483 L1.482,22.984 L13.983,1.484 L38.983,1.484 L51.483,22.984 L38.983,44.483 Z"/>
<path fill-rule="evenodd"  fill="rgb(0, 167, 232)"
 d="M36.724,24.258 L27.625,29.123 C27.169,29.498 26.582,29.689 25.998,29.689 C25.412,29.689 24.827,29.501 24.369,29.123 L15.269,24.258 L15.221,24.216 C14.355,23.456 14.250,22.228 14.975,21.355 L15.864,22.060 C15.538,22.453 15.574,22.983 15.943,23.343 L25.032,28.203 L25.081,28.246 C25.578,28.681 26.416,28.683 26.913,28.246 L26.961,28.203 L36.051,23.346 C36.419,22.986 36.455,22.455 36.130,22.063 L37.019,21.358 C37.744,22.228 37.639,23.458 36.773,24.216 L36.724,24.258 ZM36.394,20.000 L34.957,20.768 L27.297,24.863 C26.580,25.493 25.417,25.493 24.699,24.863 L17.040,20.768 L15.603,20.000 C15.533,19.938 15.474,19.875 15.418,19.808 C14.893,19.178 14.954,18.288 15.603,17.718 L24.699,12.967 C25.417,12.337 26.580,12.337 27.297,12.967 L36.394,17.718 C37.042,18.288 37.101,19.178 36.578,19.808 C36.522,19.875 36.463,19.940 36.394,20.000 ZM15.864,26.868 C15.538,27.261 15.574,27.791 15.943,28.151 L25.032,33.009 L25.081,33.051 C25.578,33.486 26.416,33.489 26.913,33.051 L26.961,33.009 L36.051,28.151 C36.419,27.791 36.455,27.261 36.130,26.868 L37.019,26.163 C37.744,27.033 37.639,28.263 36.773,29.021 L36.724,29.064 L27.625,33.929 C27.169,34.306 26.582,34.494 25.998,34.494 C25.412,34.494 24.827,34.306 24.369,33.929 L15.269,29.064 L15.221,29.021 C14.357,28.261 14.252,27.033 14.975,26.163 L15.864,26.868 Z"/>
</svg>
