<svg 
 xmlns="http://www.w3.org/2000/svg"
 xmlns:xlink="http://www.w3.org/1999/xlink"
 width="100px" height="80px">
<path fill-rule="evenodd"  opacity="0.502" fill="rgb(255, 255, 255)"
 d="M41.628,56.323 L63.900,42.990 C64.971,42.367 65.627,41.233 65.627,40.008 C65.627,38.783 64.971,37.650 63.900,37.026 L41.628,23.687 C40.621,23.186 39.417,23.258 38.479,23.877 C37.542,24.496 37.015,25.564 37.103,26.672 L37.103,53.344 C37.018,54.451 37.545,55.517 38.482,56.134 C39.420,56.751 40.622,56.823 41.628,56.323 L41.628,56.323 ZM90.629,-0.005 L9.336,-0.005 C3.947,0.251 -0.225,4.738 -0.009,10.046 L-0.009,69.964 C-0.242,75.278 3.939,79.776 9.336,80.015 L90.629,80.015 C96.031,79.776 100.221,75.284 100.006,69.964 L100.006,10.046 C100.119,7.488 99.195,4.991 97.435,3.105 C95.676,1.219 93.227,0.100 90.629,-0.005 L90.629,-0.005 ZM18.744,69.982 C18.790,70.844 18.480,71.687 17.886,72.320 C17.292,72.954 16.463,73.325 15.587,73.349 L9.367,73.349 C8.496,73.319 7.674,72.945 7.087,72.312 C6.499,71.678 6.194,70.839 6.242,69.982 L6.242,64.534 C6.196,63.673 6.505,62.830 7.099,62.196 C7.694,61.562 8.523,61.191 9.399,61.167 L15.593,61.167 C16.464,61.197 17.286,61.571 17.874,62.205 C18.462,62.838 18.766,63.678 18.719,64.534 L18.719,69.982 L18.744,69.982 ZM18.744,45.976 C18.790,46.837 18.480,47.679 17.886,48.312 C17.291,48.945 16.462,49.315 15.587,49.337 L9.367,49.337 C8.502,49.306 7.685,48.937 7.098,48.310 C6.511,47.683 6.203,46.852 6.242,46.000 L6.242,34.010 C6.196,33.148 6.505,32.305 7.099,31.671 C7.694,31.037 8.523,30.666 9.399,30.643 L15.593,30.643 C16.464,30.673 17.286,31.047 17.874,31.680 C18.462,32.313 18.766,33.153 18.719,34.010 L18.719,46.000 L18.744,45.976 ZM18.744,15.069 C18.790,15.931 18.480,16.774 17.886,17.408 C17.292,18.042 16.463,18.413 15.587,18.436 L9.367,18.436 C8.502,18.405 7.684,18.033 7.098,17.406 C6.511,16.778 6.203,15.946 6.242,15.094 L6.242,10.034 C6.194,9.172 6.503,8.328 7.097,7.693 C7.692,7.059 8.522,6.689 9.399,6.667 L15.593,6.667 C16.464,6.697 17.286,7.071 17.874,7.705 C18.462,8.338 18.766,9.177 18.719,10.034 L18.719,15.094 L18.744,15.069 ZM75.002,73.324 L24.995,73.324 L24.995,6.661 L75.002,6.661 L75.002,73.349 L75.002,73.324 ZM93.755,69.957 C93.801,70.814 93.496,71.652 92.908,72.285 C92.320,72.918 91.500,73.292 90.629,73.324 L84.379,73.324 C83.508,73.294 82.686,72.920 82.098,72.287 C81.510,71.654 81.205,70.814 81.253,69.957 L81.253,64.510 C81.207,63.654 81.512,62.815 82.100,62.182 C82.687,61.549 83.508,61.174 84.379,61.143 L90.629,61.143 C91.500,61.173 92.322,61.547 92.910,62.180 C93.498,62.813 93.803,63.653 93.755,64.510 L93.755,69.957 ZM93.755,45.951 C93.801,46.807 93.496,47.645 92.908,48.277 C92.320,48.909 91.499,49.282 90.629,49.312 L84.379,49.312 C83.508,49.283 82.686,48.911 82.098,48.279 C81.510,47.646 81.205,46.807 81.253,45.951 L81.253,33.960 C81.207,33.104 81.512,32.265 82.100,31.632 C82.687,30.999 83.508,30.625 84.379,30.593 L90.629,30.593 C91.500,30.624 92.322,30.997 92.910,31.630 C93.498,32.264 93.803,33.104 93.755,33.960 L93.755,45.951 ZM93.755,15.045 C93.801,15.901 93.496,16.740 92.908,17.373 C92.320,18.005 91.500,18.380 90.629,18.412 L84.379,18.412 C83.508,18.382 82.686,18.008 82.098,17.374 C81.510,16.741 81.205,15.901 81.253,15.045 L81.253,9.985 C81.205,9.128 81.510,8.288 82.098,7.655 C82.686,7.022 83.508,6.648 84.379,6.618 L90.629,6.618 C91.500,6.648 92.322,7.022 92.910,7.655 C93.498,8.288 93.803,9.128 93.755,9.985 L93.755,15.045 Z"/>
</svg>
