<svg 
 xmlns="http://www.w3.org/2000/svg"
 xmlns:xlink="http://www.w3.org/1999/xlink"
 width="16px" height="16px">
<path fill-rule="evenodd"  fill="rgb(0, 183, 255)"
 d="M7.937,15.999 C7.377,15.999 6.309,15.751 5.289,15.208 C4.438,14.754 3.324,13.938 2.843,12.627 L2.825,12.576 L2.772,12.561 C2.271,12.423 1.761,12.131 1.373,11.760 C1.067,11.467 0.701,10.992 0.701,10.400 C0.701,9.456 1.200,8.678 1.972,8.418 L2.044,8.393 L2.044,8.226 C2.044,8.089 2.106,8.026 2.192,7.939 L2.223,7.908 L2.223,7.864 C2.223,7.690 2.223,7.527 2.302,7.368 L2.313,7.345 L2.313,7.185 L2.282,7.154 C2.243,7.115 2.195,7.066 2.164,7.024 C2.599,6.881 4.482,6.340 7.937,6.340 C11.392,6.340 13.275,6.881 13.710,7.024 C13.679,7.066 13.631,7.115 13.592,7.154 L13.651,7.336 C13.654,7.385 13.670,7.440 13.688,7.503 C13.713,7.587 13.740,7.682 13.740,7.773 L13.740,7.817 L13.771,7.848 C13.857,7.935 13.919,7.998 13.919,8.135 L13.919,8.303 L13.991,8.327 C14.790,8.597 15.254,9.406 15.173,10.391 L15.173,10.395 L15.173,10.400 C15.173,10.828 14.934,11.300 14.500,11.727 C14.103,12.117 13.581,12.429 13.102,12.561 L13.049,12.575 L13.031,12.627 C12.551,13.938 11.436,14.754 10.585,15.208 C9.565,15.751 8.497,15.999 7.937,15.999 L7.937,15.999 ZM3.897,11.970 C4.460,14.050 7.225,14.944 8.027,14.944 C8.491,14.944 9.384,14.711 10.192,14.263 C10.923,13.859 11.856,13.133 12.157,11.966 L12.161,11.953 L12.161,11.939 C12.161,11.735 12.375,11.593 12.682,11.593 C12.966,11.593 13.532,11.279 13.810,10.889 C13.957,10.683 14.005,10.478 13.951,10.292 C13.948,10.005 13.853,9.813 13.761,9.627 L13.696,9.495 L13.592,9.600 C13.519,9.674 13.367,9.749 13.219,9.749 C12.912,9.749 12.698,9.519 12.698,9.313 L12.698,8.769 C12.698,8.582 12.698,8.299 12.603,8.011 L12.562,7.886 L12.450,7.953 C11.497,8.515 9.811,9.116 7.937,9.116 C6.011,9.116 4.279,8.385 3.418,7.949 L3.266,7.872 L3.266,8.045 C3.266,8.116 3.248,8.214 3.229,8.316 C3.204,8.454 3.176,8.610 3.176,8.769 L3.176,9.313 C3.176,9.519 2.962,9.750 2.655,9.750 C2.507,9.750 2.356,9.674 2.282,9.600 L2.179,9.495 L2.113,9.627 C2.020,9.816 1.923,10.012 1.923,10.309 C1.923,10.673 2.307,11.016 2.536,11.187 C2.845,11.419 3.204,11.593 3.371,11.593 C3.603,11.593 3.823,11.752 3.897,11.970 L3.897,11.970 ZM1.498,5.830 C1.431,5.298 0.981,4.651 0.579,4.075 C0.411,3.833 0.251,3.605 0.149,3.422 C0.014,3.180 0.034,3.115 0.039,3.104 C0.044,3.096 0.072,3.079 0.148,3.079 C3.794,3.079 5.286,1.812 6.376,0.886 C6.959,0.391 7.420,-0.000 8.027,-0.000 C8.657,-0.000 9.197,0.414 9.880,0.939 C11.055,1.842 12.665,3.079 15.905,3.079 C15.960,3.079 15.987,3.086 16.000,3.091 C15.995,3.115 15.967,3.190 15.818,3.365 C15.687,3.518 15.500,3.707 15.302,3.907 C14.715,4.500 13.996,5.226 13.923,5.818 C13.724,5.759 13.303,5.650 12.632,5.539 C11.750,5.394 10.250,5.221 8.116,5.221 C4.526,5.221 2.060,5.708 1.498,5.830 L1.498,5.830 ZM6.399,3.516 C6.399,3.818 6.672,4.142 7.210,4.479 C7.594,4.718 7.970,4.876 7.986,4.883 L8.027,4.899 L8.067,4.883 C8.083,4.876 8.460,4.718 8.843,4.479 C9.381,4.142 9.654,3.818 9.654,3.516 L9.654,3.409 L9.662,3.409 L9.662,2.141 L6.399,2.141 L6.399,3.516 ZM5.788,11.561 C5.533,11.561 5.284,11.456 5.103,11.274 C4.923,11.091 4.819,10.839 4.819,10.581 C4.819,10.323 4.923,10.070 5.103,9.888 C5.284,9.705 5.533,9.601 5.788,9.601 C6.043,9.601 6.293,9.705 6.474,9.888 C6.654,10.070 6.757,10.323 6.757,10.581 C6.757,10.839 6.654,11.091 6.474,11.274 C6.293,11.456 6.043,11.561 5.788,11.561 L5.788,11.561 ZM10.533,11.561 C10.278,11.561 10.028,11.456 9.848,11.274 C9.668,11.091 9.565,10.839 9.565,10.581 C9.565,10.323 9.668,10.070 9.848,9.888 C10.028,9.705 10.278,9.601 10.533,9.601 C10.788,9.601 11.038,9.705 11.218,9.888 C11.399,10.070 11.502,10.323 11.502,10.581 C11.502,10.839 11.399,11.091 11.218,11.274 C11.038,11.456 10.788,11.561 10.533,11.561 L10.533,11.561 Z"/>
</svg>
