<svg 
 xmlns="http://www.w3.org/2000/svg"
 xmlns:xlink="http://www.w3.org/1999/xlink"
 width="22px" height="25px">
<path fill-rule="evenodd"  fill="rgb(34, 252, 254)"
 d="M19.248,4.868 C19.248,2.178 17.143,-0.001 14.545,-0.001 C11.948,-0.004 9.839,2.172 9.836,4.863 L9.836,4.868 C9.836,7.558 14.545,13.641 14.545,13.641 C14.545,13.641 19.248,7.575 19.248,4.868 L19.248,4.868 ZM11.605,4.726 C11.605,2.965 12.984,1.539 14.683,1.539 C16.383,1.539 17.762,2.965 17.762,4.726 L17.762,4.731 C17.762,6.489 16.385,7.912 14.689,7.912 L14.683,7.912 C12.984,7.912 11.605,6.484 11.605,4.726 L11.605,4.726 ZM8.598,6.093 C8.460,5.644 8.383,5.175 8.369,4.703 C8.358,3.847 8.516,2.999 8.833,2.206 L2.265,2.206 C1.010,2.209 -0.001,3.264 0.002,4.561 L0.002,12.187 L5.404,14.813 L8.598,6.093 ZM20.365,2.312 C20.658,3.071 20.807,3.883 20.807,4.701 C20.807,8.264 14.578,16.281 14.578,16.281 C12.909,14.096 11.392,11.791 10.033,9.389 L7.656,15.913 L21.998,22.883 L21.998,4.558 C21.998,3.517 21.332,2.602 20.365,2.312 L20.365,2.312 ZM0.002,15.036 L0.002,22.657 C0.007,23.726 0.706,24.658 1.707,24.929 L4.520,17.207 L0.002,15.036 ZM20.354,2.309 C20.356,2.309 20.362,2.312 20.365,2.312 C20.365,2.312 20.365,2.309 20.362,2.309 L20.354,2.309 ZM4.338,25.001 L19.751,25.001 C19.950,25.004 20.149,24.976 20.343,24.923 L6.778,18.307 L4.338,25.001 Z"/>
</svg>
