<svg 
 xmlns="http://www.w3.org/2000/svg"
 xmlns:xlink="http://www.w3.org/1999/xlink"
 width="426px" height="241px">
<path fill-rule="evenodd"  stroke="rgb(0, 167, 232)" stroke-width="2px" stroke-linecap="butt" stroke-linejoin="miter" opacity="0.8" fill="none"
 d="M2.000,2.000 L422.000,2.000 L422.000,237.000 L2.000,237.000 L2.000,2.000 Z"/>
<path fill-rule="evenodd"  stroke="rgb(0, 183, 255)" stroke-width="4px" stroke-linecap="butt" stroke-linejoin="miter" fill="none"
 d="M24.000,237.000 C8.457,237.000 2.000,237.000 2.000,237.000 C2.000,237.000 2.000,230.750 2.000,215.000 M2.000,24.264 C2.000,9.765 2.000,2.000 2.000,2.000 C2.000,2.000 8.871,2.000 24.138,2.000 M400.000,2.000 C414.848,2.000 422.000,2.000 422.000,2.000 C422.000,2.000 422.000,6.483 422.000,24.000 M422.000,215.000 C422.000,229.628 422.000,237.000 422.000,237.000 C422.000,237.000 419.213,237.000 400.000,237.000 "/>
</svg>
