<svg 
 xmlns="http://www.w3.org/2000/svg"
 xmlns:xlink="http://www.w3.org/1999/xlink"
 width="13px" height="13px">
<path fill-rule="evenodd"  fill="rgb(130, 243, 250)"
 d="M12.998,2.166 L10.832,4.332 L10.832,3.032 C10.832,3.032 8.882,2.744 7.582,5.416 C7.582,5.416 7.799,2.021 10.832,1.299 L10.832,-0.001 L12.998,2.166 ZM2.166,4.332 L6.499,4.332 L6.499,5.416 L2.166,5.416 L2.166,4.332 ZM8.665,9.749 L2.166,9.749 L2.166,8.665 L8.665,8.665 L8.665,9.749 ZM1.083,11.915 L10.832,11.915 L10.832,5.416 L11.915,5.416 L11.915,12.998 L9.749,12.998 L-0.000,12.926 L-0.000,1.083 L7.582,1.083 L7.582,2.166 L1.083,2.166 L1.083,11.915 Z"/>
</svg>
