<svg 
 xmlns="http://www.w3.org/2000/svg"
 xmlns:xlink="http://www.w3.org/1999/xlink"
 width="16px" height="15px">
<path fill-rule="evenodd"  fill="rgb(73, 239, 34)"
 d="M3.392,10.356 L1.664,10.356 L1.664,8.099 L-0.000,7.768 L-0.000,15.001 L1.664,14.404 L1.664,11.882 L4.352,11.882 L5.823,9.825 L3.904,8.763 L3.392,10.356 ZM12.095,10.820 L15.999,8.232 L3.840,0.003 L2.432,0.003 L0.512,3.122 L0.512,4.184 L11.199,10.887 L12.095,10.887 L12.095,10.820 ZM10.623,11.351 L1.408,5.179 L0.448,6.241 L11.135,12.944 L12.095,12.944 L12.607,12.413 L13.119,10.887 C13.119,10.887 11.711,11.948 11.647,11.948 C11.071,11.550 10.623,11.351 10.623,11.351 L10.623,11.351 Z"/>
</svg>
