<svg 
 xmlns="http://www.w3.org/2000/svg"
 xmlns:xlink="http://www.w3.org/1999/xlink"
 width="27px" height="25px">
<path fill-rule="evenodd"  fill="rgb(34, 252, 254)"
 d="M5.723,17.257 L2.807,17.257 L2.807,13.497 L-0.001,12.943 L-0.001,24.999 L2.807,24.004 L2.807,19.801 L7.343,19.801 L9.827,16.372 L6.587,14.603 L5.723,17.257 ZM20.410,18.031 L26.998,13.718 L6.479,0.003 L4.103,0.003 L0.863,5.201 L0.863,6.971 L18.898,18.142 L20.410,18.142 L20.410,18.031 ZM17.926,18.916 L2.375,8.630 L0.755,10.400 L18.790,21.571 L20.410,21.571 L21.274,20.686 L22.138,18.142 C22.138,18.142 19.762,19.912 19.654,19.912 C18.682,19.248 17.926,18.916 17.926,18.916 L17.926,18.916 Z"/>
</svg>
