<svg 
 xmlns="http://www.w3.org/2000/svg"
 xmlns:xlink="http://www.w3.org/1999/xlink"
 width="15px" height="14px">
<path fill-rule="evenodd"  fill="rgb(255, 255, 255)"
 d="M3.180,9.665 L1.560,9.665 L1.560,7.559 L-0.000,7.250 L-0.000,14.001 L1.560,13.443 L1.560,11.090 L4.080,11.090 L5.459,9.170 L3.660,8.179 L3.180,9.665 ZM11.339,10.099 L14.999,7.683 L3.600,0.003 L2.280,0.003 L0.480,2.914 L0.480,3.905 L10.499,10.161 L11.339,10.161 L11.339,10.099 ZM9.959,10.594 L1.320,4.834 L0.420,5.825 L10.439,12.081 L11.339,12.081 L11.819,11.585 L12.299,10.161 C12.299,10.161 10.979,11.152 10.919,11.152 C10.379,10.780 9.959,10.594 9.959,10.594 L9.959,10.594 Z"/>
</svg>
