<svg 
 xmlns="http://www.w3.org/2000/svg"
 xmlns:xlink="http://www.w3.org/1999/xlink"
 width="532.5px" height="915px">
<path fill-rule="evenodd"  opacity="0.8" fill="rgb(0, 65, 87)"
 d="M530.000,318.000 L510.000,335.000 L510.000,380.000 L485.000,405.000 L485.000,549.000 L510.000,571.000 L510.000,617.000 L530.000,634.000 L530.000,871.000 L502.000,899.000 L14.000,899.000 L14.000,12.000 L501.000,12.000 L530.000,36.000 L530.000,318.000 Z"/>
<path fill-rule="evenodd"  stroke="rgb(0, 167, 232)" stroke-width="1px" stroke-linecap="butt" stroke-linejoin="miter" opacity="0.949" fill="none"
 d="M530.000,318.000 L510.000,335.000 L510.000,380.000 L485.000,405.000 L485.000,549.000 L510.000,571.000 L510.000,617.000 L530.000,634.000 L530.000,871.000 L502.000,899.000 L14.000,899.000 L14.000,12.000 L501.000,12.000 L530.000,36.000 L530.000,318.000 Z"/>
<path fill-rule="evenodd"  stroke="rgb(0, 167, 232)" stroke-width="2px" stroke-linecap="butt" stroke-linejoin="miter" opacity="0.8" fill="none"
 d="M502.000,909.000 L4.000,909.000 L4.000,2.000 L501.000,2.000 "/>
<path fill-rule="evenodd"  stroke="rgb(0, 167, 232)" stroke-width="4px" stroke-linecap="butt" stroke-linejoin="miter" opacity="0.949" fill="none"
 d="M4.000,22.000 L4.000,2.000 L24.000,2.000 "/>
<path fill-rule="evenodd"  stroke="rgb(0, 167, 232)" stroke-width="4px" stroke-linecap="butt" stroke-linejoin="miter" opacity="0.949" fill="none"
 d="M6.000,887.000 L6.000,907.000 L26.000,907.000 "/>
<path fill-rule="evenodd"  stroke="rgb(0, 167, 232)" stroke-width="2px" stroke-linecap="butt" stroke-linejoin="miter" fill="none"
 d="M472.000,1.000 L502.000,1.000 L502.000,4.000 L472.000,4.000 L472.000,1.000 Z"/>
<path fill-rule="evenodd"  stroke="rgb(0, 167, 232)" stroke-width="2px" stroke-linecap="butt" stroke-linejoin="miter" fill="none"
 d="M472.000,907.000 L502.000,907.000 L502.000,910.000 L472.000,910.000 L472.000,907.000 Z"/>
</svg>
