<svg 
 xmlns="http://www.w3.org/2000/svg"
 xmlns:xlink="http://www.w3.org/1999/xlink"
 width="15px" height="13px">
<path fill-rule="evenodd"  fill="rgb(130, 243, 250)"
 d="M12.961,9.991 C10.748,11.889 7.569,11.869 7.569,11.869 C5.571,11.869 4.325,11.264 4.325,11.264 L1.426,13.001 L1.918,9.891 C-0.273,8.093 0.006,5.690 0.006,5.690 C0.157,3.328 1.810,2.035 1.810,2.035 C4.109,-0.166 7.461,-0.005 7.461,-0.005 C9.932,-0.005 11.693,0.964 11.693,0.964 C15.067,2.762 15.003,5.811 15.003,5.811 C15.003,8.355 12.961,9.991 12.961,9.991 ZM12.046,2.364 C12.046,2.364 10.520,0.903 7.398,0.862 C7.398,0.862 4.440,0.668 2.191,2.970 C2.191,2.970 0.973,4.357 0.959,5.945 C0.959,5.945 0.730,7.575 2.635,9.418 C2.635,9.418 2.806,9.499 2.720,10.052 L2.463,11.519 L4.311,10.402 C4.311,10.402 4.525,10.281 4.812,10.443 C4.812,10.443 6.203,11.063 7.462,11.022 C7.462,11.022 10.483,10.901 12.044,9.513 C12.044,9.513 13.978,8.113 13.993,5.811 C13.993,5.811 13.934,3.846 12.046,2.364 ZM11.173,6.441 C10.701,6.441 10.316,6.084 10.316,5.644 C10.316,5.204 10.699,4.848 11.173,4.848 C11.646,4.848 12.031,5.204 12.029,5.644 C12.029,6.084 11.646,6.441 11.173,6.441 ZM7.666,6.441 C7.194,6.441 6.813,6.084 6.813,5.644 C6.813,5.204 7.194,4.848 7.666,4.848 C8.138,4.848 8.521,5.204 8.521,5.644 C8.521,6.084 8.138,6.441 7.666,6.441 ZM4.182,6.441 C3.716,6.441 3.336,6.084 3.336,5.644 C3.336,5.204 3.716,4.848 4.182,4.848 C4.648,4.848 5.028,5.204 5.028,5.644 C5.028,6.084 4.648,6.441 4.182,6.441 Z"/>
</svg>
