<svg 
 xmlns="http://www.w3.org/2000/svg"
 xmlns:xlink="http://www.w3.org/1999/xlink"
 width="19px" height="26px">
<path fill-rule="evenodd"  fill="rgb(34, 252, 254)"
 d="M17.098,17.962 L1.899,17.962 C0.850,17.962 -0.001,17.115 -0.001,16.071 L-0.001,12.291 C-0.001,11.247 0.850,10.400 1.899,10.400 L8.170,10.400 C8.116,10.251 8.074,10.096 8.074,9.928 L8.074,1.421 C8.074,0.638 8.712,0.003 9.499,0.003 C10.286,0.003 10.924,0.638 10.924,1.421 L10.924,9.928 C10.924,10.096 10.881,10.251 10.828,10.400 L17.098,10.400 C18.147,10.400 18.998,11.247 18.998,12.291 L18.998,16.071 C18.998,17.115 18.147,17.962 17.098,17.962 ZM17.573,24.107 C17.573,25.150 16.722,25.996 15.673,25.996 L3.324,25.996 C2.275,25.996 1.424,25.150 1.424,24.107 L1.424,18.434 L17.573,18.434 L17.573,24.107 ZM4.749,20.163 C4.749,19.907 4.537,19.693 4.274,19.693 C4.010,19.693 3.799,19.904 3.799,20.163 L3.799,24.851 C3.799,25.108 4.011,25.322 4.274,25.322 C4.538,25.322 4.749,25.111 4.749,24.851 L4.749,20.163 ZM8.074,20.163 C8.074,19.907 7.861,19.693 7.599,19.693 C7.334,19.693 7.124,19.904 7.124,20.163 L7.124,24.851 C7.124,25.108 7.336,25.322 7.599,25.322 C7.863,25.322 8.074,25.111 8.074,24.851 L8.074,20.163 ZM11.874,20.163 C11.874,19.907 11.661,19.693 11.399,19.693 C11.134,19.693 10.924,19.904 10.924,20.163 L10.924,24.851 C10.924,25.108 11.136,25.322 11.399,25.322 C11.663,25.322 11.874,25.111 11.874,24.851 L11.874,20.163 ZM15.198,20.163 C15.198,19.907 14.986,19.693 14.723,19.693 C14.459,19.693 14.248,19.904 14.248,20.163 L14.248,24.851 C14.248,25.108 14.461,25.322 14.723,25.322 C14.988,25.322 15.198,25.111 15.198,24.851 L15.198,20.163 Z"/>
</svg>
