<svg 
 xmlns="http://www.w3.org/2000/svg"
 xmlns:xlink="http://www.w3.org/1999/xlink"
 width="20px" height="19px">
<path fill-rule="evenodd"  fill="rgb(0, 209, 254)"
 d="M18.011,19.000 C15.448,18.853 12.691,18.853 10.000,18.853 L1.989,18.853 C1.284,18.853 0.708,18.632 0.259,18.117 C0.066,17.896 0.002,17.602 0.002,17.306 L0.002,3.313 C0.002,2.502 0.771,1.839 1.668,1.766 L3.335,1.766 C3.591,1.766 3.719,1.693 3.719,1.472 L3.719,0.882 C3.847,0.293 4.232,-0.002 4.873,-0.002 C5.385,-0.002 5.770,0.367 5.835,0.956 L5.835,1.029 C5.898,1.839 5.898,1.839 6.732,1.839 L13.717,1.839 C14.037,1.839 14.166,1.766 14.166,1.471 L14.166,0.956 C14.229,0.366 14.679,0.072 15.255,0.072 C15.831,0.072 16.216,0.440 16.280,0.956 C16.280,1.250 16.152,1.618 16.344,1.766 C16.600,1.914 16.985,1.839 17.305,1.839 L18.267,1.839 C19.229,1.913 19.998,2.575 19.998,3.459 L19.998,17.305 C19.998,18.263 19.166,18.925 18.011,19.000 ZM18.522,6.701 C18.522,6.333 18.458,6.259 18.073,6.259 L10.064,6.259 L2.053,6.259 C1.733,6.259 1.604,6.333 1.604,6.628 L1.604,16.791 C1.604,17.233 1.797,17.306 2.180,17.306 L17.945,17.306 C18.522,17.306 18.522,17.306 18.522,16.791 L18.522,6.701 ZM16.087,15.225 L13.908,15.225 C13.524,15.225 13.268,15.007 13.268,14.645 L13.268,13.411 C13.268,13.047 13.524,12.831 13.908,12.831 C14.294,12.684 14.679,12.757 15.062,12.757 L16.152,12.757 C16.537,12.757 16.793,12.975 16.728,13.338 L16.728,14.645 C16.728,15.008 16.472,15.225 16.087,15.225 ZM16.088,10.942 C15.767,11.014 15.383,11.014 14.998,11.014 L13.909,11.014 C13.525,11.014 13.269,10.796 13.269,10.434 L13.269,9.126 C13.269,8.763 13.461,8.618 13.845,8.618 L16.088,8.618 C16.473,8.618 16.665,8.836 16.665,9.126 L16.665,10.434 C16.665,10.724 16.472,10.942 16.088,10.942 ZM11.153,11.013 C11.153,11.014 10.063,11.014 10.064,11.014 L8.974,11.014 C8.525,11.014 8.333,10.869 8.333,10.434 L8.333,9.126 C8.333,8.763 8.526,8.618 8.910,8.618 L11.153,8.618 C11.538,8.618 11.730,8.836 11.794,9.199 L11.794,10.433 C11.794,10.796 11.601,11.013 11.153,11.013 ZM6.155,15.154 L5.065,15.154 L5.065,15.153 L4.040,15.153 C3.591,15.153 3.399,14.935 3.335,14.573 L3.335,13.339 C3.335,12.975 3.591,12.758 3.975,12.758 L6.155,12.758 C6.604,12.758 6.795,12.976 6.795,13.412 L6.795,14.574 C6.795,14.937 6.602,15.154 6.155,15.154 ZM6.219,10.942 L3.975,10.942 C3.591,10.942 3.399,10.796 3.399,10.434 L3.399,9.054 C3.399,8.691 3.656,8.546 4.040,8.546 C4.360,8.618 4.681,8.618 5.065,8.618 L6.155,8.618 C6.539,8.618 6.795,8.836 6.795,9.126 L6.795,10.434 C6.795,10.797 6.602,10.942 6.219,10.942 ZM8.974,12.757 L11.089,12.757 C11.473,12.757 11.730,12.975 11.730,13.338 L11.730,14.572 C11.730,14.935 11.473,15.152 11.089,15.152 L10.064,15.152 L10.064,15.153 L9.039,15.153 C8.591,15.153 8.333,14.935 8.333,14.573 L8.333,13.411 C8.333,12.975 8.526,12.831 8.974,12.757 Z"/>
</svg>
