<svg 
 xmlns="http://www.w3.org/2000/svg"
 xmlns:xlink="http://www.w3.org/1999/xlink"
 width="18px" height="11px">
<path fill-rule="evenodd"  fill="rgb(255, 255, 255)"
 d="M17.998,5.497 C17.998,7.253 14.287,10.999 8.999,10.999 C3.845,10.999 -0.001,7.314 -0.001,5.497 C-0.001,3.679 3.862,-0.000 8.999,-0.000 C14.329,-0.000 17.999,3.679 17.998,5.497 L17.998,5.497 ZM9.007,1.004 C6.611,1.004 4.670,3.016 4.670,5.499 C4.670,7.982 6.611,9.995 9.007,9.995 C11.402,9.995 13.344,7.982 13.344,5.499 C13.344,3.016 11.402,1.004 9.007,1.004 L9.007,1.004 ZM8.999,2.629 C7.473,2.629 6.237,3.911 6.237,5.492 C6.237,7.073 7.473,8.355 8.999,8.355 C10.524,8.355 11.760,7.073 11.760,5.492 C11.760,3.911 10.524,2.629 8.999,2.629 L8.999,2.629 Z"/>
</svg>
