<svg 
 xmlns="http://www.w3.org/2000/svg"
 xmlns:xlink="http://www.w3.org/1999/xlink"
 width="11px" height="12px">
<path fill-rule="evenodd"  fill="rgb(130, 243, 250)"
 d="M10.929,1.083 L10.603,1.499 L9.461,0.583 L9.787,0.250 C10.032,-0.084 10.440,0.166 10.440,0.166 C10.766,0.333 10.929,0.583 10.929,0.583 C11.092,0.833 10.929,1.083 10.929,1.083 ZM8.320,4.416 C8.320,4.416 8.156,4.749 7.830,4.916 L6.933,5.333 C6.933,5.333 6.689,5.499 6.607,5.166 L6.770,4.166 C6.770,4.166 6.770,3.999 7.015,3.666 L9.135,0.916 L10.277,1.833 L8.320,4.416 ZM8.900,7.351 L2.126,7.351 C2.066,7.351 2.018,7.289 2.018,7.211 L2.018,6.157 C2.018,6.079 2.066,6.016 2.126,6.016 L8.900,6.016 C8.960,6.016 9.009,6.079 9.009,6.157 L9.009,7.211 C9.009,7.289 8.960,7.351 8.900,7.351 ZM9.009,9.858 C9.009,9.935 8.960,9.998 8.900,9.998 L2.126,9.998 C2.066,9.998 2.018,9.935 2.018,9.858 L2.018,8.804 C2.018,8.726 2.066,8.663 2.126,8.663 L8.900,8.663 C8.960,8.663 9.009,8.726 9.009,8.804 L9.009,9.858 ZM1.084,1.034 L1.084,10.881 L9.950,10.881 L9.950,3.749 L10.929,2.916 L10.929,10.915 C10.848,11.915 9.869,11.999 9.869,11.999 L1.225,11.999 C0.002,11.999 0.002,10.832 0.002,10.832 L0.002,1.083 C0.165,-0.000 1.062,-0.000 1.062,-0.000 L8.564,-0.000 L7.749,1.034 L1.084,1.034 Z"/>
</svg>
