<svg 
 xmlns="http://www.w3.org/2000/svg"
 xmlns:xlink="http://www.w3.org/1999/xlink"
 width="24px" height="24px">
<path fill-rule="evenodd"  fill="rgb(34, 252, 254)"
 d="M4.361,15.273 C4.580,15.273 4.907,15.273 5.126,15.382 C4.658,16.779 3.874,18.049 2.835,19.093 C2.399,19.551 2.399,20.271 2.835,20.729 L3.598,21.383 C4.054,21.712 4.669,21.712 5.126,21.383 C6.108,20.183 7.417,19.420 8.618,18.874 C8.726,19.201 8.726,19.420 8.726,19.639 C8.719,22.046 6.769,23.996 4.361,24.004 C1.953,23.996 0.004,22.046 -0.004,19.639 C0.002,17.230 1.953,15.279 4.361,15.272 L4.361,15.273 ZM19.749,15.163 C22.040,15.273 24.004,17.237 24.004,19.639 C23.996,22.046 22.048,23.995 19.641,24.004 C17.232,23.997 15.281,22.047 15.274,19.639 C15.274,19.420 15.274,19.093 15.384,18.874 C16.693,19.311 18.002,20.074 19.095,21.165 C19.294,21.374 19.570,21.492 19.858,21.492 C20.147,21.492 20.423,21.374 20.622,21.165 L21.277,20.510 C21.486,20.311 21.604,20.035 21.604,19.747 C21.604,19.459 21.486,19.183 21.277,18.984 C20.185,17.892 19.422,16.693 18.986,15.273 C19.203,15.273 19.530,15.163 19.749,15.163 L19.749,15.163 ZM19.749,3.596 L20.404,4.250 C16.149,8.616 16.149,15.490 20.404,19.747 L19.858,20.402 C15.492,16.147 8.618,16.147 4.361,20.402 L3.598,19.855 C7.853,15.490 7.853,8.616 3.598,4.359 L4.361,3.704 C6.402,5.758 9.183,6.904 12.078,6.883 C14.973,6.863 17.738,5.678 19.749,3.596 L19.749,3.596 ZM12.001,9.706 C11.389,9.692 10.798,9.928 10.365,10.361 C9.932,10.794 9.695,11.385 9.710,11.997 C9.710,13.308 10.692,14.290 12.001,14.290 C12.613,14.304 13.204,14.067 13.637,13.635 C14.069,13.202 14.306,12.611 14.292,11.999 C14.306,11.387 14.069,10.796 13.637,10.363 C13.204,9.930 12.613,9.693 12.001,9.708 L12.001,9.706 ZM19.641,-0.006 C22.048,0.001 23.998,1.951 24.006,4.359 C23.998,6.767 22.048,8.716 19.641,8.724 C19.422,8.724 19.203,8.724 18.876,8.616 C19.313,7.306 20.076,6.106 21.167,5.015 C21.377,4.816 21.495,4.540 21.495,4.250 C21.495,3.961 21.377,3.685 21.167,3.485 L20.512,2.831 C20.313,2.622 20.037,2.504 19.749,2.504 C19.461,2.504 19.185,2.622 18.986,2.831 C17.957,3.863 16.732,4.679 15.384,5.232 C15.274,4.905 15.274,4.686 15.274,4.359 C15.281,1.951 17.232,0.000 19.641,-0.006 L19.641,-0.006 ZM4.361,-0.006 C6.769,0.001 8.719,1.951 8.726,4.359 C8.726,4.686 8.726,4.905 8.618,5.124 C7.301,4.675 6.105,3.928 5.126,2.939 C4.927,2.730 4.651,2.612 4.362,2.612 C4.073,2.612 3.797,2.730 3.598,2.939 L2.833,3.484 C2.397,3.921 2.287,4.684 2.833,5.120 C3.925,6.212 4.688,7.413 5.124,8.722 L4.361,8.722 C1.954,8.715 0.004,6.766 -0.004,4.359 C0.004,1.951 1.953,0.001 4.361,-0.006 L4.361,-0.006 Z"/>
</svg>
