<svg 
 xmlns="http://www.w3.org/2000/svg"
 xmlns:xlink="http://www.w3.org/1999/xlink"
 width="14px" height="14px">
<path fill-rule="evenodd"  fill="rgb(239, 78, 34)"
 d="M2.541,8.908 C2.669,8.908 2.860,8.908 2.988,8.971 C2.715,9.785 2.257,10.526 1.651,11.134 C1.397,11.401 1.397,11.821 1.651,12.088 L2.096,12.469 C2.362,12.661 2.721,12.661 2.988,12.469 C3.560,11.770 4.324,11.325 5.024,11.006 C5.088,11.197 5.088,11.325 5.088,11.452 C5.083,12.856 3.946,13.992 2.541,13.997 C1.137,13.992 -0.000,12.856 -0.005,11.452 C-0.001,10.048 1.137,8.911 2.541,8.907 L2.541,8.908 ZM11.518,8.844 C12.854,8.908 14.000,10.053 14.000,11.452 C13.995,12.855 12.859,13.992 11.454,13.997 C10.050,13.993 8.911,12.856 8.907,11.452 C8.907,11.325 8.907,11.134 8.971,11.006 C9.735,11.261 10.499,11.706 11.136,12.342 C11.252,12.464 11.413,12.533 11.582,12.533 C11.750,12.533 11.911,12.464 12.027,12.342 L12.409,11.960 C12.531,11.844 12.600,11.684 12.600,11.516 C12.600,11.347 12.531,11.187 12.409,11.071 C11.772,10.434 11.327,9.735 11.073,8.908 C11.199,8.908 11.390,8.844 11.518,8.844 L11.518,8.844 ZM11.518,2.101 L11.900,2.483 C9.418,5.027 9.418,9.034 11.900,11.516 L11.581,11.897 C9.035,9.417 5.024,9.417 2.541,11.897 L2.096,11.579 C4.578,9.034 4.578,5.027 2.096,2.546 L2.541,2.164 C3.732,3.361 5.354,4.029 7.043,4.017 C8.732,4.005 10.345,3.315 11.518,2.101 L11.518,2.101 ZM6.998,5.663 C6.641,5.654 6.296,5.792 6.044,6.044 C5.791,6.297 5.653,6.641 5.661,6.998 C5.661,7.762 6.234,8.335 6.998,8.335 C7.355,8.343 7.700,8.205 7.952,7.953 C8.205,7.700 8.343,7.356 8.334,6.999 C8.343,6.642 8.205,6.298 7.952,6.046 C7.700,5.793 7.355,5.655 6.998,5.664 L6.998,5.663 ZM11.454,0.001 C12.859,0.006 13.996,1.142 14.001,2.546 C13.996,3.949 12.859,5.086 11.454,5.090 C11.327,5.090 11.199,5.090 11.008,5.027 C11.263,4.264 11.709,3.564 12.345,2.928 C12.467,2.812 12.536,2.651 12.536,2.483 C12.536,2.314 12.467,2.153 12.345,2.037 L11.963,1.655 C11.847,1.533 11.686,1.465 11.518,1.465 C11.349,1.465 11.189,1.533 11.073,1.655 C10.472,2.257 9.758,2.732 8.971,3.055 C8.907,2.864 8.907,2.737 8.907,2.546 C8.911,1.142 10.050,0.005 11.454,0.001 L11.454,0.001 ZM2.541,0.001 C3.946,0.006 5.083,1.142 5.088,2.546 C5.088,2.737 5.088,2.864 5.024,2.992 C4.256,2.730 3.559,2.294 2.988,1.718 C2.871,1.596 2.710,1.527 2.542,1.527 C2.373,1.527 2.212,1.596 2.096,1.718 L1.650,2.036 C1.396,2.291 1.332,2.736 1.650,2.990 C2.287,3.626 2.732,4.326 2.986,5.089 L2.541,5.089 C1.137,5.085 0.000,3.949 -0.005,2.546 C-0.000,1.142 1.137,0.006 2.541,0.001 L2.541,0.001 Z"/>
</svg>
