<svg 
 xmlns="http://www.w3.org/2000/svg"
 xmlns:xlink="http://www.w3.org/1999/xlink"
 width="15px" height="15px">
<path fill-rule="evenodd"  fill="rgb(255, 255, 255)"
 d="M14.802,14.567 C14.542,14.808 14.132,14.798 13.890,14.543 L13.890,14.544 L11.742,11.913 L10.953,12.649 L8.905,10.525 L11.070,8.500 L13.119,10.625 L12.367,11.327 L14.825,13.670 C15.071,13.924 15.057,14.326 14.802,14.567 ZM13.487,9.886 L11.845,8.156 C11.771,8.079 11.731,7.977 11.734,7.871 C11.737,7.766 11.783,7.666 11.861,7.594 C11.939,7.520 12.042,7.481 12.150,7.483 C12.257,7.485 12.359,7.530 12.432,7.607 L14.074,9.337 C14.228,9.496 14.222,9.748 14.060,9.899 C13.898,10.050 13.641,10.045 13.487,9.886 ZM13.607,6.264 C13.340,6.264 13.123,6.057 13.123,5.805 L13.123,1.443 C13.123,1.140 12.872,0.894 12.563,0.894 L1.407,0.894 C1.098,0.894 0.847,1.140 0.847,1.443 L0.847,13.531 C0.847,13.834 1.098,14.079 1.407,14.079 L6.806,14.079 C7.072,14.079 7.290,14.286 7.290,14.538 C7.290,14.791 7.072,14.997 6.806,14.997 L1.119,14.997 C0.822,14.997 0.537,14.882 0.327,14.676 C0.117,14.470 -0.000,14.191 -0.000,13.900 L-0.000,1.097 C-0.000,0.492 0.501,0.000 1.119,0.000 L12.971,0.000 C13.268,0.000 13.553,0.116 13.763,0.322 C13.973,0.527 14.091,0.807 14.091,1.097 L14.091,5.805 C14.091,6.057 13.874,6.264 13.607,6.264 ZM2.722,10.775 L5.247,10.775 C5.514,10.775 5.731,10.982 5.731,11.234 C5.731,11.486 5.514,11.693 5.247,11.693 L2.722,11.693 C2.456,11.693 2.238,11.480 2.238,11.234 C2.238,10.982 2.456,10.775 2.722,10.775 ZM2.238,8.491 C2.238,8.239 2.405,8.032 2.610,8.032 L7.463,8.032 C7.669,8.032 7.835,8.239 7.835,8.491 C7.835,8.743 7.669,8.950 7.463,8.950 L2.610,8.950 C2.405,8.950 2.238,8.734 2.238,8.491 ZM2.238,3.005 C2.238,2.753 2.456,2.546 2.722,2.546 L9.032,2.546 C9.299,2.546 9.516,2.753 9.516,3.005 C9.516,3.257 9.299,3.464 9.032,3.464 L2.722,3.464 C2.456,3.464 2.238,3.257 2.238,3.005 ZM8.508,6.207 L2.685,6.207 C2.439,6.207 2.238,6.000 2.238,5.748 C2.238,5.496 2.439,5.289 2.685,5.289 L8.508,5.289 C8.754,5.289 8.955,5.496 8.955,5.748 C8.955,6.000 8.754,6.207 8.508,6.207 ZM8.251,11.144 C8.358,11.147 8.460,11.191 8.533,11.268 L10.179,12.997 C10.334,13.156 10.327,13.408 10.165,13.560 C10.003,13.711 9.746,13.705 9.591,13.546 L7.946,11.816 C7.872,11.739 7.832,11.637 7.835,11.532 C7.839,11.426 7.885,11.327 7.963,11.254 C8.040,11.181 8.144,11.142 8.251,11.144 Z"/>
</svg>
