<svg 
 xmlns="http://www.w3.org/2000/svg"
 xmlns:xlink="http://www.w3.org/1999/xlink"
 width="27px" height="27px">
<path fill-rule="evenodd"  fill="rgb(34, 252, 254)"
 d="M25.869,24.369 L24.591,24.369 L24.591,8.453 C24.590,8.024 24.361,7.628 23.991,7.414 L17.500,3.614 C17.130,3.399 16.673,3.399 16.302,3.613 C15.931,3.828 15.702,4.224 15.702,4.653 L15.702,24.369 L14.335,24.369 L14.335,1.527 C14.334,1.124 14.132,0.748 13.797,0.526 C13.461,0.303 13.037,0.264 12.668,0.422 L2.518,4.793 C2.078,4.983 1.792,5.418 1.792,5.898 L1.792,24.369 L0.518,24.369 C0.284,24.369 0.094,24.559 0.094,24.794 L0.094,26.181 C0.094,26.416 0.284,26.606 0.518,26.606 L25.869,26.606 C26.104,26.606 26.293,26.416 26.293,26.181 L26.293,24.794 C26.293,24.559 26.104,24.369 25.869,24.369 L25.869,24.369 ZM19.008,7.919 C19.008,7.807 19.052,7.698 19.132,7.618 C19.211,7.538 19.318,7.493 19.431,7.492 L20.780,7.492 C21.014,7.492 21.204,7.683 21.204,7.918 L21.204,9.271 C21.205,9.384 21.160,9.493 21.081,9.573 C21.001,9.653 20.893,9.698 20.780,9.698 L19.431,9.698 C19.197,9.698 19.007,9.508 19.007,9.273 L19.007,7.919 L19.008,7.919 ZM19.008,11.327 C19.008,11.092 19.197,10.902 19.431,10.901 L20.780,10.901 C21.014,10.901 21.204,11.092 21.204,11.327 L21.204,12.680 C21.204,12.915 21.014,13.106 20.780,13.106 L19.431,13.106 C19.197,13.106 19.007,12.915 19.007,12.680 L19.007,11.327 L19.008,11.327 ZM19.008,14.734 C19.008,14.500 19.197,14.310 19.431,14.309 L20.780,14.309 C21.014,14.309 21.204,14.499 21.204,14.734 L21.204,16.088 C21.204,16.323 21.014,16.513 20.780,16.513 L19.431,16.513 C19.197,16.513 19.007,16.323 19.007,16.088 L19.007,14.734 L19.008,14.734 ZM19.008,18.142 C19.008,17.907 19.198,17.716 19.433,17.716 L20.782,17.716 C21.016,17.716 21.206,17.907 21.206,18.142 L21.206,19.495 C21.206,19.730 21.016,19.921 20.782,19.921 L19.433,19.921 C19.198,19.921 19.008,19.730 19.008,19.495 L19.008,18.142 ZM19.008,21.549 C19.008,21.314 19.198,21.124 19.433,21.124 L20.782,21.124 C21.016,21.124 21.206,21.314 21.206,21.549 L21.206,22.903 C21.207,23.016 21.162,23.126 21.082,23.206 C21.002,23.287 20.893,23.332 20.780,23.331 L19.431,23.331 C19.197,23.331 19.007,23.141 19.007,22.906 L19.007,21.552 L19.008,21.549 ZM8.994,4.510 C8.993,4.397 9.038,4.288 9.117,4.208 C9.197,4.128 9.305,4.083 9.418,4.083 L10.767,4.083 C11.000,4.086 11.187,4.276 11.187,4.510 L11.187,5.864 C11.187,5.977 11.142,6.085 11.062,6.165 C10.983,6.244 10.875,6.289 10.762,6.289 L9.413,6.289 C9.179,6.289 8.989,6.099 8.989,5.864 L8.989,4.510 L8.994,4.510 ZM8.994,7.918 C8.994,7.683 9.183,7.492 9.418,7.492 L10.767,7.492 C11.000,7.495 11.187,7.685 11.187,7.919 L11.187,9.273 C11.187,9.508 10.997,9.698 10.762,9.698 L9.413,9.698 C9.179,9.698 8.989,9.508 8.989,9.273 L8.989,7.919 L8.994,7.918 ZM8.994,11.325 C8.994,11.090 9.183,10.900 9.418,10.900 L10.767,10.900 C11.000,10.902 11.187,11.093 11.187,11.327 L11.187,12.680 C11.187,12.914 10.998,13.104 10.765,13.106 L9.416,13.106 C9.182,13.106 8.992,12.915 8.992,12.680 L8.992,11.327 L8.994,11.325 ZM8.994,14.733 C8.994,14.498 9.184,14.309 9.418,14.309 L10.767,14.309 C10.999,14.311 11.187,14.501 11.187,14.734 L11.187,16.088 C11.187,16.323 10.997,16.513 10.762,16.513 L9.413,16.513 C9.179,16.513 8.989,16.323 8.989,16.088 L8.989,14.734 L8.994,14.733 ZM8.994,18.140 C8.994,17.905 9.183,17.715 9.418,17.715 L10.767,17.715 C11.001,17.717 11.188,17.909 11.187,18.143 L11.187,19.497 C11.187,19.732 10.997,19.922 10.762,19.922 L9.413,19.922 C9.179,19.922 8.989,19.732 8.989,19.497 L8.989,18.143 L8.994,18.140 ZM8.994,21.548 C8.994,21.313 9.183,21.122 9.418,21.122 L10.767,21.122 C11.001,21.125 11.188,21.316 11.187,21.551 L11.187,22.904 C11.187,23.139 10.999,23.330 10.765,23.331 L9.416,23.331 C9.182,23.331 8.992,23.141 8.992,22.906 L8.992,21.552 L8.994,21.548 ZM4.907,7.919 C4.907,7.684 5.097,7.494 5.331,7.494 L6.681,7.494 C6.915,7.494 7.105,7.684 7.105,7.919 L7.105,9.273 C7.105,9.508 6.915,9.698 6.681,9.698 L5.331,9.698 C5.097,9.698 4.907,9.508 4.907,9.273 L4.907,7.919 ZM4.907,11.327 C4.907,11.092 5.097,10.901 5.331,10.901 L6.681,10.901 C6.915,10.901 7.105,11.092 7.105,11.327 L7.105,12.680 C7.105,12.793 7.060,12.902 6.980,12.982 C6.900,13.062 6.792,13.106 6.679,13.106 L5.330,13.106 C5.096,13.106 4.906,12.915 4.906,12.680 L4.906,11.327 L4.907,11.327 ZM4.907,14.734 C4.907,14.499 5.097,14.309 5.331,14.309 L6.681,14.309 C6.915,14.309 7.105,14.499 7.105,14.734 L7.105,16.088 C7.105,16.323 6.915,16.513 6.681,16.513 L5.331,16.513 C5.097,16.513 4.907,16.323 4.907,16.088 L4.907,14.734 ZM4.907,18.142 C4.907,17.907 5.097,17.716 5.331,17.716 L6.681,17.716 C6.915,17.716 7.105,17.907 7.105,18.142 L7.105,19.495 C7.105,19.730 6.915,19.921 6.681,19.921 L5.331,19.921 C5.097,19.921 4.907,19.730 4.907,19.495 L4.907,18.142 ZM4.907,21.549 C4.907,21.314 5.097,21.124 5.331,21.124 L6.681,21.124 C6.915,21.124 7.105,21.314 7.105,21.549 L7.105,22.903 C7.106,23.016 7.061,23.126 6.981,23.206 C6.901,23.287 6.792,23.332 6.679,23.331 L5.330,23.331 C5.096,23.331 4.906,23.141 4.906,22.906 L4.906,21.552 L4.907,21.549 Z"/>
</svg>
