<svg 
 xmlns="http://www.w3.org/2000/svg"
 xmlns:xlink="http://www.w3.org/1999/xlink"
 width="15px" height="15px">
<path fill-rule="evenodd"  fill="rgb(34, 252, 254)"
 d="M14.764,13.730 L14.032,13.730 L14.032,4.646 C14.031,4.401 13.900,4.175 13.688,4.053 L9.970,1.884 C9.758,1.762 9.497,1.762 9.284,1.884 C9.072,2.006 8.941,2.232 8.940,2.477 L8.940,13.730 L8.157,13.730 L8.157,0.693 C8.157,0.463 8.041,0.248 7.849,0.122 C7.657,-0.005 7.414,-0.027 7.202,0.062 L1.388,2.557 C1.136,2.666 0.973,2.914 0.973,3.188 L0.973,13.730 L0.243,13.730 C0.109,13.730 0.000,13.839 0.000,13.973 L0.000,14.764 C0.000,14.898 0.109,15.007 0.243,15.007 L14.764,15.007 C14.898,15.007 15.007,14.898 15.007,14.764 L15.007,13.973 C15.007,13.839 14.898,13.730 14.764,13.730 L14.764,13.730 ZM10.834,4.342 C10.834,4.277 10.859,4.215 10.905,4.170 C10.950,4.124 11.012,4.098 11.076,4.098 L11.849,4.098 C11.983,4.098 12.092,4.207 12.092,4.341 L12.092,5.113 C12.092,5.178 12.067,5.240 12.021,5.285 C11.976,5.331 11.914,5.357 11.849,5.357 L11.076,5.357 C10.942,5.357 10.833,5.248 10.833,5.114 L10.833,4.342 L10.834,4.342 ZM10.834,6.286 C10.834,6.153 10.942,6.044 11.076,6.044 L11.849,6.044 C11.983,6.044 12.092,6.152 12.092,6.286 L12.092,7.059 C12.092,7.193 11.983,7.302 11.849,7.302 L11.076,7.302 C10.942,7.302 10.833,7.193 10.833,7.059 L10.833,6.286 L10.834,6.286 ZM10.834,8.231 C10.834,8.097 10.942,7.989 11.076,7.988 L11.849,7.988 C11.983,7.988 12.092,8.097 12.092,8.231 L12.092,9.004 C12.092,9.138 11.983,9.246 11.849,9.246 L11.076,9.246 C10.942,9.246 10.833,9.138 10.833,9.004 L10.833,8.231 L10.834,8.231 ZM10.834,10.176 C10.834,10.042 10.943,9.933 11.077,9.933 L11.850,9.933 C11.984,9.933 12.093,10.042 12.093,10.176 L12.093,10.948 C12.093,11.083 11.984,11.191 11.850,11.191 L11.077,11.191 C10.943,11.191 10.834,11.083 10.834,10.948 L10.834,10.176 ZM10.834,12.121 C10.834,11.987 10.943,11.878 11.077,11.878 L11.850,11.878 C11.984,11.878 12.093,11.987 12.093,12.121 L12.093,12.893 C12.093,12.958 12.068,13.021 12.022,13.066 C11.976,13.112 11.914,13.138 11.849,13.138 L11.076,13.138 C10.942,13.138 10.833,13.029 10.833,12.895 L10.833,12.122 L10.834,12.121 ZM5.098,2.396 C5.097,2.331 5.123,2.269 5.169,2.224 C5.214,2.178 5.276,2.152 5.341,2.152 L6.113,2.152 C6.247,2.154 6.354,2.262 6.354,2.396 L6.354,3.168 C6.354,3.233 6.328,3.294 6.283,3.340 C6.237,3.386 6.175,3.411 6.111,3.411 L5.338,3.411 C5.204,3.411 5.095,3.302 5.095,3.168 L5.095,2.396 L5.098,2.396 ZM5.098,4.341 C5.098,4.207 5.206,4.098 5.341,4.098 L6.113,4.098 C6.247,4.099 6.354,4.208 6.354,4.342 L6.354,5.114 C6.354,5.248 6.245,5.357 6.111,5.357 L5.338,5.357 C5.204,5.357 5.095,5.248 5.095,5.114 L5.095,4.342 L5.098,4.341 ZM5.098,6.286 C5.098,6.151 5.206,6.043 5.341,6.043 L6.113,6.043 C6.247,6.044 6.354,6.153 6.354,6.286 L6.354,7.059 C6.354,7.192 6.246,7.301 6.113,7.302 L5.340,7.302 C5.206,7.302 5.097,7.193 5.097,7.059 L5.097,6.286 L5.098,6.286 ZM5.098,8.230 C5.098,8.096 5.207,7.988 5.341,7.988 L6.113,7.988 C6.247,7.990 6.354,8.098 6.354,8.231 L6.354,9.004 C6.354,9.138 6.245,9.246 6.111,9.246 L5.338,9.246 C5.204,9.246 5.095,9.138 5.095,9.004 L5.095,8.231 L5.098,8.230 ZM5.098,10.175 C5.098,10.041 5.206,9.932 5.341,9.932 L6.113,9.932 C6.247,9.934 6.355,10.043 6.354,10.177 L6.354,10.949 C6.354,11.083 6.245,11.192 6.111,11.192 L5.338,11.192 C5.204,11.192 5.095,11.083 5.095,10.949 L5.095,10.177 L5.098,10.175 ZM5.098,12.120 C5.098,11.986 5.206,11.877 5.341,11.877 L6.113,11.877 C6.247,11.879 6.355,11.988 6.354,12.122 L6.354,12.894 C6.354,13.028 6.246,13.137 6.113,13.138 L5.340,13.138 C5.206,13.138 5.097,13.029 5.097,12.895 L5.097,12.122 L5.098,12.120 ZM2.757,4.342 C2.757,4.207 2.866,4.099 3.000,4.099 L3.773,4.099 C3.907,4.099 4.016,4.207 4.016,4.342 L4.016,5.114 C4.016,5.248 3.907,5.357 3.773,5.357 L3.000,5.357 C2.866,5.357 2.757,5.248 2.757,5.114 L2.757,4.342 ZM2.757,6.286 C2.757,6.152 2.866,6.044 3.000,6.044 L3.773,6.044 C3.907,6.044 4.016,6.152 4.016,6.286 L4.016,7.059 C4.016,7.123 3.990,7.185 3.944,7.231 C3.899,7.276 3.836,7.302 3.772,7.302 L2.999,7.302 C2.865,7.302 2.756,7.193 2.756,7.059 L2.756,6.286 L2.757,6.286 ZM2.757,8.231 C2.757,8.097 2.866,7.988 3.000,7.988 L3.773,7.988 C3.907,7.988 4.016,8.097 4.016,8.231 L4.016,9.004 C4.016,9.138 3.907,9.246 3.773,9.246 L3.000,9.246 C2.866,9.246 2.757,9.138 2.757,9.004 L2.757,8.231 ZM2.757,10.176 C2.757,10.042 2.866,9.933 3.000,9.933 L3.773,9.933 C3.907,9.933 4.016,10.042 4.016,10.176 L4.016,10.948 C4.016,11.083 3.907,11.191 3.773,11.191 L3.000,11.191 C2.866,11.191 2.757,11.083 2.757,10.948 L2.757,10.176 ZM2.757,12.121 C2.757,11.987 2.866,11.878 3.000,11.878 L3.773,11.878 C3.907,11.878 4.016,11.987 4.016,12.121 L4.016,12.893 C4.016,12.958 3.991,13.021 3.945,13.066 C3.899,13.112 3.837,13.138 3.772,13.138 L2.999,13.138 C2.865,13.138 2.756,13.029 2.756,12.895 L2.756,12.122 L2.757,12.121 Z"/>
</svg>
