<svg 
 xmlns="http://www.w3.org/2000/svg"
 xmlns:xlink="http://www.w3.org/1999/xlink"
 width="34px" height="34px">
<path fill-rule="evenodd"  fill="rgb(34, 252, 254)"
 d="M17.000,-0.000 C26.389,-0.000 34.000,7.611 34.000,17.000 C34.000,26.389 26.389,34.000 17.000,34.000 C7.611,34.000 -0.000,26.389 -0.000,17.000 C-0.000,7.611 7.611,-0.000 17.000,-0.000 Z"/>
<path fill-rule="evenodd"  fill="rgb(255, 255, 255)"
 d="M24.991,7.835 L22.134,24.975 C22.097,25.190 21.976,25.358 21.777,25.477 C21.673,25.534 21.556,25.567 21.431,25.567 C21.349,25.567 21.259,25.547 21.163,25.510 L16.536,23.619 C16.282,23.515 15.991,23.590 15.817,23.801 L13.407,26.739 C13.273,26.911 13.089,26.995 12.860,26.995 C12.765,26.995 12.683,26.979 12.612,26.950 C12.472,26.897 12.358,26.813 12.272,26.688 C12.186,26.565 12.141,26.430 12.141,26.280 L12.141,22.834 C12.141,22.545 12.241,22.267 12.423,22.042 L21.784,10.568 L10.000,20.767 C9.910,20.843 9.785,20.864 9.677,20.819 L5.447,19.086 C5.171,18.983 5.021,18.780 5.001,18.471 C4.986,18.174 5.105,17.953 5.359,17.811 L23.930,7.098 C24.043,7.030 24.160,6.999 24.288,6.999 C24.438,6.999 24.573,7.042 24.692,7.124 C24.940,7.300 25.036,7.540 24.991,7.835 L24.991,7.835 Z"/>
</svg>
