<svg 
 xmlns="http://www.w3.org/2000/svg"
 xmlns:xlink="http://www.w3.org/1999/xlink"
 width="24px" height="24px">
<path fill-rule="evenodd"  fill="rgb(245, 250, 253)"
 d="M17.772,0.448 C16.230,0.448 14.779,1.049 13.688,2.140 L9.356,6.473 C8.265,7.563 7.664,9.014 7.664,10.556 C7.664,12.531 8.660,14.349 10.328,15.419 C10.582,15.581 10.876,15.626 11.148,15.564 C11.417,15.505 11.664,15.343 11.825,15.092 C11.986,14.840 12.031,14.547 11.971,14.276 C11.911,14.005 11.749,13.757 11.498,13.595 C10.454,12.926 9.830,11.790 9.830,10.556 C9.830,9.592 10.205,8.686 10.888,8.004 L15.220,3.672 C15.901,2.990 16.808,2.614 17.772,2.614 C19.763,2.614 21.383,4.234 21.383,6.224 C21.383,7.188 21.007,8.095 20.326,8.777 L18.271,10.832 C18.054,11.049 17.948,11.334 17.953,11.618 C17.958,11.889 18.064,12.157 18.271,12.364 C18.482,12.575 18.759,12.681 19.036,12.681 C19.314,12.681 19.591,12.575 19.802,12.364 L21.857,10.308 C22.948,9.218 23.549,7.767 23.549,6.224 C23.549,3.039 20.958,0.448 17.772,0.448 L17.772,0.448 ZM13.664,8.583 C13.411,8.420 13.117,8.376 12.845,8.437 C12.575,8.496 12.328,8.659 12.167,8.909 C12.007,9.162 11.962,9.455 12.022,9.725 C12.081,9.996 12.243,10.245 12.495,10.406 C13.539,11.076 14.163,12.212 14.163,13.445 C14.163,14.410 13.787,15.316 13.105,15.998 L8.772,20.330 C8.091,21.012 7.184,21.388 6.220,21.388 C4.229,21.388 2.610,19.767 2.610,17.778 C2.610,16.813 2.985,15.907 3.667,15.225 L5.722,13.169 C5.939,12.953 6.044,12.667 6.040,12.383 C6.034,12.114 5.928,11.845 5.722,11.638 C5.510,11.426 5.233,11.321 4.956,11.321 C4.679,11.321 4.402,11.426 4.191,11.638 L2.135,13.693 C1.044,14.783 0.444,16.234 0.444,17.778 C0.444,20.962 3.035,23.554 6.220,23.554 C7.763,23.554 9.213,22.953 10.304,21.861 L14.637,17.529 C15.728,16.439 16.328,14.988 16.328,13.445 C16.328,11.470 15.333,9.653 13.664,8.583 L13.664,8.583 Z"/>
</svg>
