<svg 
 xmlns="http://www.w3.org/2000/svg"
 xmlns:xlink="http://www.w3.org/1999/xlink"
 width="24px" height="24px">
<path fill-rule="evenodd"  fill="rgb(34, 252, 254)"
 d="M23.769,16.106 L7.891,0.224 C7.588,-0.078 7.097,-0.078 6.795,0.224 L0.225,6.796 C-0.077,7.098 -0.077,7.589 0.225,7.892 L16.103,23.774 C16.406,24.076 16.897,24.076 17.199,23.774 L23.769,17.203 C24.071,16.900 24.071,16.409 23.769,16.106 L23.769,16.106 ZM6.018,5.358 L8.902,2.473 C8.941,2.434 9.001,2.434 9.040,2.473 L9.998,3.431 C10.037,3.470 10.037,3.531 9.998,3.569 L7.114,6.454 C7.075,6.493 7.015,6.493 6.976,6.454 L6.018,5.496 C5.982,5.457 5.982,5.397 6.018,5.358 L6.018,5.358 ZM8.750,6.447 L10.811,4.385 C10.850,4.346 10.911,4.346 10.949,4.385 L11.907,5.343 C11.946,5.382 11.946,5.443 11.907,5.481 L9.846,7.543 C9.807,7.582 9.747,7.582 9.708,7.543 L8.750,6.585 C8.713,6.546 8.713,6.486 8.750,6.447 L8.750,6.447 ZM10.661,8.359 L12.723,6.297 C12.762,6.258 12.822,6.258 12.861,6.297 L13.819,7.255 C13.858,7.294 13.858,7.355 13.819,7.393 L11.757,9.455 C11.719,9.494 11.658,9.494 11.619,9.455 L10.661,8.497 C10.623,8.458 10.623,8.398 10.661,8.359 L10.661,8.359 ZM11.767,11.109 L14.651,8.223 C14.690,8.185 14.751,8.185 14.789,8.223 L15.747,9.182 C15.786,9.221 15.786,9.281 15.747,9.320 L12.863,12.205 C12.824,12.244 12.764,12.244 12.725,12.205 L11.767,11.246 C11.731,11.208 11.731,11.147 11.767,11.109 L11.767,11.109 ZM15.457,13.294 L14.499,12.336 C14.460,12.297 14.460,12.236 14.499,12.198 L16.560,10.136 C16.599,10.097 16.660,10.097 16.698,10.136 L17.657,11.094 C17.695,11.133 17.695,11.193 17.657,11.232 L15.595,13.294 C15.556,13.333 15.496,13.333 15.457,13.294 L15.457,13.294 ZM16.411,14.110 L18.472,12.048 C18.511,12.009 18.571,12.009 18.610,12.048 L19.568,13.006 C19.607,13.045 19.607,13.105 19.568,13.144 L17.507,15.206 C17.468,15.245 17.407,15.245 17.369,15.206 L16.411,14.248 C16.372,14.209 16.372,14.148 16.411,14.110 L16.411,14.110 ZM18.475,17.955 L17.516,16.997 C17.478,16.958 17.478,16.898 17.516,16.859 L20.401,13.974 C20.439,13.935 20.500,13.935 20.539,13.974 L21.497,14.933 C21.535,14.971 21.535,15.032 21.497,15.070 L18.613,17.955 C18.574,17.992 18.513,17.992 18.475,17.955 L18.475,17.955 Z"/>
</svg>
