<svg 
 xmlns="http://www.w3.org/2000/svg"
 xmlns:xlink="http://www.w3.org/1999/xlink"
 width="170px" height="124px">
<path fill-rule="evenodd"  fill="rgb(97, 147, 163)"
 d="M-0.000,-0.000 L170.000,-0.000 L170.000,124.000 L-0.000,124.000 L-0.000,-0.000 Z"/>
<path fill-rule="evenodd"  opacity="0.702" fill="rgb(255, 255, 255)"
 d="M117.503,91.998 L54.494,91.998 C52.560,91.998 50.999,90.427 50.999,88.514 L50.999,37.483 C50.999,35.564 52.565,34.000 54.494,34.000 L117.503,34.000 C119.437,34.000 120.998,35.570 120.998,37.483 L120.998,88.514 C120.998,90.434 119.431,91.998 117.503,91.998 ZM116.331,87.358 L116.331,38.639 L55.666,38.639 L55.666,87.358 L116.331,87.358 ZM60.701,80.821 L71.303,66.236 C72.065,65.189 73.300,65.188 74.062,66.236 L79.813,74.147 L91.701,57.986 C92.470,56.940 93.713,56.933 94.487,57.986 L111.287,80.824 C112.056,81.870 111.612,82.718 110.289,82.718 L61.717,82.718 C60.394,82.718 59.940,81.869 60.701,80.821 ZM74.332,54.257 C72.888,55.086 71.109,55.086 69.665,54.257 C68.222,53.428 67.332,51.897 67.332,50.239 C67.332,48.581 68.222,47.050 69.665,46.221 C71.109,45.392 72.888,45.392 74.332,46.221 C75.776,47.050 76.665,48.581 76.665,50.239 C76.665,51.897 75.776,53.428 74.332,54.257 Z"/>
</svg>
