<svg 
 xmlns="http://www.w3.org/2000/svg"
 xmlns:xlink="http://www.w3.org/1999/xlink"
 width="215px" height="252px">
<path fill-rule="evenodd"  fill="rgb(97, 147, 163)"
 d="M-0.000,-0.000 L215.000,-0.000 L215.000,252.000 L-0.000,252.000 L-0.000,-0.000 Z"/>
<path fill-rule="evenodd"  opacity="0.702" fill="rgb(255, 255, 255)"
 d="M132.555,126.334 L143.609,121.368 C144.355,121.032 145.217,121.102 145.901,121.551 C146.585,122.000 146.997,122.769 146.995,123.594 L146.995,150.735 C146.997,151.559 146.585,152.328 145.901,152.777 C145.217,153.227 144.355,153.296 143.609,152.961 L132.555,147.994 L132.555,155.207 C132.521,157.869 130.376,160.009 127.741,160.008 L74.710,160.008 C72.115,159.953 70.031,157.829 69.999,155.207 L69.999,116.319 C69.999,115.029 70.506,113.792 71.409,112.880 C72.311,111.967 73.536,111.455 74.812,111.455 L127.843,111.455 C130.501,111.455 132.656,113.633 132.656,116.319 L132.555,126.334 ZM107.304,109.023 C103.897,109.023 100.825,106.950 99.521,103.769 C98.217,100.589 98.938,96.928 101.347,94.494 C103.756,92.060 107.380,91.331 110.527,92.649 C113.675,93.966 115.728,97.069 115.728,100.512 C115.728,105.213 111.956,109.023 107.304,109.023 L107.304,109.023 ZM90.395,109.023 C87.086,108.967 84.443,106.220 84.481,102.876 C84.518,99.532 87.221,96.847 90.530,96.865 C93.840,96.884 96.514,99.600 96.514,102.944 C96.514,104.574 95.866,106.136 94.716,107.280 C93.565,108.423 92.009,109.051 90.395,109.023 L90.395,109.023 ZM94.066,145.583 C94.086,146.437 94.548,147.218 95.284,147.641 C96.019,148.063 96.920,148.064 97.656,147.644 L114.503,137.916 C115.206,137.472 115.633,136.693 115.633,135.855 C115.633,135.018 115.206,134.239 114.503,133.795 L97.656,124.067 C96.920,123.647 96.019,123.649 95.284,124.070 C94.548,124.493 94.086,125.274 94.066,126.128 L94.066,145.583 ZM98.880,130.333 L108.467,135.876 L98.880,141.420 L98.880,130.333 Z"/>
</svg>
