<svg 
 xmlns="http://www.w3.org/2000/svg"
 xmlns:xlink="http://www.w3.org/1999/xlink"
 width="185px" height="122px">
<path fill-rule="evenodd"  fill="rgb(97, 147, 163)"
 d="M-0.000,-0.000 L185.000,-0.000 L185.000,122.000 L-0.000,122.000 L-0.000,-0.000 Z"/>
<path fill-rule="evenodd"  opacity="0.702" fill="rgb(255, 255, 255)"
 d="M116.555,61.334 L127.609,56.368 C128.355,56.032 129.217,56.102 129.901,56.551 C130.585,57.000 130.997,57.769 130.995,58.594 L130.995,85.735 C130.997,86.559 130.585,87.328 129.901,87.777 C129.217,88.227 128.355,88.296 127.609,87.961 L116.555,82.994 L116.555,90.207 C116.521,92.869 114.376,95.009 111.741,95.008 L58.710,95.008 C56.115,94.953 54.031,92.829 53.999,90.207 L53.999,51.319 C53.999,50.029 54.506,48.792 55.409,47.880 C56.311,46.967 57.536,46.455 58.812,46.455 L111.843,46.455 C114.501,46.455 116.656,48.633 116.656,51.319 L116.555,61.334 ZM91.304,44.023 C87.897,44.023 84.825,41.950 83.521,38.769 C82.217,35.589 82.938,31.928 85.347,29.494 C87.756,27.060 91.380,26.331 94.527,27.649 C97.675,28.966 99.728,32.069 99.728,35.512 C99.728,40.213 95.956,44.023 91.304,44.023 L91.304,44.023 ZM74.395,44.023 C71.086,43.967 68.443,41.220 68.481,37.876 C68.518,34.532 71.221,31.847 74.530,31.865 C77.840,31.884 80.514,34.600 80.514,37.944 C80.514,39.574 79.866,41.136 78.716,42.280 C77.565,43.423 76.009,44.051 74.395,44.023 L74.395,44.023 ZM78.066,80.583 C78.086,81.437 78.548,82.218 79.284,82.641 C80.019,83.063 80.920,83.064 81.656,82.644 L98.503,72.916 C99.206,72.472 99.633,71.693 99.633,70.855 C99.633,70.018 99.206,69.239 98.503,68.795 L81.656,59.067 C80.920,58.647 80.019,58.649 79.284,59.070 C78.548,59.493 78.086,60.274 78.066,61.128 L78.066,80.583 ZM82.880,65.333 L92.467,70.876 L82.880,76.420 L82.880,65.333 Z"/>
</svg>
