<svg 
 xmlns="http://www.w3.org/2000/svg"
 xmlns:xlink="http://www.w3.org/1999/xlink"
 width="92px" height="105px">
<path fill-rule="evenodd"  stroke="rgb(93, 219, 247)" stroke-width="2px" stroke-linecap="butt" stroke-linejoin="miter" fill="none"
 d="M45.000,76.452 C67.091,76.452 85.000,82.395 85.000,89.726 C85.000,97.057 67.091,103.000 45.000,103.000 C22.909,103.000 5.000,97.057 5.000,89.726 C5.000,82.395 22.909,76.452 45.000,76.452 Z"/>
<path fill-rule="evenodd"  fill="rgb(17, 75, 88)"
 d="M44.538,76.452 C65.397,76.452 82.306,82.189 82.306,89.266 C82.306,96.343 65.397,102.081 44.538,102.081 C23.679,102.081 6.770,96.343 6.770,89.266 C6.770,82.189 23.679,76.452 44.538,76.452 Z"/>
<path fill-rule="evenodd"  opacity="0.702" fill="rgb(0, 0, 0)"
 d="M44.557,26.881 C61.984,26.881 76.111,40.945 76.111,58.294 C76.111,75.643 61.984,89.707 44.557,89.707 C27.131,89.707 13.004,75.643 13.004,58.294 C13.004,40.945 27.131,26.881 44.557,26.881 Z"/>
<path fill-rule="evenodd"  opacity="0.039" fill="rgb(255, 255, 255)"
 d="M44.538,27.724 C58.299,27.724 69.454,34.567 69.454,43.009 C69.454,51.451 58.299,58.294 44.538,58.294 C30.777,58.294 19.622,51.451 19.622,43.009 C19.622,34.567 30.777,27.724 44.538,27.724 Z"/>
<path fill-rule="evenodd"  opacity="0.729" fill="rgb(255, 255, 255)"
 d="M45.423,26.000 C55.975,26.000 64.529,31.351 64.529,37.952 C64.529,44.553 55.975,49.904 45.423,49.904 C34.872,49.904 26.318,44.553 26.318,37.952 C26.318,31.351 34.872,26.000 45.423,26.000 Z"/>
</svg>
