<svg 
 xmlns="http://www.w3.org/2000/svg"
 xmlns:xlink="http://www.w3.org/1999/xlink"
 width="10px" height="13px">
<path fill-rule="evenodd"  fill="rgb(204, 255, 0)"
 d="M9.863,10.168 C9.899,10.299 9.930,10.466 9.957,10.669 C9.984,10.871 9.998,11.075 9.998,11.282 C9.998,11.489 9.982,11.684 9.951,11.868 C9.919,12.051 9.872,12.190 9.810,12.284 C9.765,12.349 9.651,12.413 9.468,12.474 C9.284,12.535 9.054,12.592 8.777,12.643 C8.499,12.695 8.190,12.745 7.851,12.791 C7.511,12.838 7.171,12.878 6.831,12.911 C6.491,12.944 6.160,12.968 5.838,12.982 C5.515,12.996 5.234,13.003 4.992,13.003 C4.751,13.003 4.471,12.994 4.153,12.975 C3.836,12.956 3.509,12.933 3.174,12.904 C2.838,12.876 2.505,12.843 2.174,12.806 C1.843,12.768 1.541,12.726 1.268,12.679 C0.995,12.632 0.763,12.587 0.571,12.545 C0.378,12.502 0.260,12.458 0.215,12.411 C0.134,12.345 0.072,12.136 0.027,11.783 C-0.018,11.430 0.000,10.972 0.081,10.408 C0.125,10.088 0.248,9.843 0.450,9.674 C0.651,9.505 0.884,9.371 1.148,9.272 C1.411,9.173 1.689,9.086 1.980,9.011 C2.270,8.936 2.523,8.823 2.738,8.673 C2.908,8.560 3.040,8.452 3.134,8.348 C3.228,8.245 3.295,8.141 3.335,8.038 C3.375,7.934 3.395,7.826 3.395,7.714 C3.395,7.601 3.391,7.474 3.382,7.333 C3.364,7.126 3.299,6.966 3.187,6.853 C3.076,6.740 2.952,6.623 2.818,6.500 C2.747,6.444 2.686,6.362 2.637,6.254 C2.588,6.145 2.541,6.035 2.496,5.922 C2.452,5.800 2.411,5.663 2.376,5.513 C2.357,5.494 2.331,5.461 2.295,5.414 C2.268,5.367 2.237,5.304 2.201,5.224 C2.165,5.144 2.125,5.029 2.080,4.878 C2.035,4.728 2.006,4.594 1.993,4.476 C1.980,4.359 1.982,4.258 2.000,4.173 C2.009,4.070 2.031,3.980 2.067,3.905 C2.067,3.576 2.085,3.247 2.121,2.918 C2.156,2.645 2.214,2.349 2.295,2.029 C2.376,1.709 2.505,1.422 2.684,1.169 C2.845,0.933 3.020,0.738 3.207,0.583 C3.395,0.428 3.590,0.308 3.791,0.224 C3.993,0.139 4.196,0.080 4.402,0.047 C4.608,0.014 4.804,-0.002 4.992,-0.002 C5.198,0.017 5.366,0.042 5.495,0.075 C5.625,0.108 5.730,0.148 5.811,0.195 C5.891,0.242 5.961,0.299 6.019,0.365 C6.077,0.430 6.137,0.496 6.200,0.562 L6.455,0.562 C6.535,0.562 6.614,0.574 6.690,0.597 C6.766,0.621 6.842,0.665 6.918,0.731 C6.994,0.797 7.077,0.891 7.166,1.013 C7.372,1.296 7.524,1.604 7.622,1.937 C7.721,2.271 7.792,2.589 7.837,2.889 C7.882,3.237 7.909,3.581 7.918,3.919 C7.935,3.966 7.949,4.023 7.958,4.088 C7.967,4.154 7.974,4.234 7.978,4.328 C7.983,4.422 7.976,4.540 7.958,4.681 C7.940,4.869 7.913,5.017 7.877,5.125 C7.842,5.233 7.801,5.316 7.757,5.372 C7.712,5.438 7.663,5.485 7.609,5.513 C7.573,5.663 7.533,5.800 7.488,5.922 C7.443,6.035 7.396,6.145 7.347,6.254 C7.298,6.362 7.238,6.444 7.166,6.500 C7.014,6.632 6.889,6.743 6.790,6.832 C6.692,6.921 6.625,7.074 6.589,7.290 C6.562,7.422 6.553,7.554 6.562,7.685 C6.571,7.817 6.605,7.951 6.663,8.087 C6.721,8.224 6.815,8.353 6.945,8.475 C7.074,8.597 7.256,8.706 7.488,8.800 C7.694,8.884 7.920,8.962 8.166,9.032 C8.412,9.103 8.649,9.183 8.877,9.272 C9.105,9.362 9.309,9.477 9.488,9.618 C9.667,9.759 9.792,9.942 9.863,10.168 L9.863,10.168 ZM5.556,9.702 C5.583,9.646 5.585,9.587 5.563,9.526 C5.540,9.465 5.507,9.406 5.462,9.350 C5.417,9.293 5.364,9.232 5.301,9.166 L4.684,9.166 C4.621,9.232 4.572,9.293 4.536,9.350 C4.500,9.397 4.471,9.448 4.449,9.505 C4.426,9.561 4.429,9.613 4.455,9.660 C4.518,9.792 4.572,9.907 4.617,10.006 C4.661,10.104 4.710,10.182 4.764,10.238 C4.746,10.323 4.719,10.443 4.684,10.598 C4.648,10.753 4.614,10.913 4.583,11.078 C4.552,11.242 4.525,11.397 4.502,11.543 C4.480,11.689 4.469,11.799 4.469,11.875 C4.469,11.922 4.489,11.978 4.529,12.044 C4.570,12.110 4.617,12.178 4.670,12.248 C4.724,12.319 4.780,12.378 4.838,12.425 C4.896,12.472 4.947,12.495 4.992,12.495 C5.037,12.495 5.091,12.472 5.153,12.425 C5.216,12.378 5.276,12.324 5.334,12.262 C5.393,12.201 5.442,12.136 5.482,12.065 C5.522,11.994 5.542,11.936 5.542,11.889 C5.542,11.832 5.529,11.736 5.502,11.600 C5.475,11.463 5.446,11.310 5.415,11.141 C5.384,10.972 5.350,10.807 5.314,10.647 C5.278,10.488 5.247,10.361 5.220,10.267 C5.274,10.220 5.325,10.151 5.375,10.062 C5.424,9.973 5.484,9.853 5.556,9.702 L5.556,9.702 Z"/>
</svg>
