<svg 
 xmlns="http://www.w3.org/2000/svg"
 xmlns:xlink="http://www.w3.org/1999/xlink"
 width="22px" height="28px">
<path fill-rule="evenodd"  fill="rgb(34, 252, 254)"
 d="M21.700,21.900 C21.778,22.184 21.847,22.543 21.906,22.979 C21.965,23.414 21.995,23.855 21.995,24.300 C21.995,24.746 21.960,25.166 21.892,25.561 C21.823,25.956 21.719,26.255 21.582,26.457 C21.483,26.599 21.232,26.736 20.829,26.867 C20.425,26.999 19.919,27.121 19.308,27.232 C18.698,27.343 18.019,27.450 17.271,27.551 C16.523,27.652 15.776,27.738 15.027,27.809 C14.280,27.880 13.551,27.931 12.843,27.961 C12.134,27.991 11.514,28.007 10.983,28.007 C10.452,28.007 9.837,27.986 9.138,27.946 C8.439,27.905 7.721,27.855 6.983,27.794 C6.245,27.733 5.511,27.662 4.783,27.581 C4.055,27.500 3.391,27.409 2.790,27.308 C2.190,27.207 1.678,27.110 1.255,27.019 C0.832,26.928 0.571,26.832 0.473,26.730 C0.296,26.589 0.158,26.138 0.060,25.379 C-0.039,24.619 0.001,23.632 0.178,22.417 C0.276,21.728 0.547,21.201 0.990,20.837 C1.432,20.472 1.944,20.184 2.525,19.971 C3.105,19.758 3.715,19.571 4.355,19.409 C4.995,19.247 5.551,19.004 6.023,18.680 C6.397,18.437 6.687,18.204 6.894,17.981 C7.101,17.758 7.248,17.535 7.337,17.313 C7.425,17.090 7.470,16.857 7.470,16.614 C7.470,16.371 7.460,16.097 7.440,15.794 C7.401,15.348 7.258,15.004 7.012,14.761 C6.766,14.517 6.495,14.264 6.200,14.001 C6.043,13.880 5.910,13.702 5.802,13.469 C5.694,13.236 5.590,12.998 5.492,12.755 C5.393,12.492 5.305,12.198 5.226,11.874 C5.187,11.834 5.128,11.763 5.049,11.662 C4.990,11.560 4.921,11.424 4.842,11.251 C4.764,11.079 4.675,10.831 4.577,10.507 C4.478,10.183 4.414,9.894 4.385,9.641 C4.355,9.388 4.360,9.170 4.399,8.988 C4.419,8.765 4.468,8.573 4.547,8.411 C4.547,7.702 4.586,6.993 4.665,6.284 C4.744,5.697 4.872,5.059 5.049,4.370 C5.226,3.682 5.511,3.064 5.905,2.517 C6.259,2.011 6.643,1.590 7.056,1.256 C7.470,0.922 7.898,0.664 8.341,0.481 C8.784,0.299 9.231,0.173 9.684,0.102 C10.137,0.031 10.570,-0.005 10.983,-0.005 C11.436,0.036 11.805,0.092 12.090,0.162 C12.376,0.233 12.607,0.320 12.784,0.421 C12.961,0.522 13.114,0.643 13.241,0.785 C13.369,0.927 13.502,1.069 13.640,1.211 L14.201,1.211 C14.378,1.211 14.550,1.236 14.718,1.287 C14.885,1.337 15.052,1.434 15.219,1.575 C15.387,1.717 15.569,1.919 15.766,2.183 C16.218,2.790 16.553,3.454 16.769,4.173 C16.986,4.892 17.143,5.575 17.242,6.223 C17.340,6.973 17.399,7.712 17.419,8.441 C17.458,8.543 17.488,8.664 17.507,8.806 C17.527,8.948 17.542,9.120 17.552,9.322 C17.562,9.525 17.547,9.778 17.507,10.082 C17.468,10.487 17.409,10.806 17.330,11.039 C17.252,11.272 17.163,11.449 17.065,11.571 C16.966,11.712 16.858,11.814 16.740,11.874 C16.661,12.198 16.573,12.492 16.474,12.755 C16.376,12.998 16.272,13.236 16.164,13.469 C16.056,13.702 15.923,13.880 15.766,14.001 C15.431,14.284 15.156,14.523 14.939,14.715 C14.722,14.907 14.575,15.236 14.496,15.702 C14.437,15.986 14.417,16.269 14.437,16.553 C14.457,16.837 14.531,17.125 14.659,17.419 C14.786,17.713 14.993,17.991 15.279,18.254 C15.564,18.518 15.962,18.751 16.474,18.953 C16.927,19.135 17.424,19.302 17.965,19.454 C18.506,19.606 19.028,19.778 19.530,19.971 C20.032,20.163 20.479,20.411 20.873,20.715 C21.267,21.019 21.542,21.414 21.700,21.900 L21.700,21.900 ZM12.223,20.898 C12.282,20.776 12.287,20.649 12.238,20.518 C12.188,20.386 12.115,20.259 12.016,20.138 C11.918,20.016 11.800,19.885 11.662,19.743 L10.304,19.743 C10.166,19.885 10.058,20.016 9.979,20.138 C9.901,20.239 9.837,20.351 9.787,20.472 C9.738,20.594 9.743,20.705 9.802,20.806 C9.940,21.090 10.058,21.338 10.156,21.551 C10.255,21.763 10.363,21.930 10.481,22.052 C10.442,22.234 10.383,22.492 10.304,22.827 C10.225,23.161 10.151,23.505 10.083,23.860 C10.014,24.214 9.955,24.548 9.906,24.862 C9.856,25.176 9.832,25.414 9.832,25.576 C9.832,25.677 9.876,25.799 9.964,25.941 C10.053,26.083 10.156,26.229 10.274,26.381 C10.393,26.533 10.516,26.660 10.643,26.761 C10.771,26.862 10.884,26.913 10.983,26.913 C11.081,26.913 11.199,26.862 11.337,26.761 C11.475,26.660 11.608,26.543 11.736,26.412 C11.864,26.280 11.972,26.138 12.061,25.986 C12.149,25.834 12.193,25.708 12.193,25.607 C12.193,25.485 12.164,25.277 12.105,24.984 C12.046,24.690 11.982,24.361 11.913,23.996 C11.844,23.632 11.770,23.277 11.691,22.933 C11.613,22.589 11.544,22.315 11.485,22.113 C11.603,22.012 11.716,21.865 11.824,21.672 C11.933,21.480 12.065,21.222 12.223,20.898 L12.223,20.898 Z"/>
</svg>
