<svg 
 xmlns="http://www.w3.org/2000/svg"
 xmlns:xlink="http://www.w3.org/1999/xlink"
 width="21px" height="26px">
<path fill-rule="evenodd"  fill="rgb(34, 252, 254)"
 d="M17.540,18.133 L10.501,26.008 L3.273,17.960 C2.847,17.559 2.455,17.123 2.102,16.657 L2.064,16.614 L2.070,16.614 C0.772,14.881 0.004,12.735 0.004,10.410 C0.004,4.660 4.704,-0.002 10.501,-0.002 C16.298,-0.002 20.998,4.660 20.998,10.410 C20.998,13.473 19.664,16.228 17.540,18.133 ZM10.501,2.764 C6.230,2.764 2.767,6.199 2.767,10.435 C2.767,14.672 6.230,18.106 10.501,18.106 C14.772,18.106 18.235,14.672 18.235,10.435 C18.235,6.199 14.772,2.764 10.501,2.764 ZM10.601,13.875 L9.725,13.875 L9.725,4.602 L10.602,4.602 L10.602,5.271 L15.586,7.766 L10.601,9.873 L10.601,13.875 ZM6.542,13.435 C6.542,14.006 8.199,14.470 10.243,14.470 C12.286,14.470 13.944,14.006 13.944,13.435 C13.944,13.023 13.080,12.667 11.829,12.501 L11.829,11.848 C13.831,12.069 15.275,12.696 15.276,13.435 C15.276,14.360 13.023,15.109 10.243,15.109 C7.462,15.109 5.209,14.360 5.209,13.435 C5.209,12.706 6.617,12.084 8.581,11.856 L8.581,12.511 C7.372,12.682 6.542,13.031 6.542,13.435 Z"/>
</svg>
