<svg 
 xmlns="http://www.w3.org/2000/svg"
 xmlns:xlink="http://www.w3.org/1999/xlink"
 width="14px" height="17px">
<path fill-rule="evenodd"  fill="rgb(130, 243, 250)"
 d="M11.696,11.853 L6.999,17.002 L2.177,11.740 C1.893,11.477 1.631,11.192 1.396,10.888 L1.370,10.860 L1.374,10.860 C0.508,9.727 -0.004,8.323 -0.004,6.803 C-0.004,3.044 3.131,-0.004 6.999,-0.004 C10.867,-0.004 14.003,3.044 14.003,6.803 C14.003,8.806 13.113,10.607 11.696,11.853 ZM6.999,1.804 C4.149,1.804 1.839,4.050 1.839,6.820 C1.839,9.590 4.149,11.835 6.999,11.835 C9.849,11.835 12.159,9.590 12.159,6.820 C12.159,4.050 9.849,1.804 6.999,1.804 ZM7.066,9.069 L6.481,9.069 L6.481,3.006 L7.066,3.006 L7.066,3.443 L10.392,5.074 L7.066,6.452 L7.066,9.069 ZM4.358,8.781 C4.358,9.155 5.464,9.458 6.827,9.458 C8.190,9.458 9.297,9.155 9.297,8.781 C9.297,8.512 8.720,8.279 7.886,8.170 L7.886,7.744 C9.221,7.888 10.185,8.298 10.185,8.781 C10.185,9.386 8.682,9.876 6.827,9.876 C4.972,9.876 3.468,9.386 3.468,8.781 C3.468,8.305 4.408,7.898 5.718,7.748 L5.718,8.177 C4.911,8.289 4.358,8.517 4.358,8.781 Z"/>
</svg>
