<svg 
 xmlns="http://www.w3.org/2000/svg"
 xmlns:xlink="http://www.w3.org/1999/xlink"
 width="77.5px" height="56.5px">
<path fill-rule="evenodd"  stroke="rgb(243, 2, 3)" stroke-width="1px" stroke-linecap="butt" stroke-linejoin="miter" fill="none"
 d="M14.369,1.413 L73.778,22.379 C75.341,22.931 76.160,24.644 75.609,26.207 L66.290,52.611 C65.739,54.173 64.025,54.993 62.463,54.441 L3.054,33.475 C1.492,32.924 0.672,31.210 1.224,29.648 L10.542,3.244 C11.093,1.681 12.807,0.862 14.369,1.413 Z"/>
<path fill-rule="evenodd"  fill="rgb(243, 2, 3)"
 d="M15.257,4.908 L70.894,24.543 C71.936,24.911 72.482,26.053 72.114,27.094 L64.127,49.726 C63.760,50.768 62.617,51.314 61.576,50.947 L5.939,31.312 C4.897,30.944 4.351,29.802 4.718,28.760 L12.705,6.128 C13.073,5.086 14.215,4.540 15.257,4.908 Z"/>
</svg>
