<svg 
 xmlns="http://www.w3.org/2000/svg"
 xmlns:xlink="http://www.w3.org/1999/xlink"
 width="31.5px" height="31.5px">
<path fill-rule="evenodd"  stroke="rgb(0, 209, 254)" stroke-width="1px" stroke-linecap="butt" stroke-linejoin="miter" fill="none"
 d="M4.500,0.500 L26.500,0.500 C28.709,0.500 30.500,2.291 30.500,4.500 L30.500,26.500 C30.500,28.709 28.709,30.500 26.500,30.500 L4.500,30.500 C2.291,30.500 0.500,28.709 0.500,26.500 L0.500,4.500 C0.500,2.291 2.291,0.500 4.500,0.500 Z"/>
<path fill-rule="evenodd"  fill="rgb(0, 209, 254)"
 d="M21.876,19.830 C21.637,19.628 21.065,19.641 20.872,19.872 C19.197,21.879 16.527,22.649 14.072,21.835 C10.785,20.745 9.009,17.150 10.112,13.823 C11.216,10.496 14.788,8.676 18.075,9.766 C19.191,10.137 20.175,10.811 20.920,11.718 C20.934,11.735 20.950,11.749 20.966,11.763 L19.213,11.815 C18.916,11.824 18.590,12.217 18.596,12.517 C18.602,12.752 18.845,13.065 19.053,13.135 C19.111,13.154 19.250,13.189 19.314,13.187 L22.606,12.858 C22.756,12.853 22.899,12.789 23.003,12.679 C23.106,12.568 23.163,12.421 23.160,12.269 L23.090,9.067 C23.083,8.751 22.960,8.288 22.524,8.213 C22.216,8.160 21.873,8.499 21.880,8.815 L21.918,10.590 C21.009,9.521 19.829,8.721 18.494,8.278 C14.441,6.934 10.037,9.178 8.676,13.280 C7.316,17.383 9.505,21.814 13.558,23.158 C16.585,24.162 19.876,23.212 21.942,20.738 C22.144,20.495 22.115,20.033 21.876,19.830 L21.876,19.830 Z"/>
</svg>
