<svg 
 xmlns="http://www.w3.org/2000/svg"
 xmlns:xlink="http://www.w3.org/1999/xlink"
 width="27px" height="17px">
<path fill-rule="evenodd"  fill="rgb(34, 252, 254)"
 d="M16.745,7.086 L24.023,6.201 L23.356,5.449 L13.393,6.219 L21.515,12.023 C18.993,12.178 9.817,12.908 9.817,12.908 L7.348,17.000 L27.000,13.458 L27.000,13.444 L16.745,7.086 ZM12.435,6.349 C12.438,3.004 9.648,0.283 6.218,0.283 C2.790,0.283 -0.000,2.985 -0.000,6.310 C0.005,7.215 0.212,8.107 0.605,8.926 C1.494,10.809 4.642,14.652 5.821,16.060 C6.029,16.309 6.417,16.304 6.619,16.052 C7.904,14.449 10.767,10.813 11.771,8.984 C12.244,8.124 12.435,7.359 12.435,6.349 L12.435,6.349 ZM6.219,8.686 C4.900,8.684 3.830,7.633 3.828,6.336 C3.829,5.038 4.899,3.987 6.219,3.985 C7.540,3.987 8.610,5.039 8.611,6.337 C8.608,7.634 7.539,8.684 6.219,8.686 L6.219,8.686 ZM26.890,2.196 C26.885,0.979 25.878,-0.004 24.640,0.000 C23.399,0.000 22.389,0.978 22.389,2.182 C22.391,2.509 22.466,2.833 22.608,3.128 C22.929,3.810 24.069,5.201 24.496,5.711 C24.532,5.754 24.585,5.779 24.641,5.778 C24.697,5.778 24.750,5.752 24.785,5.709 C25.251,5.129 26.286,3.812 26.650,3.151 C26.821,2.839 26.890,2.562 26.890,2.196 L26.890,2.196 ZM24.640,3.042 C24.319,3.058 24.016,2.900 23.851,2.630 C23.686,2.360 23.686,2.022 23.851,1.752 C24.016,1.482 24.319,1.324 24.640,1.341 C25.100,1.364 25.460,1.738 25.460,2.191 C25.460,2.644 25.100,3.018 24.640,3.042 L24.640,3.042 Z"/>
</svg>
