<svg 
 xmlns="http://www.w3.org/2000/svg"
 xmlns:xlink="http://www.w3.org/1999/xlink"
 width="16px" height="10px">
<path fill-rule="evenodd"  fill="rgb(255, 255, 255)"
 d="M9.923,4.168 L14.236,3.648 L13.841,3.205 L7.937,3.658 L12.749,7.073 C11.255,7.164 5.817,7.593 5.817,7.593 L4.355,10.000 L16.000,7.916 L16.000,7.908 L9.923,4.168 ZM7.369,3.735 C7.370,1.767 5.717,0.166 3.685,0.166 C1.653,0.166 -0.000,1.756 -0.000,3.712 C0.003,4.244 0.125,4.769 0.359,5.250 C0.885,6.358 2.751,8.619 3.449,9.447 C3.573,9.593 3.802,9.591 3.922,9.442 C4.684,8.499 6.380,6.361 6.975,5.284 C7.256,4.779 7.369,4.329 7.369,3.735 L7.369,3.735 ZM3.685,5.109 C2.904,5.108 2.270,4.490 2.268,3.727 C2.269,2.964 2.903,2.345 3.685,2.344 C4.468,2.345 5.102,2.964 5.103,3.728 C5.101,4.490 4.467,5.108 3.685,5.109 L3.685,5.109 ZM15.935,1.292 C15.932,0.576 15.335,-0.002 14.601,-0.000 C13.866,-0.000 13.267,0.576 13.267,1.283 C13.269,1.476 13.313,1.666 13.397,1.840 C13.588,2.241 14.263,3.060 14.516,3.359 C14.537,3.385 14.569,3.399 14.602,3.399 C14.636,3.399 14.667,3.384 14.687,3.358 C14.963,3.017 15.577,2.242 15.792,1.853 C15.894,1.670 15.935,1.507 15.935,1.292 L15.935,1.292 ZM14.601,1.789 C14.411,1.799 14.232,1.706 14.134,1.547 C14.036,1.388 14.036,1.190 14.134,1.031 C14.232,0.872 14.411,0.779 14.601,0.788 C14.874,0.802 15.088,1.022 15.088,1.289 C15.088,1.555 14.874,1.775 14.601,1.789 L14.601,1.789 Z"/>
</svg>
