<svg 
 xmlns="http://www.w3.org/2000/svg"
 xmlns:xlink="http://www.w3.org/1999/xlink"
 width="355px" height="214px">
<path fill-rule="evenodd"  stroke="rgb(0, 167, 232)" stroke-width="2px" stroke-linecap="butt" stroke-linejoin="miter" opacity="0.8" fill="none"
 d="M2.000,2.000 L351.000,2.000 L351.000,210.000 L2.000,210.000 L2.000,2.000 Z"/>
<path fill-rule="evenodd"  stroke="rgb(0, 183, 255)" stroke-width="4px" stroke-linecap="butt" stroke-linejoin="miter" fill="none"
 d="M24.000,210.000 C8.457,210.000 2.000,210.000 2.000,210.000 C2.000,210.000 2.000,203.750 2.000,188.000 M2.000,24.264 C2.000,9.765 2.000,2.000 2.000,2.000 C2.000,2.000 8.871,2.000 24.138,2.000 M329.000,2.000 C343.848,2.000 351.000,2.000 351.000,2.000 C351.000,2.000 351.000,6.483 351.000,24.000 M351.000,188.000 C351.000,202.628 351.000,210.000 351.000,210.000 C351.000,210.000 348.213,210.000 329.000,210.000 "/>
</svg>
