<svg 
 xmlns="http://www.w3.org/2000/svg"
 xmlns:xlink="http://www.w3.org/1999/xlink"
 width="14px" height="14px">
<path fill-rule="evenodd"  fill="rgb(234, 255, 0)"
 d="M6.998,-0.001 C3.133,-0.001 -0.000,3.134 -0.000,7.001 C-0.000,10.868 3.133,14.003 6.998,14.003 C10.864,14.003 13.997,10.868 13.997,7.001 C13.997,3.134 10.864,-0.001 6.998,-0.001 L6.998,-0.001 ZM9.821,8.226 L6.508,8.226 L6.438,8.168 L6.193,8.168 C6.112,8.168 6.065,8.168 6.019,8.086 C5.972,8.005 6.019,7.993 5.949,7.946 C5.877,7.856 5.836,7.746 5.832,7.631 L5.832,3.010 C5.816,2.842 5.869,2.675 5.979,2.547 C6.089,2.419 6.247,2.342 6.415,2.333 C6.579,2.342 6.733,2.416 6.842,2.539 C6.952,2.661 7.008,2.822 6.998,2.986 L6.998,7.001 L9.821,7.001 C9.995,6.991 10.166,7.053 10.293,7.172 C10.421,7.291 10.495,7.457 10.498,7.631 C10.473,7.981 10.171,8.246 9.821,8.226 L9.821,8.226 Z"/>
</svg>
