<svg 
 xmlns="http://www.w3.org/2000/svg"
 xmlns:xlink="http://www.w3.org/1999/xlink"
 width="15px" height="15px">
<path fill-rule="evenodd"  fill="rgb(0, 183, 255)"
 d="M14.281,8.163 C13.962,11.395 11.415,13.955 8.190,14.285 L8.190,15.003 L6.805,15.003 L6.805,14.285 C3.580,13.955 1.033,11.395 0.714,8.163 L-0.001,8.163 L-0.001,6.797 L0.717,6.797 C1.045,3.573 3.588,1.024 6.805,0.695 L6.805,-0.002 L8.190,-0.002 L8.190,0.695 C11.407,1.025 13.949,3.574 14.277,6.797 L14.996,6.797 L14.996,8.163 L14.281,8.163 ZM12.878,6.797 C12.571,4.336 10.644,2.393 8.190,2.069 L8.190,3.392 L6.805,3.392 L6.805,2.067 C4.344,2.384 2.409,4.330 2.101,6.797 L3.407,6.797 L3.407,8.163 L2.099,8.163 C2.401,10.635 4.337,12.588 6.803,12.907 L6.803,11.609 L8.188,11.609 L8.188,12.907 C10.647,12.583 12.577,10.633 12.878,8.166 L11.587,8.166 L11.587,6.800 L12.878,6.800 L12.878,6.797 ZM7.497,10.905 C5.616,10.903 4.092,9.373 4.093,7.487 C4.095,5.602 5.621,4.074 7.503,4.075 C9.385,4.076 10.910,5.605 10.910,7.490 C10.910,8.397 10.550,9.266 9.910,9.906 C9.270,10.547 8.402,10.906 7.497,10.905 L7.497,10.905 ZM7.497,5.449 C6.374,5.453 5.466,6.369 5.469,7.495 C5.472,8.621 6.384,9.531 7.508,9.530 C8.632,9.529 9.542,8.616 9.542,7.490 C9.542,6.948 9.326,6.428 8.942,6.045 C8.559,5.662 8.039,5.447 7.497,5.449 L7.497,5.449 Z"/>
</svg>
