<svg 
 xmlns="http://www.w3.org/2000/svg"
 xmlns:xlink="http://www.w3.org/1999/xlink"
 width="18px" height="14px">
<path fill-rule="evenodd"  fill="rgb(255, 255, 255)"
 d="M9.002,2.002 C4.049,2.002 0.003,5.809 0.003,7.002 C0.003,8.195 4.049,12.001 9.002,12.001 C13.954,12.001 18.001,8.252 18.001,7.002 C18.001,5.809 13.954,2.002 9.002,2.002 L9.002,2.002 ZM8.881,10.467 C6.828,10.467 5.197,8.933 5.197,7.002 C5.197,5.070 6.828,3.536 8.881,3.536 C10.935,3.536 12.565,5.070 12.565,7.002 C12.565,8.933 10.935,10.467 8.881,10.467 L8.881,10.467 ZM8.881,4.900 C7.613,4.900 6.646,5.865 6.646,7.002 C6.646,8.138 7.613,9.104 8.881,9.104 C10.149,9.104 11.116,8.195 11.116,7.002 C11.116,5.809 10.149,4.900 8.881,4.900 L8.881,4.900 Z"/>
<path fill-rule="evenodd"  fill="rgb(255, 255, 255)"
 d="M14.567,-0.010 L15.997,1.458 L2.429,13.985 L0.999,12.517 L14.567,-0.010 Z"/>
</svg>
