<svg 
 xmlns="http://www.w3.org/2000/svg"
 xmlns:xlink="http://www.w3.org/1999/xlink"
 width="28px" height="28px">
<path fill-rule="evenodd"  opacity="0.349" fill="rgb(0, 0, 0)"
 d="M-0.000,-0.000 L28.000,-0.000 L28.000,28.000 L-0.000,28.000 L-0.000,-0.000 Z"/>
<path fill-rule="evenodd"  fill="rgb(255, 255, 255)"
 d="M6.705,3.994 L21.050,3.994 C21.841,4.041 22.595,4.348 23.192,4.868 C23.702,5.438 23.987,6.175 23.992,6.940 L23.992,21.024 C23.988,21.793 23.714,22.535 23.218,23.122 C22.539,23.788 21.590,24.102 20.647,23.971 L7.300,23.971 C6.421,23.970 5.578,23.619 4.959,22.996 C4.339,22.373 3.995,21.529 4.000,20.650 L4.000,7.286 C4.004,5.878 4.911,4.630 6.250,4.190 C6.397,4.114 6.549,4.049 6.705,3.994 L6.705,3.994 ZM14.004,5.093 L7.505,5.093 C6.854,5.042 6.214,5.278 5.752,5.739 C5.291,6.200 5.054,6.840 5.106,7.491 L5.106,20.476 C5.054,21.126 5.291,21.766 5.752,22.228 C6.214,22.689 6.854,22.925 7.505,22.874 L20.503,22.874 C21.153,22.925 21.794,22.689 22.256,22.228 C22.717,21.766 22.954,21.126 22.902,20.476 L22.902,7.491 C22.954,6.840 22.717,6.200 22.256,5.739 C21.794,5.278 21.153,5.042 20.503,5.093 L14.004,5.093 ZM8.576,18.229 L11.426,15.375 C11.576,15.232 11.801,15.025 11.952,15.051 C12.256,15.070 12.542,15.204 12.751,15.426 C13.001,15.726 12.877,16.075 12.609,16.375 C11.759,17.199 10.935,18.049 10.109,18.872 C9.985,18.998 9.885,19.098 9.709,19.300 C9.866,19.326 10.025,19.342 10.183,19.350 L12.623,19.350 C13.273,19.350 13.573,19.650 13.573,20.124 C13.573,20.598 13.223,20.873 12.597,20.873 L8.052,20.873 C7.352,20.873 7.077,20.599 7.077,19.900 L7.077,15.305 C7.077,14.706 7.377,14.356 7.851,14.356 C8.325,14.356 8.601,14.731 8.601,15.330 C8.576,16.205 8.576,17.103 8.576,17.978 C8.529,18.025 8.529,18.075 8.581,18.224 L8.576,18.229 ZM19.249,9.762 C19.114,9.896 18.971,10.022 18.820,10.138 C17.970,10.962 17.145,11.811 16.321,12.635 C15.892,13.063 15.471,13.084 15.147,12.711 C15.000,12.547 14.930,12.330 14.954,12.112 C14.978,11.894 15.093,11.697 15.271,11.569 C16.196,10.620 17.146,9.695 18.170,8.672 C17.870,8.646 17.696,8.646 17.545,8.646 C16.721,8.646 15.871,8.646 15.045,8.621 C14.835,8.639 14.627,8.564 14.478,8.414 C14.328,8.265 14.252,8.057 14.271,7.847 C14.280,7.645 14.369,7.454 14.520,7.318 C14.670,7.182 14.868,7.111 15.071,7.122 C16.704,7.098 18.337,7.098 19.970,7.122 C20.192,7.111 20.408,7.195 20.565,7.352 C20.722,7.509 20.805,7.725 20.794,7.947 C20.820,9.562 20.820,11.177 20.794,12.792 C20.815,13.012 20.738,13.230 20.585,13.388 C20.431,13.547 20.215,13.630 19.994,13.615 C19.544,13.591 19.269,13.266 19.269,12.716 C19.253,11.756 19.253,10.807 19.253,9.758 L19.249,9.762 Z"/>
</svg>
