<svg 
 xmlns="http://www.w3.org/2000/svg"
 xmlns:xlink="http://www.w3.org/1999/xlink"
 width="428.5px" height="191.5px">
<path fill-rule="evenodd"  fill="rgb(0, 65, 87)"
 d="M0.500,9.500 L0.500,50.500 L8.500,58.500 L8.500,133.500 L0.500,145.500 L0.500,183.500 L7.500,190.500 L410.500,190.500 L427.500,173.500 L427.500,19.500 L205.500,19.500 L176.500,0.500 L8.500,0.500 L0.500,9.500 Z"/>
<path fill-rule="evenodd"  stroke="rgb(0, 209, 254)" stroke-width="1px" stroke-linecap="butt" stroke-linejoin="miter" fill="none"
 d="M0.500,9.500 L0.500,50.500 L8.500,58.500 L8.500,133.500 L0.500,145.500 L0.500,183.500 L7.500,190.500 L410.500,190.500 L427.500,173.500 L427.500,19.500 L205.500,19.500 L176.500,0.500 L8.500,0.500 L0.500,9.500 Z"/>
<path fill-rule="evenodd"  fill="rgb(234, 255, 0)"
 d="M0.500,54.500 L6.500,61.500 L6.500,129.500 L0.500,139.500 L0.500,54.500 Z"/>
</svg>
