<svg 
 xmlns="http://www.w3.org/2000/svg"
 xmlns:xlink="http://www.w3.org/1999/xlink"
 width="32px" height="42px">
<path fill-rule="evenodd"  fill="rgb(0, 244, 46)"
 d="M15.999,0.723 C7.563,0.723 0.725,7.500 0.725,15.859 C0.725,24.218 15.999,41.275 15.999,41.275 C15.999,41.275 31.272,24.218 31.272,15.858 C31.272,7.500 24.434,0.723 15.999,0.723 L15.999,0.723 Z"/>
<path fill-rule="evenodd"  fill="rgb(255, 255, 255)"
 d="M16.000,2.897 C22.828,2.897 28.364,8.408 28.364,15.207 C28.364,22.006 22.828,27.517 16.000,27.517 C9.172,27.517 3.636,22.006 3.636,15.207 C3.636,8.408 9.172,2.897 16.000,2.897 Z"/>
<path fill-rule="evenodd"  fill="rgb(0, 244, 46)"
 d="M13.000,17.738 L11.193,17.738 L11.193,15.451 L9.454,15.114 L9.454,22.448 L11.193,21.842 L11.193,19.286 L14.004,19.286 L15.542,17.200 L13.535,16.124 L13.000,17.738 ZM22.099,18.209 L26.180,15.585 L13.468,7.243 L11.996,7.243 L9.989,10.405 L9.989,11.482 L21.162,18.277 L22.099,18.277 L22.099,18.209 ZM20.560,18.747 L10.926,12.491 L9.922,13.567 L21.096,20.362 L22.099,20.362 L22.634,19.824 L23.169,18.277 C23.169,18.277 21.698,19.353 21.631,19.353 C21.029,18.949 20.560,18.747 20.560,18.747 L20.560,18.747 Z"/>
</svg>
