<svg 
 xmlns="http://www.w3.org/2000/svg"
 xmlns:xlink="http://www.w3.org/1999/xlink"
 width="42px" height="56px">
<path fill-rule="evenodd"  fill="rgb(0, 244, 46)"
 d="M20.998,-0.001 C9.400,-0.001 -0.002,9.357 -0.002,20.901 C-0.002,32.444 20.998,55.999 20.998,55.999 C20.998,55.999 41.999,32.444 41.999,20.900 C41.999,9.357 32.597,-0.001 20.998,-0.001 L20.998,-0.001 Z"/>
<path fill-rule="evenodd"  fill="rgb(255, 255, 255)"
 d="M21.000,3.000 C30.389,3.000 38.000,10.611 38.000,20.000 C38.000,29.389 30.389,37.000 21.000,37.000 C11.611,37.000 4.000,29.389 4.000,20.000 C4.000,10.611 11.611,3.000 21.000,3.000 Z"/>
<path fill-rule="evenodd"  fill="rgb(0, 244, 46)"
 d="M16.875,23.496 L14.391,23.496 L14.391,20.337 L11.999,19.872 L11.999,29.999 L14.391,29.163 L14.391,25.633 L18.255,25.633 L20.371,22.752 L17.611,21.266 L16.875,23.496 ZM29.386,24.146 L34.998,20.523 L17.519,9.002 L15.495,9.002 L12.735,13.369 L12.735,14.856 L28.098,24.239 L29.386,24.239 L29.386,24.146 ZM27.270,24.889 L14.023,16.249 L12.643,17.736 L28.007,27.119 L29.386,27.119 L30.122,26.376 L30.858,24.239 C30.858,24.239 28.834,25.726 28.742,25.726 C27.914,25.168 27.270,24.889 27.270,24.889 L27.270,24.889 Z"/>
</svg>
