<svg 
 xmlns="http://www.w3.org/2000/svg"
 xmlns:xlink="http://www.w3.org/1999/xlink"
 width="312px" height="195px">
<path fill-rule="evenodd"  stroke="rgb(0, 167, 232)" stroke-width="2px" stroke-linecap="butt" stroke-linejoin="miter" opacity="0.8" fill="none"
 d="M2.000,2.000 L308.000,2.000 L308.000,191.000 L2.000,191.000 L2.000,2.000 Z"/>
<path fill-rule="evenodd"  stroke="rgb(0, 183, 255)" stroke-width="4px" stroke-linecap="butt" stroke-linejoin="miter" fill="none"
 d="M24.000,191.000 C8.457,191.000 2.000,191.000 2.000,191.000 C2.000,191.000 2.000,184.750 2.000,169.000 M2.000,24.264 C2.000,9.765 2.000,2.000 2.000,2.000 C2.000,2.000 8.871,2.000 24.138,2.000 M286.000,2.000 C300.848,2.000 308.000,2.000 308.000,2.000 C308.000,2.000 308.000,6.483 308.000,24.000 M308.000,169.000 C308.000,183.627 308.000,191.000 308.000,191.000 C308.000,191.000 305.213,191.000 286.000,191.000 "/>
</svg>
