<svg 
 xmlns="http://www.w3.org/2000/svg"
 xmlns:xlink="http://www.w3.org/1999/xlink"
 width="81px" height="81px">
<path fill-rule="evenodd"  stroke="rgb(239, 78, 34)" stroke-width="6px" stroke-linecap="butt" stroke-linejoin="miter" fill="none"
 d="M54.716,23.284 C63.396,31.963 63.396,46.036 54.716,54.716 M23.284,54.716 C14.604,46.036 14.604,31.963 23.284,23.284 "/>
<path fill-rule="evenodd"  opacity="0.2" fill="rgb(239, 78, 34)"
 d="M39.000,0.977 C59.999,0.977 77.023,18.001 77.023,39.000 C77.023,59.999 59.999,77.023 39.000,77.023 C18.001,77.023 0.977,59.999 0.977,39.000 C0.977,18.001 18.001,0.977 39.000,0.977 Z"/>
<path fill-rule="evenodd"  fill="rgb(239, 78, 34)"
 d="M39.000,20.859 C48.698,20.859 56.561,28.714 56.561,38.404 C56.561,48.095 48.698,55.950 39.000,55.950 C29.302,55.950 21.439,48.095 21.439,38.404 C21.439,28.714 29.302,20.859 39.000,20.859 Z"/>
<path fill-rule="evenodd"  fill="rgb(255, 255, 255)"
 d="M39.090,30.811 L31.396,46.019 L39.090,42.398 L47.188,46.019 L39.090,30.811 Z"/>
<path fill-rule="evenodd"  fill="rgb(255, 255, 255)"
 d="M38.932,48.361 L35.437,41.407 L42.448,41.459 L38.932,48.361 Z"/>
</svg>
