<svg 
 xmlns="http://www.w3.org/2000/svg"
 xmlns:xlink="http://www.w3.org/1999/xlink"
 width="133px" height="133px">
<path fill-rule="evenodd"  stroke="rgb(239, 78, 34)" stroke-width="6px" stroke-linecap="butt" stroke-linejoin="miter" fill="none"
 d="M91.869,38.130 C106.710,52.970 106.710,77.030 91.869,91.870 M38.130,91.870 C23.289,77.030 23.289,52.970 38.130,38.130 "/>
<path fill-rule="evenodd"  opacity="0.2" fill="rgb(239, 78, 34)"
 d="M64.999,-0.000 C100.898,-0.000 129.999,29.101 129.999,65.000 C129.999,100.898 100.898,130.000 64.999,130.000 C29.101,130.000 -0.000,100.898 -0.000,65.000 C-0.000,29.101 29.101,-0.000 64.999,-0.000 Z"/>
<path fill-rule="evenodd"  fill="rgb(239, 78, 34)"
 d="M64.999,34.000 C81.568,34.000 94.999,47.431 94.999,64.000 C94.999,80.568 81.568,94.000 64.999,94.000 C48.431,94.000 34.999,80.568 34.999,64.000 C34.999,47.431 48.431,34.000 64.999,34.000 Z"/>
<path fill-rule="evenodd"  fill="rgb(255, 255, 255)"
 d="M65.153,51.000 L52.000,77.000 L65.153,70.809 L79.000,77.000 L65.153,51.000 Z"/>
<path fill-rule="evenodd"  fill="rgb(255, 255, 255)"
 d="M64.883,81.005 L58.908,69.116 L70.896,69.204 L64.883,81.005 Z"/>
</svg>
