<svg 
 xmlns="http://www.w3.org/2000/svg"
 xmlns:xlink="http://www.w3.org/1999/xlink"
 width="42px" height="56px">
<path fill-rule="evenodd"  fill="rgb(32, 242, 245)"
 d="M20.998,-0.001 C9.400,-0.001 -0.002,9.357 -0.002,20.901 C-0.002,32.444 20.998,55.999 20.998,55.999 C20.998,55.999 41.999,32.444 41.999,20.900 C41.999,9.357 32.597,-0.001 20.998,-0.001 L20.998,-0.001 Z"/>
<path fill-rule="evenodd"  fill="rgb(255, 255, 255)"
 d="M21.000,3.000 C30.389,3.000 38.000,10.611 38.000,20.000 C38.000,29.389 30.389,37.000 21.000,37.000 C11.611,37.000 4.000,29.389 4.000,20.000 C4.000,10.611 11.611,3.000 21.000,3.000 Z"/>
<path fill-rule="evenodd"  fill="rgb(32, 242, 245)"
 d="M31.654,28.137 L30.580,28.137 L30.580,14.814 C30.579,14.456 30.387,14.124 30.076,13.945 L24.623,10.764 C24.312,10.584 23.928,10.584 23.617,10.763 C23.305,10.943 23.113,11.274 23.112,11.634 L23.112,28.137 L21.964,28.137 L21.964,9.016 C21.963,8.679 21.793,8.364 21.512,8.178 C21.230,7.992 20.874,7.960 20.563,8.091 L12.036,11.751 C11.667,11.910 11.427,12.273 11.427,12.676 L11.427,28.137 L10.356,28.137 C10.160,28.137 10.000,28.297 10.000,28.494 L10.000,29.654 C10.000,29.851 10.160,30.010 10.356,30.010 L31.654,30.010 C31.851,30.010 32.010,29.851 32.010,29.654 L32.010,28.494 C32.010,28.297 31.851,28.137 31.654,28.137 L31.654,28.137 ZM25.890,14.368 C25.890,14.273 25.927,14.182 25.994,14.115 C26.060,14.048 26.151,14.010 26.245,14.010 L27.379,14.010 C27.575,14.010 27.735,14.170 27.735,14.366 L27.735,15.499 C27.735,15.594 27.698,15.685 27.631,15.752 C27.564,15.819 27.473,15.857 27.379,15.857 L26.245,15.857 C26.048,15.857 25.889,15.697 25.889,15.500 L25.889,14.368 L25.890,14.368 ZM25.890,17.220 C25.890,17.024 26.049,16.864 26.245,16.864 L27.379,16.864 C27.575,16.864 27.735,17.023 27.735,17.220 L27.735,18.353 C27.735,18.550 27.575,18.709 27.379,18.709 L26.245,18.709 C26.048,18.709 25.889,18.550 25.889,18.353 L25.889,17.220 L25.890,17.220 ZM25.890,20.072 C25.890,19.876 26.049,19.717 26.245,19.716 L27.379,19.716 C27.575,19.716 27.735,19.876 27.735,20.072 L27.735,21.205 C27.735,21.402 27.575,21.562 27.379,21.562 L26.245,21.562 C26.048,21.562 25.889,21.402 25.889,21.205 L25.889,20.072 L25.890,20.072 ZM25.890,22.925 C25.890,22.728 26.049,22.568 26.247,22.568 L27.380,22.568 C27.577,22.568 27.736,22.728 27.736,22.925 L27.736,24.058 C27.736,24.254 27.577,24.414 27.380,24.414 L26.247,24.414 C26.049,24.414 25.890,24.254 25.890,24.058 L25.890,22.925 ZM25.890,25.777 C25.890,25.580 26.049,25.421 26.247,25.421 L27.380,25.421 C27.577,25.421 27.736,25.580 27.736,25.777 L27.736,26.910 C27.737,27.005 27.699,27.097 27.632,27.164 C27.565,27.232 27.473,27.269 27.379,27.269 L26.245,27.269 C26.048,27.269 25.889,27.109 25.889,26.913 L25.889,25.780 L25.890,25.777 ZM17.477,11.514 C17.476,11.419 17.514,11.328 17.580,11.261 C17.647,11.194 17.738,11.156 17.833,11.156 L18.966,11.156 C19.162,11.158 19.320,11.318 19.319,11.514 L19.319,12.647 C19.319,12.741 19.281,12.832 19.215,12.899 C19.148,12.966 19.057,13.003 18.963,13.003 L17.829,13.003 C17.632,13.003 17.473,12.844 17.473,12.647 L17.473,11.514 L17.477,11.514 ZM17.477,14.366 C17.477,14.170 17.636,14.010 17.833,14.010 L18.966,14.010 C19.162,14.012 19.320,14.172 19.319,14.368 L19.319,15.500 C19.319,15.697 19.159,15.857 18.963,15.857 L17.829,15.857 C17.632,15.857 17.473,15.697 17.473,15.500 L17.473,14.368 L17.477,14.366 ZM17.477,17.219 C17.477,17.022 17.636,16.863 17.833,16.863 L18.966,16.863 C19.162,16.865 19.320,17.024 19.319,17.220 L19.319,18.353 C19.319,18.549 19.161,18.708 18.965,18.709 L17.832,18.709 C17.635,18.709 17.475,18.550 17.475,18.353 L17.475,17.220 L17.477,17.219 ZM17.477,20.071 C17.477,19.875 17.637,19.716 17.833,19.716 L18.966,19.716 C19.162,19.718 19.319,19.877 19.319,20.072 L19.319,21.205 C19.319,21.402 19.159,21.562 18.963,21.562 L17.829,21.562 C17.632,21.562 17.473,21.402 17.473,21.205 L17.473,20.072 L17.477,20.071 ZM17.477,22.924 C17.477,22.727 17.636,22.567 17.833,22.567 L18.966,22.567 C19.163,22.569 19.320,22.730 19.319,22.926 L19.319,24.059 C19.319,24.256 19.159,24.415 18.963,24.415 L17.829,24.415 C17.632,24.415 17.473,24.256 17.473,24.059 L17.473,22.926 L17.477,22.924 ZM17.477,25.776 C17.477,25.579 17.636,25.420 17.833,25.420 L18.966,25.420 C19.163,25.422 19.320,25.582 19.319,25.778 L19.319,26.911 C19.320,27.108 19.162,27.268 18.965,27.269 L17.832,27.269 C17.635,27.269 17.475,27.109 17.475,26.913 L17.475,25.780 L17.477,25.776 ZM14.044,14.368 C14.044,14.171 14.203,14.012 14.400,14.012 L15.534,14.012 C15.730,14.012 15.890,14.171 15.890,14.368 L15.890,15.500 C15.890,15.697 15.730,15.857 15.534,15.857 L14.400,15.857 C14.203,15.857 14.044,15.697 14.044,15.500 L14.044,14.368 ZM14.044,17.220 C14.044,17.023 14.203,16.864 14.400,16.864 L15.534,16.864 C15.730,16.864 15.890,17.023 15.890,17.220 L15.890,18.353 C15.890,18.448 15.852,18.538 15.785,18.605 C15.718,18.672 15.627,18.709 15.532,18.709 L14.399,18.709 C14.202,18.709 14.042,18.550 14.042,18.353 L14.042,17.220 L14.044,17.220 ZM14.044,20.072 C14.044,19.876 14.203,19.716 14.400,19.716 L15.534,19.716 C15.730,19.716 15.890,19.876 15.890,20.072 L15.890,21.205 C15.890,21.402 15.730,21.562 15.534,21.562 L14.400,21.562 C14.203,21.562 14.044,21.402 14.044,21.205 L14.044,20.072 ZM14.044,22.925 C14.044,22.728 14.203,22.568 14.400,22.568 L15.534,22.568 C15.730,22.568 15.890,22.728 15.890,22.925 L15.890,24.058 C15.890,24.254 15.730,24.414 15.534,24.414 L14.400,24.414 C14.203,24.414 14.044,24.254 14.044,24.058 L14.044,22.925 ZM14.044,25.777 C14.044,25.580 14.203,25.421 14.400,25.421 L15.534,25.421 C15.730,25.421 15.890,25.580 15.890,25.777 L15.890,26.910 C15.891,27.005 15.853,27.097 15.786,27.164 C15.719,27.232 15.627,27.269 15.532,27.269 L14.399,27.269 C14.202,27.269 14.042,27.109 14.042,26.913 L14.042,25.780 L14.044,25.777 Z"/>
</svg>
