<svg 
 xmlns="http://www.w3.org/2000/svg"
 xmlns:xlink="http://www.w3.org/1999/xlink"
 width="32px" height="42px">
<path fill-rule="evenodd"  fill="rgb(32, 242, 245)"
 d="M15.999,0.723 C7.563,0.723 0.726,7.500 0.726,15.859 C0.726,24.218 15.999,41.275 15.999,41.275 C15.999,41.275 31.272,24.218 31.272,15.858 C31.272,7.500 24.434,0.723 15.999,0.723 L15.999,0.723 Z"/>
<path fill-rule="evenodd"  fill="rgb(255, 255, 255)"
 d="M16.000,2.897 C22.828,2.897 28.364,8.408 28.364,15.207 C28.364,22.006 22.828,27.517 16.000,27.517 C9.172,27.517 3.636,22.006 3.636,15.207 C3.636,8.408 9.172,2.897 16.000,2.897 Z"/>
<path fill-rule="evenodd"  fill="rgb(32, 242, 245)"
 d="M23.748,21.100 L22.967,21.100 L22.967,11.452 C22.966,11.192 22.827,10.952 22.601,10.822 L18.635,8.519 C18.409,8.388 18.130,8.388 17.903,8.518 C17.676,8.648 17.537,8.888 17.536,9.148 L17.536,21.100 L16.701,21.100 L16.701,7.253 C16.700,7.009 16.577,6.781 16.372,6.646 C16.167,6.512 15.908,6.488 15.682,6.583 L9.481,9.233 C9.212,9.348 9.038,9.612 9.038,9.903 L9.038,21.100 L8.259,21.100 C8.116,21.100 8.000,21.215 8.000,21.358 L8.000,22.198 C8.000,22.340 8.116,22.456 8.259,22.456 L23.748,22.456 C23.891,22.456 24.007,22.340 24.007,22.198 L24.007,21.358 C24.007,21.215 23.891,21.100 23.748,21.100 L23.748,21.100 ZM19.556,11.128 C19.556,11.060 19.583,10.994 19.632,10.946 C19.680,10.897 19.746,10.870 19.815,10.869 L20.639,10.869 C20.782,10.869 20.898,10.985 20.898,11.127 L20.898,11.948 C20.898,12.016 20.871,12.082 20.822,12.131 C20.774,12.179 20.708,12.207 20.639,12.207 L19.815,12.207 C19.671,12.207 19.555,12.091 19.555,11.949 L19.555,11.128 L19.556,11.128 ZM19.556,13.194 C19.556,13.052 19.672,12.936 19.815,12.936 L20.639,12.936 C20.782,12.936 20.898,13.051 20.898,13.194 L20.898,14.014 C20.898,14.157 20.782,14.272 20.639,14.272 L19.815,14.272 C19.671,14.272 19.555,14.157 19.555,14.014 L19.555,13.194 L19.556,13.194 ZM19.556,15.259 C19.556,15.117 19.672,15.002 19.815,15.001 L20.639,15.001 C20.782,15.001 20.898,15.117 20.898,15.259 L20.898,16.080 C20.898,16.222 20.782,16.338 20.639,16.338 L19.815,16.338 C19.671,16.338 19.555,16.222 19.555,16.080 L19.555,15.259 L19.556,15.259 ZM19.556,17.325 C19.556,17.182 19.672,17.067 19.816,17.067 L20.640,17.067 C20.783,17.067 20.899,17.182 20.899,17.325 L20.899,18.145 C20.899,18.288 20.783,18.403 20.640,18.403 L19.816,18.403 C19.672,18.403 19.556,18.288 19.556,18.145 L19.556,17.325 ZM19.556,19.390 C19.556,19.248 19.672,19.132 19.816,19.132 L20.640,19.132 C20.783,19.132 20.899,19.248 20.899,19.390 L20.899,20.211 C20.900,20.280 20.872,20.346 20.823,20.395 C20.774,20.444 20.708,20.471 20.639,20.471 L19.815,20.471 C19.671,20.471 19.555,20.355 19.555,20.213 L19.555,19.392 L19.556,19.390 ZM13.438,9.062 C13.437,8.993 13.464,8.927 13.513,8.879 C13.562,8.830 13.628,8.803 13.697,8.803 L14.521,8.803 C14.663,8.804 14.778,8.920 14.777,9.062 L14.777,9.882 C14.777,9.951 14.750,10.016 14.701,10.065 C14.653,10.113 14.587,10.140 14.518,10.140 L13.694,10.140 C13.551,10.140 13.435,10.025 13.435,9.882 L13.435,9.062 L13.438,9.062 ZM13.438,11.127 C13.438,10.985 13.554,10.869 13.697,10.869 L14.521,10.869 C14.663,10.871 14.778,10.986 14.777,11.128 L14.777,11.949 C14.777,12.091 14.661,12.207 14.518,12.207 L13.694,12.207 C13.551,12.207 13.435,12.091 13.435,11.949 L13.435,11.128 L13.438,11.127 ZM13.438,13.193 C13.438,13.050 13.554,12.935 13.697,12.935 L14.521,12.935 C14.663,12.936 14.778,13.052 14.777,13.194 L14.777,14.014 C14.777,14.156 14.662,14.271 14.520,14.272 L13.696,14.272 C13.553,14.272 13.437,14.157 13.437,14.014 L13.437,13.194 L13.438,13.193 ZM13.438,15.258 C13.438,15.116 13.554,15.001 13.697,15.001 L14.521,15.001 C14.663,15.003 14.777,15.118 14.777,15.259 L14.777,16.080 C14.777,16.222 14.661,16.338 14.518,16.338 L13.694,16.338 C13.551,16.338 13.435,16.222 13.435,16.080 L13.435,15.259 L13.438,15.258 ZM13.438,17.324 C13.438,17.182 13.554,17.066 13.697,17.066 L14.521,17.066 C14.664,17.067 14.778,17.184 14.777,17.326 L14.777,18.146 C14.777,18.289 14.661,18.404 14.518,18.404 L13.694,18.404 C13.551,18.404 13.435,18.289 13.435,18.146 L13.435,17.326 L13.438,17.324 ZM13.438,19.389 C13.438,19.247 13.554,19.132 13.697,19.132 L14.521,19.132 C14.664,19.133 14.778,19.249 14.777,19.391 L14.777,20.212 C14.778,20.354 14.663,20.470 14.520,20.471 L13.696,20.471 C13.553,20.471 13.437,20.355 13.437,20.213 L13.437,19.392 L13.438,19.389 ZM10.941,11.128 C10.941,10.986 11.057,10.870 11.200,10.870 L12.024,10.870 C12.167,10.870 12.283,10.986 12.283,11.128 L12.283,11.949 C12.283,12.091 12.167,12.207 12.024,12.207 L11.200,12.207 C11.057,12.207 10.941,12.091 10.941,11.949 L10.941,11.128 ZM10.941,13.194 C10.941,13.051 11.057,12.936 11.200,12.936 L12.024,12.936 C12.167,12.936 12.283,13.051 12.283,13.194 L12.283,14.014 C12.283,14.083 12.256,14.149 12.207,14.197 C12.158,14.245 12.092,14.272 12.023,14.272 L11.199,14.272 C11.056,14.272 10.940,14.157 10.940,14.014 L10.940,13.194 L10.941,13.194 ZM10.941,15.259 C10.941,15.117 11.057,15.001 11.200,15.001 L12.024,15.001 C12.167,15.001 12.283,15.117 12.283,15.259 L12.283,16.080 C12.283,16.222 12.167,16.338 12.024,16.338 L11.200,16.338 C11.057,16.338 10.941,16.222 10.941,16.080 L10.941,15.259 ZM10.941,17.325 C10.941,17.182 11.057,17.067 11.200,17.067 L12.024,17.067 C12.167,17.067 12.283,17.182 12.283,17.325 L12.283,18.145 C12.283,18.288 12.167,18.403 12.024,18.403 L11.200,18.403 C11.057,18.403 10.941,18.288 10.941,18.145 L10.941,17.325 ZM10.941,19.390 C10.941,19.248 11.057,19.132 11.200,19.132 L12.024,19.132 C12.167,19.132 12.283,19.248 12.283,19.390 L12.283,20.211 C12.284,20.280 12.257,20.346 12.208,20.395 C12.159,20.444 12.093,20.471 12.023,20.471 L11.199,20.471 C11.056,20.471 10.940,20.355 10.940,20.213 L10.940,19.392 L10.941,19.390 Z"/>
</svg>
