<svg 
 xmlns="http://www.w3.org/2000/svg"
 xmlns:xlink="http://www.w3.org/1999/xlink"
 width="42px" height="56px">
<path fill-rule="evenodd"  fill="rgb(204, 255, 0)"
 d="M20.998,-0.001 C9.400,-0.001 -0.002,9.357 -0.002,20.901 C-0.002,32.444 20.998,55.999 20.998,55.999 C20.998,55.999 41.999,32.444 41.999,20.900 C41.999,9.357 32.597,-0.001 20.998,-0.001 L20.998,-0.001 Z"/>
<path fill-rule="evenodd"  fill="rgb(255, 255, 255)"
 d="M21.000,3.000 C30.389,3.000 38.000,10.611 38.000,20.000 C38.000,29.389 30.389,37.000 21.000,37.000 C11.611,37.000 4.000,29.389 4.000,20.000 C4.000,10.611 11.611,3.000 21.000,3.000 Z"/>
<path fill-rule="evenodd"  fill="rgb(204, 255, 0)"
 d="M29.768,25.207 C29.829,25.430 29.882,25.712 29.927,26.055 C29.973,26.397 29.996,26.743 29.996,27.093 C29.996,27.443 29.969,27.773 29.916,28.084 C29.863,28.394 29.783,28.629 29.677,28.788 C29.601,28.899 29.406,29.007 29.095,29.110 C28.783,29.213 28.392,29.309 27.920,29.396 C27.449,29.484 26.924,29.568 26.346,29.647 C25.768,29.727 25.190,29.794 24.612,29.850 C24.034,29.906 23.471,29.945 22.924,29.969 C22.377,29.993 21.897,30.005 21.487,30.005 C21.076,30.005 20.601,29.989 20.061,29.957 C19.521,29.926 18.966,29.886 18.396,29.838 C17.825,29.790 17.259,29.735 16.696,29.671 C16.133,29.607 15.620,29.536 15.156,29.456 C14.692,29.377 14.297,29.301 13.970,29.229 C13.643,29.158 13.441,29.082 13.365,29.002 C13.228,28.891 13.122,28.537 13.046,27.940 C12.970,27.344 13.000,26.568 13.137,25.613 C13.213,25.072 13.422,24.658 13.765,24.372 C14.107,24.085 14.502,23.858 14.951,23.691 C15.399,23.524 15.871,23.377 16.365,23.250 C16.860,23.123 17.289,22.931 17.654,22.677 C17.943,22.486 18.167,22.303 18.327,22.128 C18.487,21.953 18.601,21.778 18.669,21.603 C18.738,21.428 18.772,21.245 18.772,21.054 C18.772,20.863 18.764,20.648 18.749,20.409 C18.719,20.059 18.608,19.788 18.418,19.598 C18.228,19.407 18.019,19.208 17.791,19.001 C17.669,18.905 17.567,18.766 17.483,18.583 C17.400,18.400 17.320,18.213 17.244,18.022 C17.167,17.815 17.099,17.584 17.038,17.330 C17.008,17.298 16.962,17.242 16.901,17.163 C16.856,17.083 16.803,16.976 16.742,16.840 C16.681,16.705 16.612,16.510 16.536,16.255 C16.460,16.001 16.411,15.774 16.388,15.575 C16.365,15.376 16.369,15.205 16.399,15.062 C16.415,14.887 16.453,14.736 16.514,14.608 C16.514,14.052 16.544,13.494 16.605,12.938 C16.666,12.476 16.764,11.975 16.901,11.434 C17.038,10.893 17.259,10.407 17.563,9.977 C17.837,9.580 18.133,9.249 18.453,8.987 C18.772,8.724 19.103,8.522 19.445,8.378 C19.787,8.235 20.133,8.135 20.483,8.080 C20.833,8.024 21.167,7.996 21.487,7.996 C21.837,8.028 22.122,8.072 22.342,8.127 C22.563,8.183 22.741,8.251 22.878,8.331 C23.015,8.410 23.133,8.505 23.232,8.617 C23.331,8.728 23.433,8.840 23.540,8.951 L23.973,8.951 C24.110,8.951 24.243,8.971 24.373,9.011 C24.502,9.051 24.631,9.126 24.760,9.238 C24.890,9.349 25.030,9.508 25.182,9.715 C25.532,10.192 25.791,10.714 25.958,11.279 C26.125,11.843 26.247,12.381 26.323,12.890 C26.399,13.479 26.445,14.060 26.460,14.632 C26.490,14.712 26.513,14.807 26.528,14.919 C26.544,15.030 26.555,15.165 26.563,15.325 C26.570,15.484 26.559,15.683 26.528,15.921 C26.498,16.240 26.452,16.490 26.391,16.673 C26.331,16.856 26.262,16.996 26.186,17.091 C26.110,17.202 26.026,17.282 25.935,17.330 C25.875,17.584 25.806,17.815 25.730,18.022 C25.654,18.213 25.574,18.400 25.490,18.583 C25.407,18.766 25.304,18.905 25.182,19.001 C24.924,19.223 24.711,19.410 24.544,19.562 C24.376,19.713 24.262,19.971 24.202,20.337 C24.156,20.560 24.141,20.783 24.156,21.006 C24.171,21.229 24.228,21.455 24.327,21.686 C24.426,21.917 24.585,22.136 24.806,22.343 C25.027,22.550 25.335,22.733 25.730,22.892 C26.080,23.035 26.464,23.166 26.882,23.286 C27.300,23.405 27.703,23.540 28.091,23.691 C28.479,23.842 28.825,24.038 29.129,24.276 C29.433,24.515 29.646,24.825 29.768,25.207 L29.768,25.207 ZM22.445,24.419 C22.490,24.324 22.494,24.224 22.456,24.121 C22.418,24.018 22.361,23.918 22.285,23.823 C22.209,23.727 22.118,23.624 22.011,23.512 L20.962,23.512 C20.856,23.624 20.772,23.727 20.711,23.823 C20.650,23.902 20.601,23.990 20.563,24.085 C20.525,24.181 20.529,24.268 20.574,24.348 C20.681,24.571 20.772,24.765 20.848,24.933 C20.924,25.100 21.008,25.231 21.099,25.326 C21.069,25.470 21.023,25.673 20.962,25.935 C20.901,26.198 20.844,26.468 20.791,26.747 C20.738,27.025 20.692,27.288 20.654,27.535 C20.616,27.781 20.597,27.968 20.597,28.095 C20.597,28.175 20.631,28.271 20.700,28.382 C20.768,28.493 20.848,28.609 20.939,28.728 C21.030,28.847 21.126,28.947 21.224,29.026 C21.323,29.106 21.411,29.146 21.487,29.146 C21.563,29.146 21.654,29.106 21.760,29.026 C21.867,28.947 21.970,28.855 22.069,28.752 C22.167,28.649 22.251,28.537 22.319,28.418 C22.388,28.298 22.422,28.199 22.422,28.119 C22.422,28.024 22.399,27.861 22.354,27.630 C22.308,27.399 22.258,27.141 22.205,26.854 C22.152,26.568 22.095,26.289 22.034,26.019 C21.973,25.748 21.920,25.533 21.875,25.374 C21.966,25.295 22.053,25.179 22.137,25.028 C22.221,24.877 22.323,24.674 22.445,24.419 L22.445,24.419 Z"/>
</svg>
