<svg 
 xmlns="http://www.w3.org/2000/svg"
 xmlns:xlink="http://www.w3.org/1999/xlink"
 width="30px" height="40px">
<path fill-rule="evenodd"  fill="rgb(204, 255, 0)"
 d="M14.999,-0.008 C6.714,-0.008 -0.002,6.679 -0.002,14.928 C-0.002,23.176 14.999,40.007 14.999,40.007 C14.999,40.007 29.999,23.176 29.999,14.927 C29.999,6.679 23.284,-0.008 14.999,-0.008 L14.999,-0.008 Z"/>
<path fill-rule="evenodd"  fill="rgb(255, 255, 255)"
 d="M15.000,2.147 C21.705,2.147 27.140,7.580 27.140,14.283 C27.140,20.985 21.705,26.418 15.000,26.418 C8.295,26.418 2.860,20.985 2.860,14.283 C2.860,7.580 8.295,2.147 15.000,2.147 Z"/>
<path fill-rule="evenodd"  fill="rgb(204, 255, 0)"
 d="M21.263,18.004 C21.306,18.164 21.344,18.365 21.377,18.610 C21.409,18.854 21.426,19.102 21.426,19.352 C21.426,19.602 21.407,19.838 21.369,20.060 C21.331,20.281 21.274,20.449 21.198,20.563 C21.143,20.643 21.005,20.719 20.782,20.793 C20.559,20.867 20.280,20.935 19.943,20.998 C19.606,21.060 19.231,21.120 18.819,21.177 C18.406,21.234 17.993,21.282 17.580,21.322 C17.167,21.362 16.765,21.390 16.374,21.407 C15.983,21.424 15.641,21.433 15.348,21.433 C15.054,21.433 14.715,21.421 14.329,21.399 C13.944,21.376 13.547,21.347 13.140,21.313 C12.732,21.279 12.328,21.239 11.926,21.194 C11.524,21.148 11.157,21.097 10.826,21.040 C10.494,20.984 10.212,20.930 9.978,20.878 C9.745,20.827 9.601,20.773 9.547,20.716 C9.449,20.637 9.373,20.384 9.318,19.957 C9.264,19.531 9.286,18.977 9.384,18.294 C9.438,17.908 9.587,17.612 9.832,17.407 C10.076,17.203 10.359,17.041 10.679,16.921 C11.000,16.802 11.336,16.697 11.689,16.606 C12.043,16.515 12.349,16.378 12.610,16.196 C12.816,16.060 12.977,15.929 13.091,15.804 C13.205,15.679 13.286,15.554 13.335,15.429 C13.384,15.304 13.409,15.173 13.409,15.036 C13.409,14.900 13.403,14.747 13.392,14.576 C13.371,14.326 13.292,14.133 13.156,13.996 C13.020,13.860 12.871,13.717 12.708,13.570 C12.621,13.501 12.548,13.402 12.488,13.271 C12.428,13.140 12.371,13.007 12.317,12.870 C12.262,12.723 12.214,12.558 12.170,12.376 C12.148,12.353 12.116,12.313 12.072,12.256 C12.040,12.199 12.002,12.123 11.958,12.026 C11.915,11.929 11.866,11.790 11.812,11.608 C11.757,11.426 11.722,11.264 11.706,11.122 C11.689,10.980 11.692,10.858 11.714,10.755 C11.725,10.630 11.752,10.522 11.795,10.431 C11.795,10.033 11.817,9.635 11.861,9.237 C11.904,8.908 11.975,8.549 12.072,8.163 C12.170,7.776 12.328,7.429 12.545,7.122 C12.741,6.838 12.952,6.602 13.180,6.414 C13.409,6.227 13.645,6.082 13.889,5.979 C14.134,5.877 14.381,5.806 14.631,5.766 C14.881,5.726 15.120,5.707 15.348,5.707 C15.598,5.729 15.801,5.761 15.959,5.800 C16.116,5.840 16.244,5.889 16.342,5.945 C16.439,6.002 16.524,6.070 16.594,6.150 C16.665,6.230 16.738,6.309 16.814,6.389 L17.124,6.389 C17.222,6.389 17.317,6.403 17.409,6.431 C17.501,6.460 17.594,6.514 17.686,6.594 C17.778,6.673 17.879,6.787 17.988,6.935 C18.237,7.276 18.422,7.648 18.542,8.052 C18.661,8.455 18.748,8.839 18.802,9.203 C18.857,9.624 18.889,10.039 18.900,10.448 C18.922,10.505 18.938,10.573 18.949,10.653 C18.960,10.733 18.968,10.829 18.973,10.943 C18.979,11.057 18.971,11.199 18.949,11.369 C18.927,11.597 18.895,11.776 18.851,11.907 C18.808,12.037 18.759,12.137 18.704,12.205 C18.650,12.285 18.590,12.342 18.525,12.376 C18.482,12.558 18.433,12.723 18.379,12.870 C18.324,13.007 18.267,13.140 18.207,13.271 C18.148,13.402 18.074,13.501 17.988,13.570 C17.803,13.729 17.651,13.862 17.531,13.970 C17.412,14.078 17.330,14.263 17.287,14.525 C17.254,14.684 17.243,14.843 17.254,15.002 C17.265,15.162 17.306,15.324 17.376,15.489 C17.447,15.653 17.561,15.810 17.719,15.958 C17.876,16.105 18.096,16.236 18.379,16.350 C18.628,16.452 18.903,16.546 19.202,16.631 C19.500,16.717 19.788,16.813 20.065,16.921 C20.342,17.029 20.589,17.169 20.807,17.339 C21.024,17.510 21.176,17.731 21.263,18.004 L21.263,18.004 ZM16.032,17.441 C16.065,17.373 16.067,17.302 16.040,17.228 C16.013,17.154 15.972,17.083 15.918,17.015 C15.864,16.947 15.799,16.873 15.722,16.793 L14.973,16.793 C14.897,16.873 14.837,16.947 14.794,17.015 C14.750,17.072 14.715,17.134 14.688,17.203 C14.661,17.271 14.663,17.334 14.696,17.390 C14.772,17.550 14.837,17.689 14.891,17.808 C14.946,17.928 15.005,18.021 15.071,18.090 C15.049,18.192 15.016,18.337 14.973,18.525 C14.929,18.712 14.889,18.906 14.851,19.104 C14.813,19.303 14.780,19.491 14.753,19.667 C14.726,19.844 14.712,19.977 14.712,20.068 C14.712,20.125 14.737,20.193 14.786,20.273 C14.834,20.353 14.891,20.435 14.957,20.520 C15.022,20.606 15.090,20.677 15.160,20.733 C15.231,20.790 15.293,20.819 15.348,20.819 C15.402,20.819 15.467,20.790 15.543,20.733 C15.619,20.677 15.693,20.611 15.763,20.537 C15.834,20.463 15.894,20.384 15.942,20.298 C15.991,20.213 16.016,20.142 16.016,20.085 C16.016,20.017 15.999,19.900 15.967,19.736 C15.934,19.571 15.899,19.386 15.861,19.181 C15.823,18.977 15.782,18.778 15.739,18.584 C15.695,18.391 15.657,18.237 15.625,18.124 C15.690,18.067 15.752,17.984 15.812,17.876 C15.872,17.768 15.945,17.623 16.032,17.441 L16.032,17.441 Z"/>
</svg>
