<svg 
 xmlns="http://www.w3.org/2000/svg"
 xmlns:xlink="http://www.w3.org/1999/xlink"
 width="380px" height="464px">
<path fill-rule="evenodd"  fill="rgb(130, 243, 250)"
 d="M20.998,-0.001 C9.399,-0.001 -0.003,9.357 -0.003,20.901 C-0.003,32.444 20.998,55.999 20.998,55.999 C20.998,55.999 41.999,32.444 41.999,20.900 C41.999,9.357 32.597,-0.001 20.998,-0.001 L20.998,-0.001 Z"/>
<path fill-rule="evenodd"  fill="rgb(255, 255, 255)"
 d="M21.000,3.000 C30.389,3.000 38.000,10.611 38.000,20.000 C38.000,29.389 30.389,37.000 21.000,37.000 C11.611,37.000 4.000,29.389 4.000,20.000 C4.000,10.611 11.611,3.000 21.000,3.000 Z"/>
<path fill-rule="evenodd"  fill="rgb(34, 252, 254)"
 d="M20.967,19.528 L20.967,28.293 L19.025,28.293 L19.025,7.983 L20.969,7.983 L20.969,9.448 L32.018,14.912 L20.967,19.528 ZM11.969,27.331 C11.969,28.582 15.643,29.598 20.173,29.598 C24.703,29.598 28.379,28.582 28.379,27.331 C28.379,26.428 26.464,25.649 23.691,25.285 L23.691,23.855 C28.128,24.338 31.330,25.712 31.332,27.331 C31.332,29.357 26.337,30.997 20.174,30.997 C14.010,30.997 9.013,29.357 9.013,27.331 C9.013,25.734 12.136,24.371 16.488,23.871 L16.488,25.306 C13.809,25.681 11.969,26.445 11.969,27.331 Z"/>
<path fill-rule="evenodd"  stroke="rgb(255, 0, 0)" stroke-width="2px" stroke-linecap="butt" stroke-linejoin="miter" fill="none"
 d="M145.000,378.000 L204.000,379.000 L285.000,433.000 L327.000,459.000 L377.000,454.000 "/>
</svg>
