<svg 
 xmlns="http://www.w3.org/2000/svg"
 xmlns:xlink="http://www.w3.org/1999/xlink"
 width="25px" height="26px">
<path fill-rule="evenodd"  fill="rgb(62, 190, 232)"
 d="M12.202,25.018 C5.461,25.018 -0.004,19.638 -0.004,13.000 C-0.004,6.361 5.461,0.982 12.202,0.982 C18.945,0.982 24.409,6.361 24.409,13.000 C24.409,19.638 18.945,25.018 12.202,25.018 ZM12.202,2.584 C6.369,2.584 1.623,7.257 1.623,13.000 C1.623,18.743 6.369,23.415 12.202,23.415 C18.035,23.415 22.781,18.743 22.781,13.000 C22.781,7.257 18.035,2.584 12.202,2.584 ZM15.458,17.006 L8.947,17.006 C8.498,17.006 8.134,16.647 8.134,16.205 L8.134,9.795 C8.134,9.353 8.498,8.994 8.947,8.994 L15.458,8.994 C15.907,8.994 16.271,9.353 16.271,9.795 L16.271,16.205 C16.271,16.647 15.907,17.006 15.458,17.006 Z"/>
</svg>
