<svg 
 xmlns="http://www.w3.org/2000/svg"
 xmlns:xlink="http://www.w3.org/1999/xlink"
 width="22px" height="24px">
<path fill-rule="evenodd"  fill="rgb(57, 164, 221)"
 d="M19.778,20.523 C19.669,20.718 19.469,20.838 19.251,20.839 C19.143,20.841 19.036,20.811 18.945,20.751 C18.653,20.577 18.552,20.194 18.718,19.892 C21.453,15.008 21.453,8.990 18.718,4.105 C18.552,3.803 18.653,3.420 18.945,3.246 C19.236,3.074 19.607,3.175 19.778,3.474 C22.732,8.749 22.732,15.248 19.778,20.523 ZM15.925,18.856 C15.818,18.857 15.712,18.829 15.619,18.774 C15.477,18.691 15.373,18.553 15.331,18.390 C15.288,18.228 15.310,18.055 15.392,17.909 C17.458,14.257 17.458,9.741 15.392,6.088 C15.310,5.942 15.288,5.769 15.331,5.607 C15.373,5.444 15.477,5.306 15.619,5.223 C15.912,5.052 16.284,5.156 16.452,5.457 C18.738,9.499 18.738,14.498 16.452,18.541 C16.343,18.735 16.143,18.855 15.925,18.856 ZM12.550,16.855 C12.442,16.853 12.337,16.823 12.244,16.766 C11.955,16.591 11.856,16.208 12.023,15.907 C13.387,13.491 13.387,10.506 12.023,8.090 C11.871,7.790 11.975,7.420 12.260,7.250 C12.544,7.081 12.907,7.173 13.083,7.458 C14.668,10.265 14.668,13.732 13.083,16.539 C12.973,16.735 12.770,16.855 12.550,16.855 ZM5.512,23.996 C2.468,23.996 -0.000,21.452 -0.000,18.313 L-0.000,5.684 C-0.000,2.545 2.468,0.001 5.512,0.001 C8.557,0.001 11.025,2.545 11.025,5.684 L11.025,18.313 C11.025,21.452 8.557,23.996 5.512,23.996 ZM9.800,5.684 C9.800,3.243 7.880,1.264 5.512,1.264 C3.145,1.264 1.225,3.243 1.225,5.684 L1.225,18.313 C1.225,20.755 3.145,22.734 5.512,22.734 C7.880,22.734 9.800,20.755 9.800,18.313 L9.800,5.684 ZM5.586,20.366 C4.351,20.366 3.350,19.334 3.350,18.061 C3.350,16.788 4.351,15.756 5.586,15.756 C6.821,15.756 7.822,16.788 7.822,18.061 C7.818,19.332 6.819,20.362 5.586,20.366 ZM5.586,17.050 L5.586,17.019 C5.028,17.019 4.575,17.485 4.575,18.061 C4.575,18.636 5.028,19.103 5.586,19.103 C6.144,19.103 6.597,18.636 6.597,18.061 C6.580,17.498 6.132,17.050 5.586,17.050 ZM5.586,14.278 C4.679,14.278 3.863,13.714 3.518,12.849 C3.174,11.985 3.370,10.992 4.014,10.335 C4.658,9.677 5.624,9.486 6.459,9.851 C7.293,10.216 7.832,11.064 7.822,11.999 C7.808,13.262 6.811,14.278 5.586,14.278 ZM6.309,11.245 C6.119,11.045 5.858,10.931 5.586,10.931 C5.031,10.932 4.580,11.393 4.576,11.965 C4.571,12.537 5.015,13.006 5.570,13.015 C6.125,13.024 6.583,12.570 6.597,11.999 C6.603,11.718 6.500,11.446 6.309,11.245 ZM5.586,8.210 C4.679,8.212 3.859,7.651 3.510,6.787 C3.162,5.924 3.352,4.929 3.992,4.267 C4.633,3.604 5.598,3.405 6.436,3.763 C7.275,4.120 7.822,4.963 7.822,5.899 C7.822,7.173 6.822,8.206 5.586,8.210 ZM6.305,5.154 C6.115,4.956 5.856,4.844 5.586,4.844 L5.586,4.857 C5.174,4.854 4.801,5.108 4.642,5.501 C4.483,5.893 4.569,6.346 4.861,6.646 C5.152,6.947 5.591,7.036 5.972,6.872 C6.352,6.708 6.599,6.324 6.597,5.899 C6.600,5.620 6.495,5.352 6.305,5.154 Z"/>
</svg>
