<svg 
 xmlns="http://www.w3.org/2000/svg"
 xmlns:xlink="http://www.w3.org/1999/xlink"
 width="26px" height="26px">
<path fill-rule="evenodd"  fill="rgb(57, 164, 221)"
 d="M12.998,-0.000 C20.178,-0.000 25.998,5.820 25.998,12.999 C25.998,20.179 20.178,25.999 12.998,25.999 C5.818,25.999 -0.002,20.179 -0.002,12.999 C-0.002,5.820 5.818,-0.000 12.998,-0.000 L12.998,-0.000 ZM12.998,1.950 C6.895,1.950 1.948,6.897 1.948,12.999 C1.948,19.102 6.895,24.049 12.998,24.049 C19.101,24.049 24.048,19.102 24.048,12.999 C24.048,6.897 19.101,1.950 12.998,1.950 L12.998,1.950 Z"/>
<path fill-rule="evenodd"  fill="rgb(57, 164, 221)"
 d="M9.000,7.000 L17.000,7.000 C18.105,7.000 19.000,7.895 19.000,9.000 L19.000,17.000 C19.000,18.105 18.105,19.000 17.000,19.000 L9.000,19.000 C7.895,19.000 7.000,18.105 7.000,17.000 L7.000,9.000 C7.000,7.895 7.895,7.000 9.000,7.000 Z"/>
</svg>
