<svg 
 xmlns="http://www.w3.org/2000/svg"
 xmlns:xlink="http://www.w3.org/1999/xlink"
 width="25px" height="26px">
<path fill-rule="evenodd"  fill="rgb(62, 190, 232)"
 d="M12.797,25.018 C6.055,25.018 0.590,19.638 0.590,13.000 C0.590,6.361 6.055,0.982 12.797,0.982 C19.539,0.982 25.003,6.361 25.003,13.000 C25.003,19.638 19.539,25.018 12.797,25.018 ZM12.797,2.584 C6.964,2.584 2.218,7.257 2.218,13.000 C2.218,18.743 6.964,23.415 12.797,23.415 C18.630,23.415 23.376,18.743 23.376,13.000 C23.376,7.257 18.630,2.584 12.797,2.584 ZM9.298,8.707 L18.021,13.428 L9.298,18.149 L9.298,8.707 Z"/>
</svg>
