<svg 
 xmlns="http://www.w3.org/2000/svg"
 xmlns:xlink="http://www.w3.org/1999/xlink"
 width="19px" height="17px">
<path fill-rule="evenodd"  fill="rgb(197, 243, 255)"
 d="M18.991,8.553 C19.009,8.588 19.007,8.631 18.986,8.664 L16.618,12.444 C16.599,12.474 16.567,12.493 16.532,12.494 C16.497,12.494 16.465,12.475 16.447,12.444 L14.077,8.667 C14.056,8.634 14.054,8.591 14.072,8.556 C14.090,8.522 14.125,8.500 14.162,8.500 L15.568,8.500 C15.571,7.008 15.084,5.561 14.189,4.403 C14.185,4.398 14.182,4.393 14.178,4.387 C13.564,3.595 12.778,2.969 11.887,2.560 C11.870,2.553 11.855,2.545 11.840,2.538 C11.690,2.472 11.539,2.414 11.384,2.361 C11.341,2.345 11.300,2.329 11.257,2.315 C11.121,2.271 10.983,2.235 10.844,2.202 C10.784,2.188 10.721,2.170 10.659,2.158 C10.519,2.128 10.374,2.106 10.231,2.087 C10.178,2.080 10.124,2.072 10.069,2.065 C9.894,2.047 9.717,2.036 9.536,2.036 C8.271,2.023 7.036,2.431 6.006,3.202 C5.798,3.358 5.539,3.420 5.288,3.372 C5.036,3.325 4.813,3.174 4.669,2.953 C4.365,2.490 4.471,1.857 4.907,1.531 C6.239,0.532 7.835,-0.005 9.471,-0.005 L9.492,-0.005 C9.529,-0.005 9.567,0.001 9.606,0.001 C9.816,0.005 10.027,0.014 10.240,0.035 C10.328,0.044 10.414,0.059 10.502,0.071 C10.629,0.087 10.756,0.097 10.882,0.121 C10.929,0.129 10.972,0.144 11.020,0.154 C11.114,0.172 11.206,0.199 11.301,0.222 C11.471,0.263 11.638,0.307 11.803,0.360 C11.874,0.382 11.941,0.408 12.010,0.432 C12.199,0.502 12.387,0.571 12.572,0.651 C12.604,0.666 12.636,0.683 12.667,0.697 C13.831,1.229 14.856,2.047 15.656,3.082 C15.671,3.101 15.685,3.120 15.698,3.139 C15.818,3.296 15.937,3.452 16.048,3.620 C16.062,3.641 16.071,3.665 16.084,3.689 C17.003,5.106 17.494,6.782 17.493,8.497 L18.900,8.497 C18.938,8.497 18.973,8.518 18.991,8.553 ZM4.918,8.443 C4.900,8.478 4.865,8.499 4.827,8.499 L3.418,8.499 C3.417,9.961 3.886,11.381 4.749,12.528 C4.773,12.559 4.796,12.594 4.820,12.625 C4.936,12.772 5.056,12.915 5.184,13.050 L5.203,13.072 C5.612,13.506 6.077,13.876 6.585,14.172 L6.606,14.183 C6.756,14.271 6.911,14.347 7.069,14.421 C7.099,14.435 7.129,14.451 7.159,14.464 C7.293,14.524 7.432,14.574 7.570,14.624 C7.628,14.644 7.684,14.666 7.742,14.685 C7.863,14.723 7.985,14.754 8.109,14.785 C8.185,14.804 8.261,14.825 8.339,14.841 C8.464,14.867 8.594,14.885 8.723,14.904 C8.791,14.913 8.857,14.924 8.924,14.931 C9.089,14.947 9.255,14.958 9.422,14.958 C10.696,14.978 11.943,14.570 12.980,13.793 L12.982,13.794 C13.190,13.638 13.449,13.577 13.700,13.624 C13.952,13.671 14.175,13.822 14.318,14.044 C14.621,14.507 14.516,15.139 14.081,15.465 C12.747,16.467 11.149,17.007 9.509,17.009 C9.243,17.009 8.978,16.990 8.710,16.962 C8.657,16.956 8.604,16.946 8.550,16.940 C8.401,16.920 8.253,16.905 8.104,16.877 C8.061,16.870 8.019,16.855 7.975,16.846 C7.869,16.824 7.766,16.797 7.661,16.771 C7.504,16.731 7.348,16.692 7.195,16.642 C7.111,16.615 7.029,16.585 6.947,16.555 C6.772,16.495 6.598,16.430 6.429,16.355 C6.378,16.333 6.330,16.308 6.283,16.285 C6.085,16.192 5.891,16.094 5.700,15.986 C5.682,15.975 5.665,15.964 5.648,15.953 C4.987,15.568 4.382,15.085 3.851,14.519 C3.836,14.504 3.822,14.487 3.806,14.470 C3.648,14.296 3.492,14.120 3.346,13.931 C3.308,13.882 3.273,13.832 3.237,13.782 C3.138,13.649 3.038,13.519 2.943,13.379 C2.931,13.360 2.923,13.340 2.912,13.321 C1.989,11.900 1.495,10.219 1.497,8.499 L0.088,8.499 C0.050,8.499 0.015,8.478 -0.003,8.443 C-0.021,8.408 -0.019,8.365 0.002,8.332 L2.370,4.550 C2.388,4.519 2.420,4.501 2.455,4.501 C2.490,4.501 2.522,4.519 2.541,4.550 L4.913,8.333 C4.934,8.366 4.936,8.408 4.918,8.443 Z"/>
</svg>
