<svg 
 xmlns="http://www.w3.org/2000/svg"
 xmlns:xlink="http://www.w3.org/1999/xlink"
 width="25px" height="25px">
<path fill-rule="evenodd"  fill="rgb(57, 164, 221)"
 d="M12.479,19.823 C10.545,19.823 8.727,19.070 7.359,17.698 C5.991,16.326 5.236,14.508 5.236,12.572 C5.236,10.637 5.988,8.816 7.359,7.447 C8.727,6.077 10.545,5.322 12.479,5.322 C13.142,5.322 13.799,5.411 14.431,5.589 C14.726,5.673 14.902,5.980 14.818,6.275 C14.735,6.571 14.428,6.747 14.133,6.663 C13.598,6.512 13.041,6.437 12.481,6.437 C10.843,6.437 9.306,7.076 8.147,8.233 C6.988,9.393 6.353,10.933 6.353,12.572 C6.353,14.212 6.991,15.752 8.147,16.912 C9.306,18.072 10.843,18.708 12.481,18.708 C14.119,18.708 15.657,18.069 16.816,16.912 C17.974,15.754 18.609,14.212 18.609,12.572 C18.609,10.528 17.598,8.626 15.902,7.483 C15.646,7.310 15.579,6.964 15.752,6.708 C15.924,6.451 16.270,6.384 16.526,6.557 C18.529,7.910 19.724,10.157 19.724,12.572 C19.724,14.508 18.972,16.329 17.601,17.698 C16.231,19.067 14.412,19.823 12.479,19.823 L12.479,19.823 ZM12.498,3.880 C12.192,3.880 11.941,3.629 11.941,3.322 L11.941,0.564 C11.941,0.257 12.192,0.006 12.498,0.006 C12.805,0.006 13.055,0.257 13.055,0.564 L13.055,3.322 C13.055,3.629 12.805,3.880 12.498,3.880 L12.498,3.880 ZM12.498,24.993 C12.192,24.993 11.941,24.743 11.941,24.436 L11.941,21.678 C11.941,21.371 12.192,21.120 12.498,21.120 C12.805,21.120 13.055,21.371 13.055,21.678 L13.055,24.436 C13.055,24.743 12.805,24.993 12.498,24.993 L12.498,24.993 ZM3.317,13.063 L0.565,13.063 C0.259,13.063 0.008,12.812 0.008,12.505 C0.008,12.199 0.259,11.948 0.565,11.948 L3.320,11.948 C3.626,11.948 3.877,12.199 3.877,12.505 C3.874,12.815 3.626,13.063 3.317,13.063 L3.317,13.063 ZM20.924,21.494 C20.782,21.494 20.640,21.438 20.531,21.329 L18.584,19.380 C18.367,19.162 18.367,18.808 18.584,18.591 C18.802,18.373 19.155,18.373 19.373,18.591 L21.320,20.540 C21.537,20.757 21.537,21.112 21.320,21.329 C21.208,21.441 21.066,21.494 20.924,21.494 L20.924,21.494 ZM6.008,6.563 C5.866,6.563 5.724,6.507 5.615,6.398 L3.668,4.449 C3.451,4.231 3.451,3.877 3.668,3.659 C3.885,3.442 4.239,3.442 4.456,3.659 L6.404,5.609 C6.621,5.826 6.621,6.181 6.404,6.398 C6.295,6.507 6.150,6.563 6.008,6.563 L6.008,6.563 ZM18.960,6.582 C18.818,6.582 18.676,6.526 18.568,6.418 C18.350,6.200 18.350,5.846 18.568,5.628 L20.515,3.679 C20.732,3.462 21.086,3.462 21.303,3.679 C21.520,3.897 21.520,4.251 21.303,4.468 L19.356,6.418 C19.247,6.526 19.102,6.582 18.960,6.582 L18.960,6.582 ZM4.058,21.505 C3.916,21.505 3.774,21.449 3.665,21.340 C3.448,21.123 3.448,20.769 3.665,20.551 L5.612,18.602 C5.830,18.384 6.183,18.384 6.401,18.602 C6.618,18.819 6.618,19.173 6.401,19.391 L4.451,21.340 C4.342,21.449 4.200,21.505 4.058,21.505 L4.058,21.505 ZM24.439,13.060 L21.685,13.060 C21.378,13.060 21.127,12.809 21.127,12.503 C21.127,12.196 21.378,11.945 21.685,11.945 L24.439,11.945 C24.746,11.945 24.997,12.196 24.997,12.503 C24.997,12.809 24.746,13.060 24.439,13.060 L24.439,13.060 Z"/>
</svg>
