<svg 
 xmlns="http://www.w3.org/2000/svg"
 xmlns:xlink="http://www.w3.org/1999/xlink"
 width="22px" height="24px">
<path fill-rule="evenodd"  fill="rgb(57, 164, 221)"
 d="M19.778,20.523 C19.669,20.718 19.468,20.838 19.251,20.839 C19.143,20.841 19.036,20.811 18.945,20.751 C18.653,20.577 18.552,20.194 18.718,19.892 C21.453,15.007 21.453,8.990 18.718,4.105 C18.552,3.803 18.653,3.420 18.945,3.246 C19.236,3.074 19.607,3.175 19.778,3.474 C22.732,8.749 22.732,15.248 19.778,20.523 ZM15.925,18.856 C15.818,18.857 15.712,18.829 15.619,18.774 C15.477,18.691 15.373,18.553 15.331,18.390 C15.288,18.228 15.310,18.055 15.392,17.909 C17.458,14.256 17.458,9.740 15.392,6.088 C15.310,5.942 15.288,5.769 15.331,5.607 C15.373,5.444 15.477,5.306 15.619,5.223 C15.911,5.051 16.284,5.156 16.452,5.456 C18.738,9.499 18.738,14.498 16.452,18.540 C16.343,18.735 16.142,18.855 15.925,18.856 ZM12.550,16.854 C12.442,16.853 12.336,16.823 12.244,16.766 C11.954,16.590 11.856,16.207 12.023,15.907 C13.387,13.491 13.387,10.506 12.023,8.090 C11.871,7.790 11.975,7.420 12.260,7.250 C12.544,7.081 12.907,7.173 13.083,7.458 C14.668,10.265 14.668,13.732 13.083,16.539 C12.973,16.735 12.770,16.855 12.550,16.854 Z"/>
<path fill-rule="evenodd"  fill="rgb(57, 164, 221)"
 d="M5.500,24.000 C2.462,24.000 -0.000,21.538 -0.000,18.500 L-0.000,5.500 C-0.000,2.462 2.462,-0.000 5.500,-0.000 C8.538,-0.000 11.000,2.462 11.000,5.500 L11.000,18.500 C11.000,21.538 8.538,24.000 5.500,24.000 ZM5.500,3.000 C4.119,3.000 3.000,4.119 3.000,5.500 C3.000,6.881 4.119,8.000 5.500,8.000 C6.881,8.000 8.000,6.881 8.000,5.500 C8.000,4.119 6.881,3.000 5.500,3.000 ZM5.500,9.000 C4.119,9.000 3.000,10.119 3.000,11.500 C3.000,12.881 4.119,14.000 5.500,14.000 C6.881,14.000 8.000,12.881 8.000,11.500 C8.000,10.119 6.881,9.000 5.500,9.000 ZM5.500,16.000 C4.119,16.000 3.000,17.119 3.000,18.500 C3.000,19.881 4.119,21.000 5.500,21.000 C6.881,21.000 8.000,19.881 8.000,18.500 C8.000,17.119 6.881,16.000 5.500,16.000 Z"/>
</svg>
