<svg 
 xmlns="http://www.w3.org/2000/svg"
 xmlns:xlink="http://www.w3.org/1999/xlink"
 width="781.5px" height="468.5px">
<path fill-rule="evenodd"  fill="none"
 d="M775.000,450.085 L763.697,461.758 L17.922,462.014 L5.257,448.702 L5.001,17.915 L17.305,6.241 L763.080,5.985 L774.745,18.297 L775.000,450.085 Z"/>
<path fill-rule="evenodd"  stroke="rgb(51, 213, 255)" stroke-width="1px" stroke-linecap="butt" stroke-linejoin="miter" fill="none"
 d="M775.000,450.085 L763.697,461.758 L17.922,462.014 L5.257,448.702 L5.001,17.915 L17.305,6.241 L763.080,5.985 L774.745,18.297 L775.000,450.085 Z"/>
<path fill-rule="evenodd"  stroke="rgb(51, 209, 255)" stroke-width="1px" stroke-linecap="butt" stroke-linejoin="miter" fill="rgb(51, 213, 255)"
 d="M2.000,18.000 L2.000,78.000 L8.000,84.000 L8.000,63.000 L5.000,60.000 L5.000,20.000 L18.000,7.000 L58.000,7.000 L61.000,10.000 L78.000,10.000 L74.000,4.000 L15.000,4.000 L2.000,18.000 Z"/>
<path fill-rule="evenodd"  fill="rgb(51, 213, 255)"
 d="M80.000,6.000 L101.000,6.000 L103.000,10.000 L82.000,10.000 L80.000,6.000 Z"/>
<path fill-rule="evenodd"  fill="rgb(51, 213, 255)"
 d="M208.000,10.000 L206.000,6.000 L209.000,6.000 L211.000,10.000 L208.000,10.000 ZM199.000,6.000 L202.000,6.000 L204.000,10.000 L201.000,10.000 L199.000,6.000 ZM193.000,6.000 L196.000,6.000 L198.000,10.000 L195.000,10.000 L193.000,6.000 ZM186.000,6.000 L189.000,6.000 L191.000,10.000 L188.000,10.000 L186.000,6.000 ZM179.000,6.000 L182.000,6.000 L184.000,10.000 L181.000,10.000 L179.000,6.000 ZM172.000,6.000 L175.000,6.000 L177.000,10.000 L174.000,10.000 L172.000,6.000 ZM165.000,6.000 L168.000,6.000 L170.000,10.000 L167.000,10.000 L165.000,6.000 ZM158.000,6.000 L161.000,6.000 L163.000,10.000 L160.000,10.000 L158.000,6.000 ZM152.000,6.000 L155.000,6.000 L157.000,10.000 L154.000,10.000 L152.000,6.000 ZM145.000,6.000 L148.000,6.000 L150.000,10.000 L147.000,10.000 L145.000,6.000 ZM138.000,6.000 L141.000,6.000 L143.000,10.000 L140.000,10.000 L138.000,6.000 ZM131.000,6.000 L134.000,6.000 L136.000,10.000 L133.000,10.000 L131.000,6.000 ZM124.000,6.000 L127.000,6.000 L129.000,10.000 L126.000,10.000 L124.000,6.000 ZM118.000,6.000 L121.000,6.000 L123.000,10.000 L120.000,10.000 L118.000,6.000 ZM111.000,6.000 L114.000,6.000 L116.000,10.000 L113.000,10.000 L111.000,6.000 ZM104.000,6.000 L107.000,6.000 L109.000,10.000 L106.000,10.000 L104.000,6.000 Z"/>
<path fill-rule="evenodd"  fill="rgb(51, 213, 255)"
 d="M214.000,6.000 L224.000,6.000 L226.000,10.000 L216.000,10.000 L214.000,6.000 Z"/>
<path fill-rule="evenodd"  fill="rgb(51, 213, 255)"
 d="M21.000,22.000 L9.797,19.684 L18.301,10.671 L21.000,22.000 Z"/>
<path fill-rule="evenodd"  stroke="rgb(51, 209, 255)" stroke-width="1px" stroke-linecap="butt" stroke-linejoin="miter" fill="rgb(51, 213, 255)"
 d="M778.000,18.000 L778.000,78.000 L772.000,84.000 L772.000,63.000 L775.000,60.000 L775.000,20.000 L762.000,7.000 L722.000,7.000 L719.000,10.000 L702.000,10.000 L706.000,4.000 L765.000,4.000 L778.000,18.000 Z"/>
<path fill-rule="evenodd"  fill="rgb(51, 213, 255)"
 d="M700.000,6.000 L679.000,6.000 L677.000,10.000 L698.000,10.000 L700.000,6.000 Z"/>
<path fill-rule="evenodd"  fill="rgb(51, 213, 255)"
 d="M674.000,10.000 L671.000,10.000 L673.000,6.000 L676.000,6.000 L674.000,10.000 ZM664.000,10.000 L666.000,6.000 L669.000,6.000 L667.000,10.000 L664.000,10.000 ZM657.000,10.000 L659.000,6.000 L662.000,6.000 L660.000,10.000 L657.000,10.000 ZM651.000,10.000 L653.000,6.000 L656.000,6.000 L654.000,10.000 L651.000,10.000 ZM644.000,10.000 L646.000,6.000 L649.000,6.000 L647.000,10.000 L644.000,10.000 ZM637.000,10.000 L639.000,6.000 L642.000,6.000 L640.000,10.000 L637.000,10.000 ZM630.000,10.000 L632.000,6.000 L635.000,6.000 L633.000,10.000 L630.000,10.000 ZM623.000,10.000 L625.000,6.000 L628.000,6.000 L626.000,10.000 L623.000,10.000 ZM617.000,10.000 L619.000,6.000 L622.000,6.000 L620.000,10.000 L617.000,10.000 ZM610.000,10.000 L612.000,6.000 L615.000,6.000 L613.000,10.000 L610.000,10.000 ZM603.000,10.000 L605.000,6.000 L608.000,6.000 L606.000,10.000 L603.000,10.000 ZM596.000,10.000 L598.000,6.000 L601.000,6.000 L599.000,10.000 L596.000,10.000 ZM589.000,10.000 L591.000,6.000 L594.000,6.000 L592.000,10.000 L589.000,10.000 ZM582.000,10.000 L584.000,6.000 L587.000,6.000 L585.000,10.000 L582.000,10.000 ZM576.000,10.000 L578.000,6.000 L581.000,6.000 L579.000,10.000 L576.000,10.000 ZM569.000,10.000 L571.000,6.000 L574.000,6.000 L572.000,10.000 L569.000,10.000 Z"/>
<path fill-rule="evenodd"  fill="rgb(51, 213, 255)"
 d="M566.000,6.000 L556.000,6.000 L554.000,10.000 L564.000,10.000 L566.000,6.000 Z"/>
<path fill-rule="evenodd"  fill="rgb(51, 213, 255)"
 d="M758.000,22.000 L760.246,10.985 L768.985,19.346 L758.000,22.000 Z"/>
<path fill-rule="evenodd"  stroke="rgb(67, 218, 247)" stroke-width="1px" stroke-linecap="butt" stroke-linejoin="miter" fill="rgb(52, 217, 254)"
 d="M3.000,392.000 L3.000,451.000 L16.000,464.000 L76.000,464.000 L82.000,458.000 L64.000,458.000 L61.000,461.000 L18.000,461.000 L6.000,449.000 L6.000,409.000 L9.000,407.000 L9.000,386.000 L3.000,392.000 Z"/>
<path fill-rule="evenodd"  fill="rgb(51, 213, 255)"
 d="M22.000,446.000 L19.754,457.015 L11.015,448.654 L22.000,446.000 Z"/>
<path fill-rule="evenodd"  stroke="rgb(67, 218, 247)" stroke-width="1px" stroke-linecap="butt" stroke-linejoin="miter" fill="rgb(52, 217, 254)"
 d="M778.000,392.000 L778.000,451.000 L765.000,464.000 L705.000,464.000 L699.000,458.000 L717.000,458.000 L720.000,461.000 L763.000,461.000 L775.000,449.000 L775.000,409.000 L772.000,407.000 L772.000,386.000 L778.000,392.000 Z"/>
<path fill-rule="evenodd"  fill="rgb(51, 213, 255)"
 d="M759.000,446.000 L761.246,457.015 L769.985,448.654 L759.000,446.000 Z"/>
</svg>
