<svg 
 xmlns="http://www.w3.org/2000/svg"
 xmlns:xlink="http://www.w3.org/1999/xlink"
 width="667px" height="281px">
<path fill-rule="evenodd"  opacity="0.6" fill="rgb(0, 65, 87)"
 d="M12.000,12.000 L652.999,12.000 L652.999,267.000 L12.000,267.000 L12.000,12.000 Z"/>
<path fill-rule="evenodd"  stroke="rgb(1, 121, 162)" stroke-width="1px" stroke-linecap="butt" stroke-linejoin="miter" opacity="0.949" fill="none"
 d="M12.000,12.000 L652.999,12.000 L652.999,267.000 L12.000,267.000 L12.000,12.000 Z"/>
<path fill-rule="evenodd"  stroke="rgb(0, 167, 232)" stroke-width="2px" stroke-linecap="butt" stroke-linejoin="miter" opacity="0.8" fill="none"
 d="M1.999,2.000 L662.999,2.000 L662.999,277.000 L1.999,277.000 L1.999,2.000 Z"/>
<path fill-rule="evenodd"  stroke="rgb(0, 183, 255)" stroke-width="4px" stroke-linecap="butt" stroke-linejoin="miter" fill="none"
 d="M24.000,277.000 C8.456,277.000 1.999,277.000 1.999,277.000 C1.999,277.000 1.999,270.750 1.999,255.000 M1.999,24.264 C1.999,9.765 1.999,2.000 1.999,2.000 C1.999,2.000 8.871,2.000 24.138,2.000 M640.999,2.000 C655.848,2.000 662.999,2.000 662.999,2.000 C662.999,2.000 662.999,6.483 662.999,24.000 M662.999,255.000 C662.999,269.627 662.999,277.000 662.999,277.000 C662.999,277.000 660.213,277.000 640.999,277.000 "/>
</svg>
