<svg 
 xmlns="http://www.w3.org/2000/svg"
 xmlns:xlink="http://www.w3.org/1999/xlink"
 width="16px" height="15px">
<path fill-rule="evenodd"  fill="rgb(130, 243, 250)"
 d="M7.930,14.999 C7.370,14.999 6.302,14.767 5.282,14.257 C4.430,13.832 3.315,13.067 2.835,11.838 L2.816,11.789 L2.764,11.776 C2.262,11.646 1.752,11.372 1.365,11.025 C1.058,10.750 0.693,10.305 0.693,9.749 C0.693,8.864 1.192,8.135 1.964,7.891 L2.036,7.868 L2.036,7.711 C2.036,7.583 2.098,7.524 2.184,7.442 L2.215,7.413 L2.215,7.371 C2.215,7.209 2.215,7.055 2.294,6.907 L2.305,6.885 L2.305,6.735 L2.274,6.706 C2.235,6.669 2.186,6.623 2.156,6.584 C2.591,6.450 4.475,5.943 7.930,5.943 C11.385,5.943 13.269,6.450 13.704,6.584 C13.673,6.623 13.625,6.669 13.586,6.706 L13.406,6.877 L13.645,6.877 C13.648,6.923 13.664,6.974 13.682,7.033 C13.707,7.112 13.734,7.201 13.734,7.287 L13.734,7.328 L13.765,7.357 C13.851,7.439 13.913,7.498 13.913,7.626 L13.913,7.783 L13.985,7.806 C14.784,8.059 15.248,8.818 15.167,9.741 L15.167,9.745 L15.167,9.749 C15.167,10.151 14.928,10.593 14.494,10.994 C14.097,11.360 13.575,11.652 13.096,11.776 L13.043,11.789 L13.024,11.838 C12.544,13.067 11.429,13.832 10.578,14.257 C9.558,14.767 8.490,14.999 7.930,14.999 L7.930,14.999 ZM3.889,11.222 C4.452,13.171 7.217,14.010 8.019,14.010 C8.484,14.010 9.377,13.791 10.185,13.372 C10.916,12.993 11.850,12.312 12.151,11.218 L12.154,11.206 L12.154,11.193 C12.154,11.002 12.369,10.868 12.676,10.868 C12.959,10.868 13.526,10.574 13.804,10.208 C13.951,10.015 13.999,9.822 13.945,9.649 C13.941,9.379 13.847,9.199 13.755,9.025 L13.689,8.901 L13.586,8.999 C13.512,9.069 13.361,9.140 13.213,9.140 C12.906,9.140 12.692,8.924 12.692,8.730 L12.692,8.221 C12.692,8.045 12.692,7.780 12.597,7.510 L12.556,7.393 L12.443,7.455 C11.491,7.982 9.804,8.545 7.930,8.545 C6.004,8.545 4.271,7.860 3.410,7.452 L3.258,7.379 L3.258,7.541 C3.258,7.609 3.240,7.700 3.221,7.796 C3.196,7.925 3.168,8.071 3.168,8.221 L3.168,8.730 C3.168,8.924 2.954,9.140 2.647,9.140 C2.499,9.140 2.347,9.069 2.274,8.999 L2.170,8.901 L2.105,9.025 C2.011,9.202 1.915,9.386 1.915,9.664 C1.915,10.006 2.299,10.327 2.528,10.488 C2.837,10.705 3.196,10.868 3.363,10.868 C3.595,10.868 3.815,11.017 3.889,11.222 L3.889,11.222 ZM1.490,5.465 C1.423,4.966 0.972,4.360 0.571,3.820 C0.402,3.593 0.243,3.379 0.141,3.207 C0.005,2.980 0.025,2.919 0.031,2.909 C0.035,2.901 0.063,2.886 0.139,2.886 C3.786,2.886 5.279,1.697 6.368,0.830 C6.952,0.365 7.412,-0.002 8.019,-0.002 C8.650,-0.002 9.190,0.387 9.873,0.879 C11.049,1.726 12.658,2.886 15.899,2.886 C15.954,2.886 15.982,2.892 15.994,2.896 C15.989,2.920 15.962,2.989 15.812,3.153 C15.681,3.297 15.494,3.474 15.296,3.662 C14.709,4.218 13.990,4.899 13.917,5.453 C13.718,5.399 13.297,5.296 12.625,5.192 C11.743,5.056 10.244,4.894 8.109,4.894 C4.518,4.894 2.052,5.350 1.490,5.465 L1.490,5.465 ZM6.392,3.295 C6.392,3.579 6.665,3.882 7.203,4.198 C7.586,4.422 7.963,4.570 7.979,4.577 L8.019,4.592 L8.060,4.577 C8.075,4.570 8.452,4.422 8.836,4.198 C9.374,3.882 9.647,3.579 9.647,3.295 L9.647,3.195 L9.558,3.195 L9.558,2.006 L6.392,2.006 L6.392,3.295 Z"/>
</svg>
