<svg 
 xmlns="http://www.w3.org/2000/svg"
 xmlns:xlink="http://www.w3.org/1999/xlink"
 width="16px" height="16px">
<path fill-rule="evenodd"  fill="rgb(255, 255, 255)"
 d="M15.773,7.762 C15.631,7.832 15.463,7.820 15.333,7.731 C15.204,7.640 15.134,7.486 15.148,7.327 C15.313,4.199 12.945,1.524 9.847,1.340 C9.604,1.325 9.419,1.115 9.434,0.869 C9.448,0.624 9.657,0.437 9.900,0.452 C13.477,0.671 16.206,3.768 16.006,7.380 C16.002,7.541 15.913,7.687 15.773,7.762 ZM13.499,7.243 C13.486,7.488 13.280,7.677 13.037,7.665 C12.794,7.652 12.607,7.444 12.619,7.198 C12.700,5.471 11.402,3.993 9.693,3.867 L9.711,3.867 C9.554,3.862 9.411,3.772 9.337,3.632 C9.267,3.490 9.277,3.320 9.363,3.188 C9.453,3.056 9.606,2.983 9.764,2.997 C11.945,3.151 13.604,5.037 13.499,7.243 ZM10.978,7.078 C10.964,7.324 10.757,7.512 10.514,7.498 C10.271,7.485 10.085,7.275 10.098,7.030 C10.113,6.710 9.869,6.438 9.553,6.421 L9.570,6.421 C9.413,6.413 9.273,6.321 9.201,6.180 C9.130,6.039 9.138,5.870 9.223,5.737 C9.312,5.605 9.465,5.532 9.623,5.546 C10.415,5.594 11.020,6.278 10.978,7.078 ZM6.812,8.602 L7.133,8.988 C7.619,9.556 8.139,10.093 8.690,10.596 C8.840,10.724 9.040,10.774 9.231,10.729 C9.445,10.666 9.635,10.537 9.772,10.361 L9.904,10.223 C10.118,9.956 10.419,9.775 10.754,9.712 C11.352,9.610 12.328,9.943 13.345,10.498 C14.664,11.227 15.676,12.190 15.588,12.981 C15.483,14.109 14.339,15.672 13.424,15.886 C10.820,16.490 6.702,14.553 4.186,11.529 C1.357,8.109 0.227,3.054 1.546,1.500 C2.202,0.807 3.028,0.302 3.939,0.034 C4.837,-0.192 6.130,1.003 6.764,2.508 C7.283,3.770 7.432,5.155 7.049,5.826 C6.968,5.955 6.856,6.062 6.724,6.137 C6.640,6.195 6.456,6.306 6.315,6.372 C6.173,6.438 6.052,6.541 5.963,6.670 C5.831,6.954 5.844,7.285 5.998,7.558 C6.244,7.925 6.516,8.274 6.812,8.602 Z"/>
</svg>
