<svg 
 xmlns="http://www.w3.org/2000/svg"
 xmlns:xlink="http://www.w3.org/1999/xlink"
 width="16px" height="17px">
<path fill-rule="evenodd"  fill="rgb(255, 255, 255)"
 d="M15.789,16.507 C15.512,16.781 15.075,16.769 14.816,16.481 L14.816,16.481 L12.526,13.500 L11.684,14.334 L9.499,11.926 L11.809,9.632 L13.994,12.040 L13.193,12.836 L15.814,15.491 C16.077,15.779 16.062,16.234 15.789,16.507 ZM14.386,11.202 L12.635,9.241 C12.556,9.154 12.513,9.038 12.517,8.919 C12.520,8.799 12.569,8.686 12.653,8.604 C12.735,8.521 12.846,8.476 12.960,8.479 C13.075,8.482 13.183,8.532 13.262,8.619 L15.013,10.580 C15.177,10.760 15.171,11.045 14.998,11.217 C14.825,11.389 14.551,11.382 14.386,11.202 ZM14.514,7.097 C14.230,7.097 13.998,6.863 13.998,6.577 L13.998,1.634 C13.998,1.290 13.731,1.012 13.401,1.012 L1.501,1.012 C1.171,1.012 0.904,1.290 0.904,1.634 L0.904,15.333 C0.904,15.676 1.171,15.954 1.501,15.954 L7.260,15.954 C7.545,15.954 7.777,16.189 7.777,16.475 C7.777,16.761 7.545,16.995 7.260,16.995 L1.194,16.995 C0.877,16.995 0.574,16.864 0.350,16.631 C0.126,16.398 0.000,16.082 0.000,15.752 L0.000,1.242 C0.000,0.555 0.535,-0.002 1.194,-0.002 L13.837,-0.002 C14.153,-0.002 14.457,0.129 14.681,0.363 C14.905,0.596 15.031,0.912 15.031,1.242 L15.031,6.577 C15.031,6.863 14.799,7.097 14.514,7.097 ZM2.905,12.210 L5.598,12.210 C5.883,12.210 6.114,12.444 6.114,12.730 C6.114,13.016 5.883,13.250 5.598,13.250 L2.905,13.250 C2.620,13.250 2.388,13.009 2.388,12.730 C2.388,12.444 2.620,12.210 2.905,12.210 ZM2.388,9.621 C2.388,9.335 2.566,9.101 2.785,9.101 L7.961,9.101 C8.180,9.101 8.358,9.335 8.358,9.621 C8.358,9.907 8.180,10.142 7.961,10.142 L2.785,10.142 C2.566,10.142 2.388,9.897 2.388,9.621 ZM2.388,3.404 C2.388,3.118 2.620,2.883 2.905,2.883 L9.635,2.883 C9.920,2.883 10.151,3.118 10.151,3.404 C10.151,3.690 9.920,3.924 9.635,3.924 L2.905,3.924 C2.620,3.924 2.388,3.690 2.388,3.404 ZM9.076,7.033 L2.865,7.033 C2.602,7.033 2.388,6.799 2.388,6.512 C2.388,6.227 2.602,5.992 2.865,5.992 L9.076,5.992 C9.339,5.992 9.552,6.227 9.552,6.512 C9.552,6.799 9.339,7.033 9.076,7.033 ZM8.802,12.628 C8.916,12.631 9.024,12.681 9.103,12.768 L10.858,14.728 C11.023,14.909 11.016,15.194 10.843,15.366 C10.670,15.537 10.396,15.530 10.231,15.350 L8.476,13.390 C8.397,13.303 8.355,13.187 8.358,13.067 C8.362,12.948 8.411,12.835 8.494,12.753 C8.577,12.670 8.687,12.625 8.802,12.628 Z"/>
</svg>
