<svg 
 xmlns="http://www.w3.org/2000/svg"
 xmlns:xlink="http://www.w3.org/1999/xlink"
 width="21px" height="21px">
<path fill-rule="evenodd"  fill="rgb(255, 255, 255)"
 d="M10.013,0.002 C11.178,-0.014 10.935,1.172 10.935,2.284 C10.935,2.752 11.015,3.342 10.831,3.645 C10.700,3.860 10.480,3.993 10.181,4.043 C10.006,4.071 9.843,4.001 9.741,3.949 C9.100,3.622 9.280,2.668 9.280,1.740 C9.280,1.351 9.198,0.829 9.322,0.526 C9.458,0.194 9.677,0.142 10.013,0.002 L10.013,0.002 ZM4.061,2.002 C4.331,2.000 4.517,2.072 4.668,2.190 C5.056,2.664 5.444,3.139 5.832,3.613 C6.026,3.862 6.314,4.094 6.439,4.399 C6.616,4.826 6.358,5.244 6.094,5.403 C5.816,5.571 5.385,5.523 5.151,5.351 C4.871,5.147 4.651,4.766 4.438,4.493 C4.225,4.231 4.012,3.969 3.799,3.708 C3.504,3.329 3.024,2.886 3.484,2.294 C3.629,2.108 3.816,2.099 4.061,2.002 L4.061,2.002 ZM15.977,2.284 C16.577,2.273 17.150,2.733 16.888,3.383 C16.761,3.698 16.460,3.899 16.259,4.147 C15.991,4.447 15.721,4.747 15.453,5.048 C15.310,5.224 15.150,5.455 14.960,5.581 C14.747,5.723 14.329,5.769 14.080,5.623 C13.754,5.433 13.499,4.919 13.765,4.482 C14.031,4.186 14.296,3.889 14.562,3.593 C14.772,3.359 14.981,3.125 15.191,2.892 C15.328,2.721 15.474,2.516 15.662,2.399 C15.767,2.361 15.872,2.323 15.977,2.284 L15.977,2.284 ZM15.117,16.959 L4.857,16.959 L4.857,12.260 C4.857,11.312 4.796,10.265 5.014,9.527 C5.424,8.145 6.218,7.183 7.341,6.513 C7.832,6.220 8.385,6.014 9.039,5.874 C9.256,5.854 9.472,5.833 9.688,5.812 C9.888,5.808 10.087,5.805 10.286,5.801 C10.730,5.869 11.134,5.893 11.512,6.010 C13.246,6.549 14.441,7.772 14.960,9.527 C15.177,10.263 15.117,11.305 15.117,12.249 L15.117,16.959 L15.117,16.959 ZM0.707,7.350 C1.006,7.344 1.221,7.412 1.462,7.465 C1.923,7.556 2.384,7.647 2.845,7.738 C3.193,7.819 3.562,7.824 3.778,8.030 C4.000,8.244 4.158,8.696 3.945,9.046 C3.830,9.237 3.629,9.388 3.380,9.444 C3.119,9.502 2.846,9.399 2.636,9.350 C2.174,9.259 1.713,9.168 1.252,9.077 C0.897,8.994 0.520,8.983 0.277,8.795 C-0.061,8.532 -0.112,7.846 0.246,7.560 C0.384,7.450 0.524,7.428 0.707,7.350 L0.707,7.350 ZM19.100,7.769 C19.795,7.762 20.267,8.491 19.833,9.077 C19.597,9.396 19.187,9.385 18.712,9.475 C18.244,9.545 17.776,9.615 17.308,9.685 C17.098,9.725 16.825,9.809 16.584,9.758 C16.312,9.700 16.078,9.526 15.977,9.297 C15.773,8.836 16.038,8.358 16.375,8.208 C16.570,8.123 16.818,8.130 17.056,8.083 C17.521,8.010 17.986,7.937 18.450,7.863 C18.667,7.832 18.883,7.800 19.100,7.769 L19.100,7.769 ZM3.851,17.661 L13.891,17.661 C15.167,17.660 16.282,17.432 16.784,18.267 C16.878,18.425 16.979,18.681 16.930,18.969 C16.714,20.240 15.364,19.984 13.922,19.984 L4.616,19.984 C4.259,19.984 3.825,20.023 3.558,19.922 C2.984,19.704 2.506,18.940 2.939,18.226 C3.063,18.022 3.274,17.839 3.505,17.744 C3.621,17.717 3.736,17.688 3.851,17.661 L3.851,17.661 Z"/>
</svg>
