<svg 
 xmlns="http://www.w3.org/2000/svg"
 xmlns:xlink="http://www.w3.org/1999/xlink"
 width="17px" height="19px">
<path fill-rule="evenodd"  fill="rgb(255, 255, 255)"
 d="M14.719,3.399 C14.719,2.464 13.940,1.699 12.987,1.699 L9.999,1.699 C9.523,0.679 8.527,-0.001 7.314,-0.001 C6.102,-0.001 5.106,0.679 4.630,1.699 L1.728,1.699 C0.776,1.699 -0.004,2.464 -0.004,3.399 L-0.004,16.575 C-0.004,17.510 0.776,18.275 1.728,18.275 L6.275,18.275 L6.838,15.810 L14.719,8.074 L14.719,3.399 L14.719,3.399 ZM7.314,1.826 C7.921,1.826 8.397,2.294 8.397,2.931 C8.397,3.526 7.921,4.036 7.314,4.036 C6.708,4.036 6.232,3.569 6.232,2.931 C6.232,2.294 6.708,1.826 7.314,1.826 L7.314,1.826 ZM10.822,9.774 L2.162,9.774 L2.162,8.499 L10.822,8.499 L10.822,9.774 ZM12.554,7.224 L2.162,7.224 L2.162,5.949 L12.554,5.949 L12.554,7.224 ZM16.754,10.879 L15.715,9.859 C15.369,9.519 14.936,9.519 14.676,9.859 L14.373,10.157 L8.137,16.108 L7.488,18.658 L7.488,18.743 C7.488,18.785 7.488,18.828 7.531,18.828 C7.574,18.955 7.704,18.998 7.791,18.998 L7.877,18.998 L10.475,18.190 L16.581,12.240 L16.884,11.942 C17.057,11.645 17.057,11.220 16.754,10.879 L16.754,10.879 Z"/>
</svg>
