<svg 
 xmlns="http://www.w3.org/2000/svg"
 xmlns:xlink="http://www.w3.org/1999/xlink"
 width="1142px" height="811px">
<path fill-rule="evenodd"  opacity="0.6" fill="rgb(0, 65, 87)"
 d="M11.999,12.000 L1127.999,12.000 L1127.999,797.000 L11.999,797.000 L11.999,12.000 Z"/>
<path fill-rule="evenodd"  stroke="rgb(1, 121, 162)" stroke-width="1px" stroke-linecap="butt" stroke-linejoin="miter" opacity="0.949" fill="none"
 d="M11.999,12.000 L1127.999,12.000 L1127.999,797.000 L11.999,797.000 L11.999,12.000 Z"/>
<path fill-rule="evenodd"  stroke="rgb(0, 167, 232)" stroke-width="2px" stroke-linecap="butt" stroke-linejoin="miter" opacity="0.8" fill="none"
 d="M1.999,2.000 L1137.999,2.000 L1137.999,807.000 L1.999,807.000 L1.999,2.000 Z"/>
<path fill-rule="evenodd"  stroke="rgb(0, 183, 255)" stroke-width="4px" stroke-linecap="butt" stroke-linejoin="miter" fill="none"
 d="M24.000,807.000 C8.456,807.000 1.999,807.000 1.999,807.000 C1.999,807.000 1.999,800.750 1.999,785.000 M1.999,24.264 C1.999,9.765 1.999,2.000 1.999,2.000 C1.999,2.000 8.871,2.000 24.138,2.000 M1115.999,2.000 C1130.848,2.000 1137.999,2.000 1137.999,2.000 C1137.999,2.000 1137.999,6.483 1137.999,24.000 M1137.999,785.000 C1137.999,799.627 1137.999,807.000 1137.999,807.000 C1137.999,807.000 1135.213,807.000 1115.999,807.000 "/>
</svg>
