<svg 
 xmlns="http://www.w3.org/2000/svg"
 xmlns:xlink="http://www.w3.org/1999/xlink"
 width="25px" height="25px">
<path fill-rule="evenodd"  fill="rgb(15, 191, 224)"
 d="M23.815,23.630 C23.553,23.951 23.132,24.166 22.712,24.166 L2.381,24.166 C1.960,24.166 1.540,23.951 1.277,23.630 C1.015,23.254 0.910,22.825 1.015,22.396 C2.006,17.234 5.944,13.318 10.797,12.530 C10.761,12.520 10.729,12.501 10.694,12.490 C10.420,12.402 10.152,12.306 9.896,12.182 C9.871,12.170 9.849,12.154 9.824,12.142 C8.995,11.727 8.277,11.132 7.703,10.404 C7.681,10.376 7.657,10.349 7.635,10.320 C6.808,9.235 6.296,7.888 6.296,6.407 C6.296,2.867 9.106,-0.001 12.573,-0.001 C16.040,-0.001 18.849,2.867 18.849,6.407 C18.849,9.409 16.820,11.909 14.091,12.605 C15.128,12.752 16.186,12.997 17.248,13.438 C17.800,13.666 17.984,13.813 18.299,13.974 C21.346,15.744 23.448,18.802 24.131,22.396 C24.236,22.825 24.131,23.254 23.815,23.630 Z"/>
</svg>
