<svg 
 xmlns="http://www.w3.org/2000/svg"
 xmlns:xlink="http://www.w3.org/1999/xlink"
 width="350px" height="105.5px">
<path fill-rule="evenodd"  stroke="rgb(0, 167, 232)" stroke-width="1px" stroke-linecap="butt" stroke-linejoin="miter" fill="none"
 d="M0.500,0.500 L157.500,0.500 L189.500,32.500 L328.500,32.500 L347.500,51.500 L347.500,103.500 "/>
<path fill-rule="evenodd"  fill="rgb(0, 167, 232)"
 d="M345.500,81.500 L348.500,81.500 L348.500,103.500 L345.500,103.500 L345.500,81.500 Z"/>
<path fill-rule="evenodd"  stroke="rgb(0, 167, 232)" stroke-width="3px" stroke-linecap="butt" stroke-linejoin="miter" fill="none"
 d="M171.500,15.500 L189.500,33.500 L225.500,33.500 "/>
<path fill-rule="evenodd"  opacity="0.8" fill="rgb(0, 167, 232)"
 d="M132.500,4.500 L148.500,4.500 L180.500,36.500 L164.500,36.500 L132.500,4.500 Z"/>
<path fill-rule="evenodd"  opacity="0.6" fill="rgb(0, 167, 232)"
 d="M128.500,4.500 L160.500,36.500 L144.500,36.500 L112.500,4.500 "/>
<path fill-rule="evenodd"  opacity="0.4" fill="rgb(0, 167, 232)"
 d="M108.500,4.500 L140.500,36.500 L124.500,36.500 L92.500,4.500 "/>
<path fill-rule="evenodd"  opacity="0.2" fill="rgb(0, 167, 232)"
 d="M88.500,4.500 L120.500,36.500 L104.500,36.500 L72.500,4.500 "/>
<path fill-rule="evenodd"  opacity="0.102" fill="rgb(0, 167, 232)"
 d="M68.500,4.500 L100.500,36.500 L84.500,36.500 L52.500,4.500 "/>
<path fill-rule="evenodd"  opacity="0.102" fill="rgb(0, 167, 232)"
 d="M68.500,24.500 L80.500,36.500 L64.500,36.500 L52.500,24.500 "/>
<path fill-rule="evenodd"  opacity="0.102" fill="rgb(0, 167, 232)"
 d="M48.500,24.500 L60.500,36.500 L44.500,36.500 L32.500,24.500 "/>
<path fill-rule="evenodd"  opacity="0.102" fill="rgb(0, 167, 232)"
 d="M28.500,24.500 L40.500,36.500 L24.500,36.500 L12.500,24.500 "/>
<path fill-rule="evenodd"  fill="rgb(0, 167, 232)"
 d="M212.500,40.500 L314.500,40.500 L314.500,41.500 L212.500,41.500 L212.500,40.500 Z"/>
<path fill-rule="evenodd"  fill="rgb(0, 167, 232)"
 d="M301.500,39.500 L320.500,39.500 L320.500,42.500 L301.500,42.500 L301.500,39.500 Z"/>
<path fill-rule="evenodd"  fill="rgb(0, 167, 232)"
 d="M219.500,47.500 L321.500,47.500 L321.500,48.500 L219.500,48.500 L219.500,47.500 Z"/>
<path fill-rule="evenodd"  fill="rgb(0, 167, 232)"
 d="M308.500,46.500 L327.500,46.500 L327.500,49.500 L308.500,49.500 L308.500,46.500 Z"/>
<path fill-rule="evenodd"  fill="rgb(0, 167, 232)"
 d="M225.500,54.500 L327.500,54.500 L327.500,55.500 L225.500,55.500 L225.500,54.500 Z"/>
<path fill-rule="evenodd"  fill="rgb(0, 167, 232)"
 d="M314.500,53.500 L333.500,53.500 L333.500,56.500 L314.500,56.500 L314.500,53.500 Z"/>
<path fill-rule="evenodd"  fill="rgb(0, 167, 232)"
 d="M231.500,61.500 L333.500,61.500 L333.500,62.500 L231.500,62.500 L231.500,61.500 Z"/>
<path fill-rule="evenodd"  fill="rgb(0, 167, 232)"
 d="M320.500,60.500 L339.500,60.500 L339.500,63.500 L320.500,63.500 L320.500,60.500 Z"/>
</svg>
