<svg 
 xmlns="http://www.w3.org/2000/svg"
 xmlns:xlink="http://www.w3.org/1999/xlink"
 width="24px" height="24px">
<path fill-rule="evenodd"  fill="rgb(15, 191, 224)"
 d="M21.879,11.996 C21.879,10.593 22.760,9.404 23.995,8.930 C23.700,7.772 23.245,6.682 22.651,5.681 C21.440,6.219 19.978,5.999 18.987,5.006 C17.996,4.015 17.776,2.550 18.314,1.342 C17.310,0.747 16.220,0.292 15.063,-0.003 C14.586,1.232 13.397,2.113 11.996,2.113 C10.593,2.113 9.404,1.232 8.930,-0.003 C7.772,0.292 6.682,0.747 5.681,1.342 C6.219,2.552 5.999,4.015 5.008,5.006 C4.017,5.997 2.552,6.216 1.344,5.681 C0.747,6.682 0.292,7.772 -0.003,8.930 C1.232,9.406 2.113,10.595 2.113,11.996 C2.113,13.400 1.232,14.589 -0.003,15.063 C0.292,16.220 0.747,17.310 1.342,18.312 C2.552,17.773 4.015,17.993 5.006,18.987 C5.997,19.978 6.216,21.443 5.678,22.651 C6.682,23.245 7.772,23.701 8.930,23.995 C9.406,22.760 10.595,21.879 11.996,21.879 C13.400,21.879 14.589,22.760 15.063,23.995 C16.220,23.701 17.310,23.245 18.312,22.651 C17.773,21.440 17.993,19.978 18.984,18.987 C19.975,17.996 21.440,17.776 22.648,18.312 C23.245,17.310 23.700,16.220 23.995,15.063 C22.760,14.589 21.879,13.400 21.879,11.996 L21.879,11.996 ZM11.996,15.291 C10.178,15.291 8.702,13.815 8.702,11.996 C8.702,10.177 10.178,8.702 11.996,8.702 C13.815,8.702 15.291,10.177 15.291,11.996 C15.291,13.815 13.815,15.291 11.996,15.291 L11.996,15.291 Z"/>
</svg>
