<svg 
 xmlns="http://www.w3.org/2000/svg"
 xmlns:xlink="http://www.w3.org/1999/xlink"
 width="1750px" height="75.5px">
<defs>
<linearGradient id="PSgrad_0" x1="100%" x2="0%" y1="0%" y2="0%">
  <stop offset="0%" stop-color="rgb(0,226,253)" stop-opacity="1" />
  <stop offset="0%" stop-color="rgb(255,255,255)" stop-opacity="1" />
  <stop offset="0%" stop-color="rgb(255,138,0)" stop-opacity="1" />
  <stop offset="100%" stop-color="rgb(255,150,0)" stop-opacity="0" />
</linearGradient>
<linearGradient id="PSgrad_1" x1="0%" x2="100%" y1="0%" y2="0%">
  <stop offset="0%" stop-color="rgb(0,210,255)" stop-opacity="1" />
  <stop offset="100%" stop-color="rgb(0,210,255)" stop-opacity="0" />
</linearGradient>
<linearGradient id="PSgrad_2" x1="0%" x2="0%" y1="100%" y2="0%">
  <stop offset="0%" stop-color="rgb(0,188,250)" stop-opacity="0.8" />
  <stop offset="100%" stop-color="rgb(0,188,250)" stop-opacity="0" />
</linearGradient>
<linearGradient id="PSgrad_3" x1="0%" x2="100%" y1="0%" y2="0%">
  <stop offset="0%" stop-color="rgb(255,255,255)" stop-opacity="1" />
  <stop offset="0%" stop-color="rgb(248,2,5)" stop-opacity="1" />
  <stop offset="0%" stop-color="rgb(0,226,253)" stop-opacity="1" />
  <stop offset="100%" stop-color="rgb(2,245,248)" stop-opacity="0.2" />
</linearGradient>
<linearGradient id="PSgrad_4" x1="100%" x2="0%" y1="0%" y2="0%">
  <stop offset="0%" stop-color="rgb(0,204,255)" stop-opacity="1" />
  <stop offset="100%" stop-color="rgb(3,205,255)" stop-opacity="0" />
</linearGradient>
<linearGradient id="PSgrad_5" x1="99.863%" x2="0%" y1="5.234%" y2="0%">
  <stop offset="0%" stop-color="rgb(0,204,255)" stop-opacity="0.8" />
  <stop offset="100%" stop-color="rgb(0,188,250)" stop-opacity="0" />
</linearGradient>
<linearGradient id="PSgrad_6" x1="100%" x2="0%" y1="0%" y2="0%">
  <stop offset="0%" stop-color="rgb(255,138,0)" stop-opacity="1" />
  <stop offset="0%" stop-color="rgb(0,226,253)" stop-opacity="1" />
  <stop offset="0%" stop-color="rgb(0,180,255)" stop-opacity="1" />
  <stop offset="100%" stop-color="rgb(0,180,255)" stop-opacity="0" />
</linearGradient>

</defs>
<path fill-rule="evenodd"  stroke="rgb(0, 210, 255)" stroke-width="2px" stroke-linecap="butt" stroke-linejoin="miter" fill="none"
 d="M422.000,38.500 L462.000,38.500 L466.000,46.500 L470.000,38.500 L477.000,38.500 L481.000,33.500 L485.000,39.500 L492.000,26.500 L500.000,39.500 L514.000,39.500 L517.000,46.500 L519.000,39.500 L1168.000,39.500 "/>
<path fill-rule="evenodd"  fill="url(#PSgrad_1)"
 d="M1168.000,39.500 L1749.000,39.500 L1749.000,41.500 L1168.000,41.500 L1168.000,39.500 Z"/>
<path fill-rule="evenodd"  stroke="rgb(0, 192, 255)" stroke-width="1px" stroke-linecap="butt" stroke-linejoin="miter" fill="none"
 d="M230.000,0.500 L399.000,0.500 L409.000,13.500 L393.000,13.500 "/>
<path fill-rule="evenodd"  fill="rgb(0, 192, 255)"
 d="M395.451,16.578 L388.333,13.438 L392.878,9.844 L395.451,16.578 Z"/>
<path fill-rule="evenodd"  stroke="rgb(0, 192, 255)" stroke-width="1px" stroke-linecap="butt" stroke-linejoin="miter" fill="none"
 d="M430.000,51.500 L437.000,64.500 L316.000,64.500 "/>
<path fill-rule="evenodd"  opacity="0.4" fill="url(#PSgrad_2)"
 d="M-0.000,18.500 L389.000,18.500 L421.000,74.500 L35.000,74.500 L-0.000,18.500 Z"/>
<path fill-rule="evenodd"  stroke="rgb(0, 180, 255)" stroke-width="1px" stroke-linecap="butt" stroke-linejoin="miter" fill="none"
 d="M28.000,5.500 L63.000,60.500 L160.000,60.500 "/>
<path fill-rule="evenodd"  stroke="rgb(0, 180, 255)" stroke-width="2px" stroke-linecap="butt" stroke-linejoin="miter" fill="none"
 d="M51.000,39.500 L64.000,59.500 L92.000,59.500 "/>
<path fill-rule="evenodd"  opacity="0.2" fill="url(#PSgrad_3)"
 d="M422.000,53.500 L398.000,10.500 L409.000,10.500 L433.000,53.500 L422.000,53.500 ZM402.000,53.500 L378.000,10.500 L389.000,10.500 L413.000,53.500 L402.000,53.500 ZM382.000,53.500 L358.000,10.500 L369.000,10.500 L393.000,53.500 L382.000,53.500 ZM362.000,53.500 L338.000,10.500 L349.000,10.500 L373.000,53.500 L362.000,53.500 ZM342.000,53.500 L318.000,10.500 L329.000,10.500 L353.000,53.500 L342.000,53.500 ZM322.000,53.500 L298.000,10.500 L309.000,10.500 L333.000,53.500 L322.000,53.500 ZM302.000,53.500 L278.000,10.500 L289.000,10.500 L313.000,53.500 L302.000,53.500 ZM282.000,53.500 L258.000,10.500 L269.000,10.500 L293.000,53.500 L282.000,53.500 ZM262.000,53.500 L238.000,10.500 L249.000,10.500 L273.000,53.500 L262.000,53.500 ZM242.000,53.500 L218.000,10.500 L229.000,10.500 L253.000,53.500 L242.000,53.500 ZM222.000,53.500 L198.000,10.500 L209.000,10.500 L233.000,53.500 L222.000,53.500 ZM202.000,53.500 L178.000,10.500 L189.000,10.500 L213.000,53.500 L202.000,53.500 ZM182.000,53.500 L158.000,10.500 L169.000,10.500 L193.000,53.500 L182.000,53.500 ZM162.000,53.500 L138.000,10.500 L149.000,10.500 L173.000,53.500 L162.000,53.500 ZM142.000,53.500 L118.000,10.500 L129.000,10.500 L153.000,53.500 L142.000,53.500 ZM122.000,53.500 L98.000,10.500 L109.000,10.500 L133.000,53.500 L122.000,53.500 Z"/>
<path fill-rule="evenodd"  opacity="0.8" fill="url(#PSgrad_4)"
 d="M420.000,10.500 L439.000,10.500 L462.000,50.500 L443.000,50.500 L420.000,10.500 Z"/>
<path fill-rule="evenodd"  opacity="0.749" fill="url(#PSgrad_5)"
 d="M28.000,5.500 L417.000,5.500 L449.000,61.500 L63.000,61.500 L28.000,5.500 Z"/>
<path fill-rule="evenodd"  fill="url(#PSgrad_0)"
 d="M106.000,56.500 L298.000,56.500 L302.000,59.500 L106.000,59.500 L106.000,56.500 Z"/>
<path fill-rule="evenodd"  fill="url(#PSgrad_6)"
 d="M105.000,64.500 L197.000,64.500 L201.000,67.500 L105.000,67.500 L105.000,64.500 Z"/>
</svg>
